G04 #@! TF.GenerationSoftware,KiCad,Pcbnew,(6.0.4-0)*
G04 #@! TF.CreationDate,2022-05-03T13:04:23-07:00*
G04 #@! TF.ProjectId,amoeba-king,616d6f65-6261-42d6-9b69-6e672e6b6963,rev?*
G04 #@! TF.SameCoordinates,Original*
G04 #@! TF.FileFunction,Paste,Bot*
G04 #@! TF.FilePolarity,Positive*
%FSLAX46Y46*%
G04 Gerber Fmt 4.6, Leading zero omitted, Abs format (unit mm)*
G04 Created by KiCad (PCBNEW (6.0.4-0)) date 2022-05-03 13:04:23*
%MOMM*%
%LPD*%
G01*
G04 APERTURE LIST*
G04 Aperture macros list*
%AMRoundRect*
0 Rectangle with rounded corners*
0 $1 Rounding radius*
0 $2 $3 $4 $5 $6 $7 $8 $9 X,Y pos of 4 corners*
0 Add a 4 corners polygon primitive as box body*
4,1,4,$2,$3,$4,$5,$6,$7,$8,$9,$2,$3,0*
0 Add four circle primitives for the rounded corners*
1,1,$1+$1,$2,$3*
1,1,$1+$1,$4,$5*
1,1,$1+$1,$6,$7*
1,1,$1+$1,$8,$9*
0 Add four rect primitives between the rounded corners*
20,1,$1+$1,$2,$3,$4,$5,0*
20,1,$1+$1,$4,$5,$6,$7,0*
20,1,$1+$1,$6,$7,$8,$9,0*
20,1,$1+$1,$8,$9,$2,$3,0*%
G04 Aperture macros list end*
%ADD10R,2.550000X2.500000*%
%ADD11RoundRect,0.250000X-0.250000X0.625000X-0.250000X-0.625000X0.250000X-0.625000X0.250000X0.625000X0*%
%ADD12RoundRect,0.250000X-0.625000X-0.250000X0.625000X-0.250000X0.625000X0.250000X-0.625000X0.250000X0*%
%ADD13RoundRect,0.250000X0.250000X-0.500000X0.250000X0.500000X-0.250000X0.500000X-0.250000X-0.500000X0*%
%ADD14RoundRect,0.250000X-0.250000X0.500000X-0.250000X-0.500000X0.250000X-0.500000X0.250000X0.500000X0*%
%ADD15R,1.200000X0.900000*%
%ADD16R,1.800000X0.820000*%
G04 APERTURE END LIST*
D10*
X82798000Y-171196000D03*
X69348000Y-173736000D03*
D11*
X76835000Y-161157000D03*
X78105000Y-161157000D03*
X79375000Y-161157000D03*
X80645000Y-161157000D03*
D12*
X68320000Y-164973000D03*
X68320000Y-163703000D03*
X68320000Y-162433000D03*
X68320000Y-161163000D03*
D13*
X71678800Y-176508600D03*
D14*
X71678800Y-161032000D03*
D12*
X82530600Y-164973000D03*
X82530600Y-163703000D03*
X82530600Y-162433000D03*
X82530600Y-161163000D03*
D15*
X68719700Y-167411400D03*
X68719700Y-170711400D03*
D11*
X76835000Y-176383600D03*
X78105000Y-176383600D03*
X79375000Y-176383600D03*
X80645000Y-176383600D03*
D16*
X72888000Y-162826000D03*
X72888000Y-164326000D03*
X77988000Y-164326000D03*
X77988000Y-162826000D03*
D15*
X128869700Y-187461400D03*
X128869700Y-190761400D03*
D12*
X122630600Y-164973000D03*
X122630600Y-163703000D03*
X122630600Y-162433000D03*
X122630600Y-161163000D03*
X162730600Y-225123000D03*
X162730600Y-223853000D03*
X162730600Y-222583000D03*
X162730600Y-221313000D03*
D15*
X88769700Y-167411400D03*
X88769700Y-170711400D03*
D13*
X111778800Y-216608600D03*
D14*
X91728800Y-241232000D03*
D16*
X133038000Y-162826000D03*
X133038000Y-164326000D03*
X138138000Y-164326000D03*
X138138000Y-162826000D03*
D15*
X88769700Y-227561400D03*
X88769700Y-230861400D03*
D11*
X96885000Y-236533600D03*
X98155000Y-236533600D03*
X99425000Y-236533600D03*
X100695000Y-236533600D03*
D10*
X102848000Y-251396000D03*
X89398000Y-253936000D03*
D13*
X151878800Y-176508600D03*
D11*
X96885000Y-181207000D03*
X98155000Y-181207000D03*
X99425000Y-181207000D03*
X100695000Y-181207000D03*
D13*
X131828800Y-216608600D03*
X151878800Y-196558600D03*
D12*
X82530600Y-245173000D03*
X82530600Y-243903000D03*
X82530600Y-242633000D03*
X82530600Y-241363000D03*
D10*
X162998000Y-211296000D03*
X149548000Y-213836000D03*
D14*
X131828800Y-201132000D03*
D13*
X151878800Y-256708600D03*
D16*
X92938000Y-202926000D03*
X92938000Y-204426000D03*
X98038000Y-204426000D03*
X98038000Y-202926000D03*
D15*
X128869700Y-167411400D03*
X128869700Y-170711400D03*
X128869700Y-227561400D03*
X128869700Y-230861400D03*
D12*
X128470000Y-185023000D03*
X128470000Y-183753000D03*
X128470000Y-182483000D03*
X128470000Y-181213000D03*
D16*
X112988000Y-222976000D03*
X112988000Y-224476000D03*
X118088000Y-224476000D03*
X118088000Y-222976000D03*
D12*
X88370000Y-185023000D03*
X88370000Y-183753000D03*
X88370000Y-182483000D03*
X88370000Y-181213000D03*
D11*
X76835000Y-181207000D03*
X78105000Y-181207000D03*
X79375000Y-181207000D03*
X80645000Y-181207000D03*
D10*
X102848000Y-211296000D03*
X89398000Y-213836000D03*
D12*
X102580600Y-225123000D03*
X102580600Y-223853000D03*
X102580600Y-222583000D03*
X102580600Y-221313000D03*
D14*
X111778800Y-161032000D03*
X111778800Y-241232000D03*
D12*
X148520000Y-225123000D03*
X148520000Y-223853000D03*
X148520000Y-222583000D03*
X148520000Y-221313000D03*
D11*
X116935000Y-236533600D03*
X118205000Y-236533600D03*
X119475000Y-236533600D03*
X120745000Y-236533600D03*
D14*
X71678800Y-181082000D03*
D12*
X148520000Y-245173000D03*
X148520000Y-243903000D03*
X148520000Y-242633000D03*
X148520000Y-241363000D03*
X148520000Y-205073000D03*
X148520000Y-203803000D03*
X148520000Y-202533000D03*
X148520000Y-201263000D03*
D13*
X91728800Y-236658600D03*
D12*
X68320000Y-185023000D03*
X68320000Y-183753000D03*
X68320000Y-182483000D03*
X68320000Y-181213000D03*
D11*
X76835000Y-256583600D03*
X78105000Y-256583600D03*
X79375000Y-256583600D03*
X80645000Y-256583600D03*
X116935000Y-201257000D03*
X118205000Y-201257000D03*
X119475000Y-201257000D03*
X120745000Y-201257000D03*
X157035000Y-161157000D03*
X158305000Y-161157000D03*
X159575000Y-161157000D03*
X160845000Y-161157000D03*
D14*
X71678800Y-221182000D03*
X151878800Y-161032000D03*
D12*
X162730600Y-164973000D03*
X162730600Y-163703000D03*
X162730600Y-162433000D03*
X162730600Y-161163000D03*
D10*
X122898000Y-231346000D03*
X109448000Y-233886000D03*
D14*
X111778800Y-201132000D03*
X131828800Y-221182000D03*
D10*
X142948000Y-191246000D03*
X129498000Y-193786000D03*
D11*
X96885000Y-176383600D03*
X98155000Y-176383600D03*
X99425000Y-176383600D03*
X100695000Y-176383600D03*
D14*
X71678800Y-201132000D03*
D11*
X157035000Y-221307000D03*
X158305000Y-221307000D03*
X159575000Y-221307000D03*
X160845000Y-221307000D03*
D10*
X162998000Y-191246000D03*
X149548000Y-193786000D03*
D11*
X96885000Y-241357000D03*
X98155000Y-241357000D03*
X99425000Y-241357000D03*
X100695000Y-241357000D03*
D15*
X148919700Y-227561400D03*
X148919700Y-230861400D03*
D11*
X96885000Y-201257000D03*
X98155000Y-201257000D03*
X99425000Y-201257000D03*
X100695000Y-201257000D03*
X76835000Y-221307000D03*
X78105000Y-221307000D03*
X79375000Y-221307000D03*
X80645000Y-221307000D03*
D10*
X82798000Y-191246000D03*
X69348000Y-193786000D03*
D11*
X157035000Y-216483600D03*
X158305000Y-216483600D03*
X159575000Y-216483600D03*
X160845000Y-216483600D03*
D10*
X82798000Y-231346000D03*
X69348000Y-233886000D03*
D11*
X136985000Y-176383600D03*
X138255000Y-176383600D03*
X139525000Y-176383600D03*
X140795000Y-176383600D03*
D12*
X108420000Y-164973000D03*
X108420000Y-163703000D03*
X108420000Y-162433000D03*
X108420000Y-161163000D03*
D16*
X112988000Y-202926000D03*
X112988000Y-204426000D03*
X118088000Y-204426000D03*
X118088000Y-202926000D03*
D11*
X136985000Y-216483600D03*
X138255000Y-216483600D03*
X139525000Y-216483600D03*
X140795000Y-216483600D03*
D12*
X68320000Y-225123000D03*
X68320000Y-223853000D03*
X68320000Y-222583000D03*
X68320000Y-221313000D03*
D14*
X91728800Y-161032000D03*
D10*
X142948000Y-251396000D03*
X129498000Y-253936000D03*
D12*
X142680600Y-164973000D03*
X142680600Y-163703000D03*
X142680600Y-162433000D03*
X142680600Y-161163000D03*
D16*
X133038000Y-222976000D03*
X133038000Y-224476000D03*
X138138000Y-224476000D03*
X138138000Y-222976000D03*
D13*
X111778800Y-176508600D03*
D11*
X116935000Y-161157000D03*
X118205000Y-161157000D03*
X119475000Y-161157000D03*
X120745000Y-161157000D03*
D12*
X68320000Y-245173000D03*
X68320000Y-243903000D03*
X68320000Y-242633000D03*
X68320000Y-241363000D03*
X142680600Y-245173000D03*
X142680600Y-243903000D03*
X142680600Y-242633000D03*
X142680600Y-241363000D03*
D15*
X68719700Y-227561400D03*
X68719700Y-230861400D03*
D12*
X122630600Y-245173000D03*
X122630600Y-243903000D03*
X122630600Y-242633000D03*
X122630600Y-241363000D03*
D15*
X148919700Y-167411400D03*
X148919700Y-170711400D03*
D12*
X142680600Y-205073000D03*
X142680600Y-203803000D03*
X142680600Y-202533000D03*
X142680600Y-201263000D03*
X148520000Y-164973000D03*
X148520000Y-163703000D03*
X148520000Y-162433000D03*
X148520000Y-161163000D03*
D16*
X92938000Y-222976000D03*
X92938000Y-224476000D03*
X98038000Y-224476000D03*
X98038000Y-222976000D03*
D12*
X102580600Y-245173000D03*
X102580600Y-243903000D03*
X102580600Y-242633000D03*
X102580600Y-241363000D03*
D16*
X92938000Y-182876000D03*
X92938000Y-184376000D03*
X98038000Y-184376000D03*
X98038000Y-182876000D03*
D14*
X131828800Y-181082000D03*
D10*
X82798000Y-251396000D03*
X69348000Y-253936000D03*
D11*
X116935000Y-241357000D03*
X118205000Y-241357000D03*
X119475000Y-241357000D03*
X120745000Y-241357000D03*
D15*
X88769700Y-207511400D03*
X88769700Y-210811400D03*
X108819700Y-167411400D03*
X108819700Y-170711400D03*
D13*
X131828800Y-236658600D03*
D10*
X122898000Y-191246000D03*
X109448000Y-193786000D03*
D11*
X157035000Y-236533600D03*
X158305000Y-236533600D03*
X159575000Y-236533600D03*
X160845000Y-236533600D03*
D12*
X122630600Y-185023000D03*
X122630600Y-183753000D03*
X122630600Y-182483000D03*
X122630600Y-181213000D03*
X108420000Y-225123000D03*
X108420000Y-223853000D03*
X108420000Y-222583000D03*
X108420000Y-221313000D03*
D16*
X153088000Y-162826000D03*
X153088000Y-164326000D03*
X158188000Y-164326000D03*
X158188000Y-162826000D03*
D10*
X162998000Y-171196000D03*
X149548000Y-173736000D03*
D15*
X148919700Y-207511400D03*
X148919700Y-210811400D03*
D16*
X72888000Y-243026000D03*
X72888000Y-244526000D03*
X77988000Y-244526000D03*
X77988000Y-243026000D03*
X92938000Y-243026000D03*
X92938000Y-244526000D03*
X98038000Y-244526000D03*
X98038000Y-243026000D03*
D11*
X157035000Y-181207000D03*
X158305000Y-181207000D03*
X159575000Y-181207000D03*
X160845000Y-181207000D03*
D13*
X91728800Y-216608600D03*
D10*
X102848000Y-171196000D03*
X89398000Y-173736000D03*
D12*
X88370000Y-205073000D03*
X88370000Y-203803000D03*
X88370000Y-202533000D03*
X88370000Y-201263000D03*
D13*
X151878800Y-236658600D03*
D15*
X148919700Y-247611400D03*
X148919700Y-250911400D03*
D13*
X131828800Y-196558600D03*
D10*
X142948000Y-211296000D03*
X129498000Y-213836000D03*
D15*
X128869700Y-247611400D03*
X128869700Y-250911400D03*
D10*
X142948000Y-231346000D03*
X129498000Y-233886000D03*
D12*
X102580600Y-185023000D03*
X102580600Y-183753000D03*
X102580600Y-182483000D03*
X102580600Y-181213000D03*
X68320000Y-205073000D03*
X68320000Y-203803000D03*
X68320000Y-202533000D03*
X68320000Y-201263000D03*
D14*
X151878800Y-201132000D03*
D12*
X128470000Y-225123000D03*
X128470000Y-223853000D03*
X128470000Y-222583000D03*
X128470000Y-221313000D03*
X102580600Y-164973000D03*
X102580600Y-163703000D03*
X102580600Y-162433000D03*
X102580600Y-161163000D03*
D13*
X91728800Y-256708600D03*
D14*
X151878800Y-221182000D03*
D11*
X96885000Y-196433600D03*
X98155000Y-196433600D03*
X99425000Y-196433600D03*
X100695000Y-196433600D03*
D15*
X88769700Y-247611400D03*
X88769700Y-250911400D03*
D16*
X72888000Y-182876000D03*
X72888000Y-184376000D03*
X77988000Y-184376000D03*
X77988000Y-182876000D03*
D10*
X122898000Y-251396000D03*
X109448000Y-253936000D03*
D16*
X153088000Y-202926000D03*
X153088000Y-204426000D03*
X158188000Y-204426000D03*
X158188000Y-202926000D03*
D11*
X76835000Y-236533600D03*
X78105000Y-236533600D03*
X79375000Y-236533600D03*
X80645000Y-236533600D03*
D12*
X82530600Y-185023000D03*
X82530600Y-183753000D03*
X82530600Y-182483000D03*
X82530600Y-181213000D03*
X108420000Y-185023000D03*
X108420000Y-183753000D03*
X108420000Y-182483000D03*
X108420000Y-181213000D03*
X108420000Y-245173000D03*
X108420000Y-243903000D03*
X108420000Y-242633000D03*
X108420000Y-241363000D03*
D13*
X71678800Y-216608600D03*
D11*
X136985000Y-196433600D03*
X138255000Y-196433600D03*
X139525000Y-196433600D03*
X140795000Y-196433600D03*
D13*
X71678800Y-236658600D03*
D10*
X122898000Y-171196000D03*
X109448000Y-173736000D03*
D13*
X111778800Y-196558600D03*
D11*
X96885000Y-221307000D03*
X98155000Y-221307000D03*
X99425000Y-221307000D03*
X100695000Y-221307000D03*
D12*
X122630600Y-225123000D03*
X122630600Y-223853000D03*
X122630600Y-222583000D03*
X122630600Y-221313000D03*
X162730600Y-245173000D03*
X162730600Y-243903000D03*
X162730600Y-242633000D03*
X162730600Y-241363000D03*
D11*
X157035000Y-196433600D03*
X158305000Y-196433600D03*
X159575000Y-196433600D03*
X160845000Y-196433600D03*
D13*
X71678800Y-256708600D03*
D16*
X133038000Y-243026000D03*
X133038000Y-244526000D03*
X138138000Y-244526000D03*
X138138000Y-243026000D03*
D15*
X108819700Y-187461400D03*
X108819700Y-190761400D03*
D14*
X151878800Y-181082000D03*
D11*
X136985000Y-161157000D03*
X138255000Y-161157000D03*
X139525000Y-161157000D03*
X140795000Y-161157000D03*
D15*
X108819700Y-227561400D03*
X108819700Y-230861400D03*
D13*
X71678800Y-196558600D03*
D12*
X128470000Y-245173000D03*
X128470000Y-243903000D03*
X128470000Y-242633000D03*
X128470000Y-241363000D03*
X102580600Y-205073000D03*
X102580600Y-203803000D03*
X102580600Y-202533000D03*
X102580600Y-201263000D03*
X82530600Y-205073000D03*
X82530600Y-203803000D03*
X82530600Y-202533000D03*
X82530600Y-201263000D03*
D11*
X157035000Y-176383600D03*
X158305000Y-176383600D03*
X159575000Y-176383600D03*
X160845000Y-176383600D03*
D16*
X72888000Y-222976000D03*
X72888000Y-224476000D03*
X77988000Y-224476000D03*
X77988000Y-222976000D03*
D11*
X157035000Y-201257000D03*
X158305000Y-201257000D03*
X159575000Y-201257000D03*
X160845000Y-201257000D03*
D12*
X162730600Y-205073000D03*
X162730600Y-203803000D03*
X162730600Y-202533000D03*
X162730600Y-201263000D03*
D11*
X136985000Y-221307000D03*
X138255000Y-221307000D03*
X139525000Y-221307000D03*
X140795000Y-221307000D03*
D12*
X108420000Y-205073000D03*
X108420000Y-203803000D03*
X108420000Y-202533000D03*
X108420000Y-201263000D03*
X88370000Y-164973000D03*
X88370000Y-163703000D03*
X88370000Y-162433000D03*
X88370000Y-161163000D03*
X128470000Y-164973000D03*
X128470000Y-163703000D03*
X128470000Y-162433000D03*
X128470000Y-161163000D03*
D13*
X151878800Y-216608600D03*
D16*
X153088000Y-222976000D03*
X153088000Y-224476000D03*
X158188000Y-224476000D03*
X158188000Y-222976000D03*
D11*
X136985000Y-181207000D03*
X138255000Y-181207000D03*
X139525000Y-181207000D03*
X140795000Y-181207000D03*
D12*
X82530600Y-225123000D03*
X82530600Y-223853000D03*
X82530600Y-222583000D03*
X82530600Y-221313000D03*
D16*
X112988000Y-243026000D03*
X112988000Y-244526000D03*
X118088000Y-244526000D03*
X118088000Y-243026000D03*
D10*
X162998000Y-251396000D03*
X149548000Y-253936000D03*
D12*
X148520000Y-185023000D03*
X148520000Y-183753000D03*
X148520000Y-182483000D03*
X148520000Y-181213000D03*
D13*
X131828800Y-176508600D03*
X91728800Y-196558600D03*
D12*
X88370000Y-225123000D03*
X88370000Y-223853000D03*
X88370000Y-222583000D03*
X88370000Y-221313000D03*
D16*
X153088000Y-182876000D03*
X153088000Y-184376000D03*
X158188000Y-184376000D03*
X158188000Y-182876000D03*
D15*
X68719700Y-207511400D03*
X68719700Y-210811400D03*
X148919700Y-187461400D03*
X148919700Y-190761400D03*
D11*
X136985000Y-201257000D03*
X138255000Y-201257000D03*
X139525000Y-201257000D03*
X140795000Y-201257000D03*
D10*
X142948000Y-171196000D03*
X129498000Y-173736000D03*
X122898000Y-211296000D03*
X109448000Y-213836000D03*
D14*
X131828800Y-241232000D03*
D11*
X116935000Y-256583600D03*
X118205000Y-256583600D03*
X119475000Y-256583600D03*
X120745000Y-256583600D03*
X157035000Y-256583600D03*
X158305000Y-256583600D03*
X159575000Y-256583600D03*
X160845000Y-256583600D03*
X136985000Y-241357000D03*
X138255000Y-241357000D03*
X139525000Y-241357000D03*
X140795000Y-241357000D03*
D15*
X128869700Y-207511400D03*
X128869700Y-210811400D03*
D11*
X76835000Y-196433600D03*
X78105000Y-196433600D03*
X79375000Y-196433600D03*
X80645000Y-196433600D03*
D15*
X68719700Y-247611400D03*
X68719700Y-250911400D03*
D14*
X151878800Y-241232000D03*
D11*
X116935000Y-216483600D03*
X118205000Y-216483600D03*
X119475000Y-216483600D03*
X120745000Y-216483600D03*
D12*
X142680600Y-185023000D03*
X142680600Y-183753000D03*
X142680600Y-182483000D03*
X142680600Y-181213000D03*
D14*
X91728800Y-181082000D03*
D16*
X72888000Y-202926000D03*
X72888000Y-204426000D03*
X77988000Y-204426000D03*
X77988000Y-202926000D03*
D10*
X102848000Y-191246000D03*
X89398000Y-193786000D03*
D11*
X96885000Y-216483600D03*
X98155000Y-216483600D03*
X99425000Y-216483600D03*
X100695000Y-216483600D03*
X76835000Y-241357000D03*
X78105000Y-241357000D03*
X79375000Y-241357000D03*
X80645000Y-241357000D03*
X136985000Y-256583600D03*
X138255000Y-256583600D03*
X139525000Y-256583600D03*
X140795000Y-256583600D03*
D14*
X111778800Y-181082000D03*
D16*
X92938000Y-162826000D03*
X92938000Y-164326000D03*
X98038000Y-164326000D03*
X98038000Y-162826000D03*
D15*
X108819700Y-247611400D03*
X108819700Y-250911400D03*
D10*
X162998000Y-231346000D03*
X149548000Y-233886000D03*
D14*
X91728800Y-221182000D03*
D13*
X131828800Y-256708600D03*
D12*
X122630600Y-205073000D03*
X122630600Y-203803000D03*
X122630600Y-202533000D03*
X122630600Y-201263000D03*
D16*
X153088000Y-243026000D03*
X153088000Y-244526000D03*
X158188000Y-244526000D03*
X158188000Y-243026000D03*
D14*
X91728800Y-201132000D03*
X111778800Y-221182000D03*
X131828800Y-161032000D03*
D13*
X91728800Y-176508600D03*
D11*
X96885000Y-161157000D03*
X98155000Y-161157000D03*
X99425000Y-161157000D03*
X100695000Y-161157000D03*
X116935000Y-181207000D03*
X118205000Y-181207000D03*
X119475000Y-181207000D03*
X120745000Y-181207000D03*
D13*
X111778800Y-236658600D03*
D12*
X88370000Y-245173000D03*
X88370000Y-243903000D03*
X88370000Y-242633000D03*
X88370000Y-241363000D03*
D11*
X76835000Y-201257000D03*
X78105000Y-201257000D03*
X79375000Y-201257000D03*
X80645000Y-201257000D03*
X157035000Y-241357000D03*
X158305000Y-241357000D03*
X159575000Y-241357000D03*
X160845000Y-241357000D03*
D10*
X102848000Y-231346000D03*
X89398000Y-233886000D03*
D14*
X71678800Y-241232000D03*
D16*
X133038000Y-182876000D03*
X133038000Y-184376000D03*
X138138000Y-184376000D03*
X138138000Y-182876000D03*
D13*
X111778800Y-256708600D03*
D15*
X68719700Y-187461400D03*
X68719700Y-190761400D03*
D12*
X142680600Y-225123000D03*
X142680600Y-223853000D03*
X142680600Y-222583000D03*
X142680600Y-221313000D03*
D11*
X116935000Y-221307000D03*
X118205000Y-221307000D03*
X119475000Y-221307000D03*
X120745000Y-221307000D03*
D15*
X88769700Y-187461400D03*
X88769700Y-190761400D03*
X108819700Y-207511400D03*
X108819700Y-210811400D03*
D11*
X76835000Y-216483600D03*
X78105000Y-216483600D03*
X79375000Y-216483600D03*
X80645000Y-216483600D03*
D16*
X112988000Y-182876000D03*
X112988000Y-184376000D03*
X118088000Y-184376000D03*
X118088000Y-182876000D03*
X133038000Y-202926000D03*
X133038000Y-204426000D03*
X138138000Y-204426000D03*
X138138000Y-202926000D03*
D11*
X116935000Y-196433600D03*
X118205000Y-196433600D03*
X119475000Y-196433600D03*
X120745000Y-196433600D03*
D10*
X82798000Y-211296000D03*
X69348000Y-213836000D03*
D11*
X136985000Y-236533600D03*
X138255000Y-236533600D03*
X139525000Y-236533600D03*
X140795000Y-236533600D03*
D16*
X112988000Y-162826000D03*
X112988000Y-164326000D03*
X118088000Y-164326000D03*
X118088000Y-162826000D03*
D12*
X128470000Y-205073000D03*
X128470000Y-203803000D03*
X128470000Y-202533000D03*
X128470000Y-201263000D03*
X162730600Y-185023000D03*
X162730600Y-183753000D03*
X162730600Y-182483000D03*
X162730600Y-181213000D03*
D11*
X116935000Y-176383600D03*
X118205000Y-176383600D03*
X119475000Y-176383600D03*
X120745000Y-176383600D03*
X96885000Y-256583600D03*
X98155000Y-256583600D03*
X99425000Y-256583600D03*
X100695000Y-256583600D03*
M02*
