M48
; DRILL file {KiCad (6.0.4-0)} date Tuesday, May 03, 2022 at 01:05:22 PM
; FORMAT={-:-/ absolute / metric / decimal}
; #@! TF.CreationDate,2022-05-03T13:05:22-07:00
; #@! TF.GenerationSoftware,Kicad,Pcbnew,(6.0.4-0)
; #@! TF.FileFunction,NonPlated,1,2,NPTH
FMAT,2
METRIC
; #@! TA.AperFunction,NonPlated,NPTH,ComponentDrill
T1C1.660
; #@! TA.AperFunction,NonPlated,NPTH,ComponentDrill
T2C1.700
; #@! TA.AperFunction,NonPlated,NPTH,ComponentDrill
T3C3.000
; #@! TA.AperFunction,NonPlated,NPTH,ComponentDrill
T4C3.980
%
G90
G05
T1
X80.518Y-168.656
X80.518Y-188.706
X80.518Y-208.756
X80.518Y-228.806
X80.518Y-248.856
X100.568Y-168.656
X100.568Y-188.706
X100.568Y-208.756
X100.568Y-228.806
X100.568Y-248.856
X120.618Y-168.656
X120.618Y-188.706
X120.618Y-208.756
X120.618Y-228.806
X120.618Y-248.856
X140.668Y-168.656
X140.668Y-188.706
X140.668Y-208.756
X140.668Y-228.806
X140.668Y-248.856
X160.718Y-168.656
X160.718Y-188.706
X160.718Y-208.756
X160.718Y-228.806
X160.718Y-248.856
T2
X70.358Y-168.656
X70.358Y-188.706
X70.358Y-208.756
X70.358Y-228.806
X70.358Y-248.856
X90.408Y-168.656
X90.408Y-188.706
X90.408Y-208.756
X90.408Y-228.806
X90.408Y-248.856
X110.458Y-168.656
X110.458Y-188.706
X110.458Y-208.756
X110.458Y-228.806
X110.458Y-248.856
X130.508Y-168.656
X130.508Y-188.706
X130.508Y-208.756
X130.508Y-228.806
X130.508Y-248.856
X150.558Y-168.656
X150.558Y-188.706
X150.558Y-208.756
X150.558Y-228.806
X150.558Y-248.856
T3
X72.898Y-173.736
X72.898Y-193.786
X72.898Y-213.836
X72.898Y-233.886
X72.898Y-253.936
X79.248Y-171.196
X79.248Y-191.246
X79.248Y-211.296
X79.248Y-231.346
X79.248Y-251.396
X92.948Y-173.736
X92.948Y-193.786
X92.948Y-213.836
X92.948Y-233.886
X92.948Y-253.936
X99.298Y-171.196
X99.298Y-191.246
X99.298Y-211.296
X99.298Y-231.346
X99.298Y-251.396
X112.998Y-173.736
X112.998Y-193.786
X112.998Y-213.836
X112.998Y-233.886
X112.998Y-253.936
X119.348Y-171.196
X119.348Y-191.246
X119.348Y-211.296
X119.348Y-231.346
X119.348Y-251.396
X133.048Y-173.736
X133.048Y-193.786
X133.048Y-213.836
X133.048Y-233.886
X133.048Y-253.936
X139.398Y-171.196
X139.398Y-191.246
X139.398Y-211.296
X139.398Y-231.346
X139.398Y-251.396
X153.098Y-173.736
X153.098Y-193.786
X153.098Y-213.836
X153.098Y-233.886
X153.098Y-253.936
X159.448Y-171.196
X159.448Y-191.246
X159.448Y-211.296
X159.448Y-231.346
X159.448Y-251.396
T4
X75.438Y-168.656
X75.438Y-188.706
X75.438Y-208.756
X75.438Y-228.806
X75.438Y-248.856
X95.488Y-168.656
X95.488Y-188.706
X95.488Y-208.756
X95.488Y-228.806
X95.488Y-248.856
X115.538Y-168.656
X115.538Y-188.706
X115.538Y-208.756
X115.538Y-228.806
X115.538Y-248.856
X135.588Y-168.656
X135.588Y-188.706
X135.588Y-208.756
X135.588Y-228.806
X135.588Y-248.856
X155.638Y-168.656
X155.638Y-188.706
X155.638Y-208.756
X155.638Y-228.806
X155.638Y-248.856
T0
M30
