G04 #@! TF.GenerationSoftware,KiCad,Pcbnew,(6.0.4-0)*
G04 #@! TF.CreationDate,2022-05-03T13:04:24-07:00*
G04 #@! TF.ProjectId,amoeba-king,616d6f65-6261-42d6-9b69-6e672e6b6963,rev?*
G04 #@! TF.SameCoordinates,Original*
G04 #@! TF.FileFunction,Profile,NP*
%FSLAX46Y46*%
G04 Gerber Fmt 4.6, Leading zero omitted, Abs format (unit mm)*
G04 Created by KiCad (PCBNEW (6.0.4-0)) date 2022-05-03 13:04:24*
%MOMM*%
%LPD*%
G01*
G04 APERTURE LIST*
G04 #@! TA.AperFunction,Profile*
%ADD10C,0.100000*%
G04 #@! TD*
G04 APERTURE END LIST*
D10*
X155885000Y-238331000D02*
X155885000Y-239331000D01*
X135835000Y-238331000D02*
X135835000Y-239331000D01*
X115785000Y-238331000D02*
X115785000Y-239331000D01*
X95735000Y-238331000D02*
X95735000Y-239331000D01*
X75685000Y-238331000D02*
X75685000Y-239331000D01*
X155885000Y-218281000D02*
X155885000Y-219281000D01*
X135835000Y-218281000D02*
X135835000Y-219281000D01*
X115785000Y-218281000D02*
X115785000Y-219281000D01*
X95735000Y-218281000D02*
X95735000Y-219281000D01*
X75685000Y-218281000D02*
X75685000Y-219281000D01*
X155885000Y-198231000D02*
X155885000Y-199231000D01*
X135835000Y-198231000D02*
X135835000Y-199231000D01*
X115785000Y-198231000D02*
X115785000Y-199231000D01*
X95735000Y-198231000D02*
X95735000Y-199231000D01*
X75685000Y-198231000D02*
X75685000Y-199231000D01*
X155885000Y-178181000D02*
X155885000Y-179181000D01*
X135835000Y-178181000D02*
X135835000Y-179181000D01*
X115785000Y-178181000D02*
X115785000Y-179181000D01*
X95735000Y-178181000D02*
X95735000Y-179181000D01*
X75685000Y-178181000D02*
X75685000Y-179181000D01*
X153345000Y-238331000D02*
X153345000Y-239331000D01*
X133295000Y-238331000D02*
X133295000Y-239331000D01*
X113245000Y-238331000D02*
X113245000Y-239331000D01*
X93195000Y-238331000D02*
X93195000Y-239331000D01*
X73145000Y-238331000D02*
X73145000Y-239331000D01*
X153345000Y-218281000D02*
X153345000Y-219281000D01*
X133295000Y-218281000D02*
X133295000Y-219281000D01*
X113245000Y-218281000D02*
X113245000Y-219281000D01*
X93195000Y-218281000D02*
X93195000Y-219281000D01*
X73145000Y-218281000D02*
X73145000Y-219281000D01*
X153345000Y-198231000D02*
X153345000Y-199231000D01*
X133295000Y-198231000D02*
X133295000Y-199231000D01*
X113245000Y-198231000D02*
X113245000Y-199231000D01*
X93195000Y-198231000D02*
X93195000Y-199231000D01*
X73145000Y-198231000D02*
X73145000Y-199231000D01*
X153345000Y-178181000D02*
X153345000Y-179181000D01*
X133295000Y-178181000D02*
X133295000Y-179181000D01*
X113245000Y-178181000D02*
X113245000Y-179181000D01*
X93195000Y-178181000D02*
X93195000Y-179181000D01*
X73145000Y-178181000D02*
X73145000Y-179181000D01*
X145113000Y-250126000D02*
X146113000Y-250126000D01*
X145113000Y-247586000D02*
X146113000Y-247586000D01*
X125063000Y-250126000D02*
X126063000Y-250126000D01*
X125063000Y-247586000D02*
X126063000Y-247586000D01*
X105013000Y-250126000D02*
X106013000Y-250126000D01*
X105013000Y-247586000D02*
X106013000Y-247586000D01*
X84963000Y-250126000D02*
X85963000Y-250126000D01*
X84963000Y-247586000D02*
X85963000Y-247586000D01*
X145113000Y-230076000D02*
X146113000Y-230076000D01*
X145113000Y-227536000D02*
X146113000Y-227536000D01*
X125063000Y-230076000D02*
X126063000Y-230076000D01*
X125063000Y-227536000D02*
X126063000Y-227536000D01*
X105013000Y-230076000D02*
X106013000Y-230076000D01*
X105013000Y-227536000D02*
X106013000Y-227536000D01*
X84963000Y-230076000D02*
X85963000Y-230076000D01*
X84963000Y-227536000D02*
X85963000Y-227536000D01*
X145113000Y-210026000D02*
X146113000Y-210026000D01*
X145113000Y-207486000D02*
X146113000Y-207486000D01*
X125063000Y-210026000D02*
X126063000Y-210026000D01*
X125063000Y-207486000D02*
X126063000Y-207486000D01*
X105013000Y-210026000D02*
X106013000Y-210026000D01*
X105013000Y-207486000D02*
X106013000Y-207486000D01*
X84963000Y-210026000D02*
X85963000Y-210026000D01*
X84963000Y-207486000D02*
X85963000Y-207486000D01*
X145113000Y-189976000D02*
X146113000Y-189976000D01*
X145113000Y-187436000D02*
X146113000Y-187436000D01*
X125063000Y-189976000D02*
X126063000Y-189976000D01*
X125063000Y-187436000D02*
X126063000Y-187436000D01*
X105013000Y-189976000D02*
X106013000Y-189976000D01*
X105013000Y-187436000D02*
X106013000Y-187436000D01*
X84963000Y-189976000D02*
X85963000Y-189976000D01*
X84963000Y-187436000D02*
X85963000Y-187436000D01*
X145113000Y-169926000D02*
X146113000Y-169926000D01*
X145113000Y-167386000D02*
X146113000Y-167386000D01*
X125063000Y-169926000D02*
X126063000Y-169926000D01*
X125063000Y-167386000D02*
X126063000Y-167386000D01*
X105013000Y-169926000D02*
X106013000Y-169926000D01*
X105013000Y-167386000D02*
X106013000Y-167386000D01*
X84963000Y-169926000D02*
X85963000Y-169926000D01*
X84963000Y-167386000D02*
X85963000Y-167386000D01*
X83058000Y-176911000D02*
X81788000Y-176911000D01*
X73687000Y-162065500D02*
X73687000Y-165086500D01*
X73687000Y-165086500D02*
X77189000Y-165086500D01*
X77189000Y-165086500D02*
X77189000Y-162065500D01*
X77189000Y-162065500D02*
X73687000Y-162065500D01*
X81788000Y-160401000D02*
X83058000Y-160401000D01*
X83693000Y-161036000D02*
X83693000Y-163576000D01*
X67818000Y-160401000D02*
X69088000Y-160401000D01*
X67183000Y-161036000D02*
X67183000Y-163576000D01*
X67183000Y-173736000D02*
X67183000Y-176276000D01*
X67818000Y-176911000D02*
X69088000Y-176911000D01*
X83693000Y-176276000D02*
X83693000Y-173736000D01*
X73145000Y-159131000D02*
G75*
G03*
X75685000Y-159131000I1270000J0D01*
G01*
X75685000Y-178181000D02*
G75*
G03*
X73145000Y-178181000I-1270000J0D01*
G01*
X86598000Y-164211000D02*
G75*
G03*
X87233000Y-163576000I0J635000D01*
G01*
X69723000Y-217646000D02*
G75*
G03*
X70358000Y-218281000I635000J0D01*
G01*
X143208000Y-217011000D02*
X141938000Y-217011000D01*
X109823000Y-177546000D02*
G75*
G03*
X110458000Y-178181000I635000J0D01*
G01*
X87233000Y-193786000D02*
X87233000Y-196326000D01*
X145113000Y-204946000D02*
X146113000Y-204946000D01*
X70358000Y-159131000D02*
X71475000Y-159131000D01*
X69088000Y-200501000D02*
G75*
G03*
X69723000Y-199866000I0J635000D01*
G01*
X165163000Y-245046000D02*
G75*
G03*
X164528000Y-244411000I-635000J0D01*
G01*
X84328000Y-213201000D02*
G75*
G03*
X83693000Y-213836000I0J-635000D01*
G01*
X107283000Y-213836000D02*
G75*
G03*
X106648000Y-213201000I-635000J0D01*
G01*
X106013000Y-212566000D02*
G75*
G03*
X106648000Y-213201000I635000J0D01*
G01*
X148018000Y-180451000D02*
X149288000Y-180451000D01*
X129873000Y-257746000D02*
G75*
G03*
X130508000Y-258381000I635000J0D01*
G01*
X89138000Y-200501000D02*
G75*
G03*
X89773000Y-199866000I0J635000D01*
G01*
X93195000Y-159131000D02*
G75*
G03*
X95735000Y-159131000I1270000J0D01*
G01*
X141303000Y-179816000D02*
G75*
G03*
X140668000Y-179181000I-635000J0D01*
G01*
X127968000Y-180451000D02*
X129238000Y-180451000D01*
X67183000Y-193786000D02*
G75*
G03*
X66548000Y-193151000I-635000J0D01*
G01*
X144478000Y-173101000D02*
G75*
G03*
X145113000Y-172466000I0J635000D01*
G01*
X150558000Y-258381000D02*
X151675000Y-258381000D01*
X81788000Y-200501000D02*
X83058000Y-200501000D01*
X115785000Y-198231000D02*
G75*
G03*
X113245000Y-198231000I-1270000J0D01*
G01*
X93737000Y-222215500D02*
X93737000Y-225236500D01*
X105013000Y-184896000D02*
G75*
G03*
X104378000Y-184261000I-635000J0D01*
G01*
X146113000Y-212566000D02*
G75*
G03*
X146748000Y-213201000I635000J0D01*
G01*
X107918000Y-180451000D02*
X109188000Y-180451000D01*
X93737000Y-182115500D02*
X93737000Y-185136500D01*
X84328000Y-173101000D02*
G75*
G03*
X84963000Y-172466000I0J635000D01*
G01*
X69723000Y-177546000D02*
G75*
G03*
X70358000Y-178181000I635000J0D01*
G01*
X133837000Y-245286500D02*
X137339000Y-245286500D01*
X80518000Y-238331000D02*
G75*
G03*
X81153000Y-237696000I0J635000D01*
G01*
X103108000Y-257111000D02*
X101838000Y-257111000D01*
X103743000Y-236426000D02*
X103743000Y-233886000D01*
X109823000Y-237696000D02*
G75*
G03*
X109188000Y-237061000I-635000J0D01*
G01*
X100568000Y-198231000D02*
G75*
G03*
X101203000Y-197596000I0J635000D01*
G01*
X149923000Y-197596000D02*
G75*
G03*
X150558000Y-198231000I635000J0D01*
G01*
X163893000Y-221186000D02*
X163893000Y-223726000D01*
X106648000Y-204311000D02*
G75*
G03*
X106013000Y-204946000I0J-635000D01*
G01*
X145113000Y-164846000D02*
G75*
G03*
X144478000Y-164211000I-635000J0D01*
G01*
X109188000Y-180451000D02*
G75*
G03*
X109823000Y-179816000I0J635000D01*
G01*
X95735000Y-159131000D02*
X99625000Y-159131000D01*
X125063000Y-245046000D02*
X126063000Y-245046000D01*
X65913000Y-207486000D02*
X65913000Y-206075000D01*
X104378000Y-213201000D02*
G75*
G03*
X103743000Y-213836000I0J-635000D01*
G01*
X115785000Y-159131000D02*
X119675000Y-159131000D01*
X113787000Y-205186500D02*
X117289000Y-205186500D01*
X103743000Y-241236000D02*
G75*
G03*
X103108000Y-240601000I-635000J0D01*
G01*
X125063000Y-172466000D02*
X126063000Y-172466000D01*
X104378000Y-173101000D02*
G75*
G03*
X103743000Y-173736000I0J-635000D01*
G01*
X67183000Y-213836000D02*
X67183000Y-216376000D01*
X145113000Y-247586000D02*
G75*
G03*
X145113000Y-250126000I0J-1270000D01*
G01*
X100568000Y-218281000D02*
X100568000Y-219281000D01*
X109823000Y-177546000D02*
G75*
G03*
X109188000Y-176911000I-635000J0D01*
G01*
X165163000Y-224996000D02*
X165175000Y-226125000D01*
X123793000Y-201136000D02*
G75*
G03*
X123158000Y-200501000I-635000J0D01*
G01*
X107283000Y-233886000D02*
G75*
G03*
X106648000Y-233251000I-635000J0D01*
G01*
X65913000Y-187436000D02*
X65913000Y-186025000D01*
X106013000Y-210026000D02*
G75*
G03*
X106013000Y-207486000I0J1270000D01*
G01*
X87233000Y-256476000D02*
G75*
G03*
X87868000Y-257111000I635000J0D01*
G01*
X140668000Y-198231000D02*
G75*
G03*
X141303000Y-197596000I0J635000D01*
G01*
X103108000Y-217011000D02*
X101838000Y-217011000D01*
X105013000Y-164846000D02*
X106013000Y-164846000D01*
X126698000Y-224361000D02*
G75*
G03*
X127333000Y-223726000I0J635000D01*
G01*
X137339000Y-245286500D02*
X137339000Y-242265500D01*
X106648000Y-184261000D02*
G75*
G03*
X106013000Y-184896000I0J-635000D01*
G01*
X84963000Y-204946000D02*
G75*
G03*
X84328000Y-204311000I-635000J0D01*
G01*
X153887000Y-205186500D02*
X157389000Y-205186500D01*
X121888000Y-196961000D02*
G75*
G03*
X121253000Y-197596000I0J-635000D01*
G01*
X163893000Y-256476000D02*
X163893000Y-253936000D01*
X161353000Y-239966000D02*
G75*
G03*
X161988000Y-240601000I635000J0D01*
G01*
X148018000Y-176911000D02*
X149288000Y-176911000D01*
X165163000Y-250126000D02*
X165175000Y-251575000D01*
X123793000Y-181086000D02*
G75*
G03*
X123158000Y-180451000I-635000J0D01*
G01*
X143208000Y-237061000D02*
G75*
G03*
X143843000Y-236426000I0J635000D01*
G01*
X84963000Y-167386000D02*
G75*
G03*
X84963000Y-169926000I0J-1270000D01*
G01*
X83693000Y-201136000D02*
X83693000Y-203676000D01*
X89773000Y-197596000D02*
G75*
G03*
X90408000Y-198231000I635000J0D01*
G01*
X165163000Y-167386000D02*
G75*
G03*
X165163000Y-169926000I0J-1270000D01*
G01*
X153887000Y-165086500D02*
X157389000Y-165086500D01*
X84963000Y-224996000D02*
G75*
G03*
X84328000Y-224361000I-635000J0D01*
G01*
X130508000Y-179181000D02*
G75*
G03*
X129873000Y-179816000I0J-635000D01*
G01*
X127968000Y-220551000D02*
G75*
G03*
X127333000Y-221186000I0J-635000D01*
G01*
X113787000Y-162065500D02*
X113787000Y-165086500D01*
X157389000Y-242265500D02*
X153887000Y-242265500D01*
X109188000Y-200501000D02*
G75*
G03*
X109823000Y-199866000I0J635000D01*
G01*
X130508000Y-258381000D02*
X131625000Y-258381000D01*
X123793000Y-161036000D02*
X123793000Y-163576000D01*
X84963000Y-212566000D02*
X85963000Y-212566000D01*
X65913000Y-206075000D02*
X65913000Y-204946000D01*
X163258000Y-176911000D02*
G75*
G03*
X163893000Y-176276000I0J635000D01*
G01*
X160718000Y-218281000D02*
G75*
G03*
X161353000Y-217646000I0J635000D01*
G01*
X86598000Y-204311000D02*
G75*
G03*
X87233000Y-203676000I0J635000D01*
G01*
X141938000Y-176911000D02*
G75*
G03*
X141303000Y-177546000I0J-635000D01*
G01*
X164528000Y-173101000D02*
G75*
G03*
X165163000Y-172466000I0J635000D01*
G01*
X121888000Y-176911000D02*
G75*
G03*
X121253000Y-177546000I0J-635000D01*
G01*
X69723000Y-257746000D02*
G75*
G03*
X70358000Y-258381000I635000J0D01*
G01*
X133837000Y-182115500D02*
X133837000Y-185136500D01*
X107283000Y-196326000D02*
G75*
G03*
X107918000Y-196961000I635000J0D01*
G01*
X157389000Y-182115500D02*
X153887000Y-182115500D01*
X123793000Y-223726000D02*
G75*
G03*
X124428000Y-224361000I635000J0D01*
G01*
X129873000Y-217646000D02*
G75*
G03*
X129238000Y-217011000I-635000J0D01*
G01*
X81788000Y-240601000D02*
X83058000Y-240601000D01*
X109188000Y-220551000D02*
G75*
G03*
X109823000Y-219916000I0J635000D01*
G01*
X149923000Y-237696000D02*
G75*
G03*
X149288000Y-237061000I-635000J0D01*
G01*
X65913000Y-226125000D02*
X65913000Y-224996000D01*
X130508000Y-219281000D02*
G75*
G03*
X129873000Y-219916000I0J-635000D01*
G01*
X127333000Y-213836000D02*
G75*
G03*
X126698000Y-213201000I-635000J0D01*
G01*
X163893000Y-181086000D02*
G75*
G03*
X163258000Y-180451000I-635000J0D01*
G01*
X147383000Y-213836000D02*
X147383000Y-216376000D01*
X84328000Y-193151000D02*
G75*
G03*
X84963000Y-192516000I0J635000D01*
G01*
X100568000Y-178181000D02*
G75*
G03*
X101203000Y-177546000I0J635000D01*
G01*
X163258000Y-196961000D02*
X161988000Y-196961000D01*
X124428000Y-193151000D02*
G75*
G03*
X123793000Y-193786000I0J-635000D01*
G01*
X80518000Y-159131000D02*
X79575000Y-159131000D01*
X143843000Y-201136000D02*
G75*
G03*
X143208000Y-200501000I-635000J0D01*
G01*
X83693000Y-256476000D02*
X83693000Y-253936000D01*
X145113000Y-245046000D02*
X146113000Y-245046000D01*
X153887000Y-202165500D02*
X153887000Y-205186500D01*
X69723000Y-237696000D02*
G75*
G03*
X70358000Y-238331000I635000J0D01*
G01*
X148018000Y-220551000D02*
X149288000Y-220551000D01*
X140668000Y-258381000D02*
X139725000Y-258375000D01*
X126698000Y-204311000D02*
G75*
G03*
X127333000Y-203676000I0J635000D01*
G01*
X65913000Y-232616000D02*
G75*
G03*
X66548000Y-233251000I635000J0D01*
G01*
X110458000Y-179181000D02*
G75*
G03*
X109823000Y-179816000I0J-635000D01*
G01*
X65913000Y-210026000D02*
G75*
G03*
X65913000Y-207486000I0J1270000D01*
G01*
X141938000Y-200501000D02*
X143208000Y-200501000D01*
X95735000Y-218281000D02*
G75*
G03*
X93195000Y-218281000I-1270000J0D01*
G01*
X161353000Y-179816000D02*
G75*
G03*
X160718000Y-179181000I-635000J0D01*
G01*
X157389000Y-205186500D02*
X157389000Y-202165500D01*
X143208000Y-196961000D02*
X141938000Y-196961000D01*
X153887000Y-182115500D02*
X153887000Y-185136500D01*
X123793000Y-243776000D02*
G75*
G03*
X124428000Y-244411000I635000J0D01*
G01*
X146748000Y-244411000D02*
G75*
G03*
X146113000Y-245046000I0J-635000D01*
G01*
X101203000Y-239966000D02*
G75*
G03*
X101838000Y-240601000I635000J0D01*
G01*
X67183000Y-193786000D02*
X67183000Y-196326000D01*
X126063000Y-232616000D02*
G75*
G03*
X126698000Y-233251000I635000J0D01*
G01*
X86598000Y-164211000D02*
G75*
G03*
X85963000Y-164846000I0J-635000D01*
G01*
X103108000Y-176911000D02*
G75*
G03*
X103743000Y-176276000I0J635000D01*
G01*
X90408000Y-218281000D02*
X90408000Y-219281000D01*
X67818000Y-220551000D02*
G75*
G03*
X67183000Y-221186000I0J-635000D01*
G01*
X73145000Y-239331000D02*
G75*
G03*
X75685000Y-239331000I1270000J0D01*
G01*
X77189000Y-185136500D02*
X77189000Y-182115500D01*
X91525000Y-159131000D02*
X93195000Y-159131000D01*
X107283000Y-193786000D02*
X107283000Y-196326000D01*
X106648000Y-164211000D02*
G75*
G03*
X107283000Y-163576000I0J635000D01*
G01*
X107918000Y-217011000D02*
X109188000Y-217011000D01*
X73145000Y-219281000D02*
G75*
G03*
X75685000Y-219281000I1270000J0D01*
G01*
X144478000Y-193151000D02*
G75*
G03*
X145113000Y-192516000I0J635000D01*
G01*
X87868000Y-240601000D02*
G75*
G03*
X87233000Y-241236000I0J-635000D01*
G01*
X77189000Y-225236500D02*
X77189000Y-222215500D01*
X86598000Y-244411000D02*
G75*
G03*
X85963000Y-245046000I0J-635000D01*
G01*
X65913000Y-247586000D02*
X65913000Y-246175000D01*
X93737000Y-162065500D02*
X93737000Y-165086500D01*
X123793000Y-221186000D02*
G75*
G03*
X123158000Y-220551000I-635000J0D01*
G01*
X101203000Y-239966000D02*
G75*
G03*
X100568000Y-239331000I-635000J0D01*
G01*
X124428000Y-233251000D02*
G75*
G03*
X123793000Y-233886000I0J-635000D01*
G01*
X145113000Y-224996000D02*
X146113000Y-224996000D01*
X127333000Y-253936000D02*
X127333000Y-256476000D01*
X95735000Y-178181000D02*
G75*
G03*
X93195000Y-178181000I-1270000J0D01*
G01*
X150558000Y-159131000D02*
G75*
G03*
X149923000Y-159766000I0J-635000D01*
G01*
X87233000Y-193786000D02*
G75*
G03*
X86598000Y-193151000I-635000J0D01*
G01*
X65913000Y-252666000D02*
G75*
G03*
X66548000Y-253301000I635000J0D01*
G01*
X141938000Y-217011000D02*
G75*
G03*
X141303000Y-217646000I0J-635000D01*
G01*
X103743000Y-161036000D02*
G75*
G03*
X103108000Y-160401000I-635000J0D01*
G01*
X97239000Y-165086500D02*
X97239000Y-162065500D01*
X153345000Y-199231000D02*
G75*
G03*
X155885000Y-199231000I1270000J0D01*
G01*
X155885000Y-258381000D02*
G75*
G03*
X153345000Y-258381000I-1270000J0D01*
G01*
X130508000Y-159131000D02*
X131625000Y-159131000D01*
X127333000Y-241236000D02*
X127333000Y-243776000D01*
X121253000Y-179816000D02*
G75*
G03*
X121888000Y-180451000I635000J0D01*
G01*
X127968000Y-160401000D02*
X129238000Y-160401000D01*
X141938000Y-240601000D02*
X143208000Y-240601000D01*
X126698000Y-164211000D02*
G75*
G03*
X126063000Y-164846000I0J-635000D01*
G01*
X80518000Y-178181000D02*
G75*
G03*
X81153000Y-177546000I0J635000D01*
G01*
X110458000Y-198231000D02*
X110458000Y-199231000D01*
X84328000Y-253301000D02*
G75*
G03*
X83693000Y-253936000I0J-635000D01*
G01*
X80518000Y-198231000D02*
X80518000Y-199231000D01*
X105013000Y-164846000D02*
G75*
G03*
X104378000Y-164211000I-635000J0D01*
G01*
X125063000Y-167386000D02*
G75*
G03*
X125063000Y-169926000I0J-1270000D01*
G01*
X89773000Y-217646000D02*
G75*
G03*
X90408000Y-218281000I635000J0D01*
G01*
X120618000Y-178181000D02*
G75*
G03*
X121253000Y-177546000I0J635000D01*
G01*
X133295000Y-219281000D02*
G75*
G03*
X135835000Y-219281000I1270000J0D01*
G01*
X106648000Y-204311000D02*
G75*
G03*
X107283000Y-203676000I0J635000D01*
G01*
X165163000Y-245046000D02*
X165175000Y-246175000D01*
X127333000Y-176276000D02*
G75*
G03*
X127968000Y-176911000I635000J0D01*
G01*
X105013000Y-187436000D02*
G75*
G03*
X105013000Y-189976000I0J-1270000D01*
G01*
X77189000Y-242265500D02*
X73687000Y-242265500D01*
X148018000Y-160401000D02*
X149288000Y-160401000D01*
X165163000Y-204946000D02*
X165175000Y-206075000D01*
X85963000Y-230076000D02*
G75*
G03*
X85963000Y-227536000I0J1270000D01*
G01*
X125063000Y-204946000D02*
X126063000Y-204946000D01*
X80518000Y-258381000D02*
X79575000Y-258375000D01*
X124428000Y-253301000D02*
G75*
G03*
X125063000Y-252666000I0J635000D01*
G01*
X107283000Y-256476000D02*
G75*
G03*
X107918000Y-257111000I635000J0D01*
G01*
X97239000Y-225236500D02*
X97239000Y-222215500D01*
X103108000Y-176911000D02*
X101838000Y-176911000D01*
X90408000Y-239331000D02*
G75*
G03*
X89773000Y-239966000I0J-635000D01*
G01*
X153887000Y-185136500D02*
X157389000Y-185136500D01*
X65913000Y-250126000D02*
G75*
G03*
X65913000Y-247586000I0J1270000D01*
G01*
X104378000Y-253301000D02*
G75*
G03*
X103743000Y-253936000I0J-635000D01*
G01*
X148018000Y-257111000D02*
X149288000Y-257111000D01*
X97239000Y-182115500D02*
X93737000Y-182115500D01*
X87868000Y-160401000D02*
X89138000Y-160401000D01*
X113245000Y-219281000D02*
G75*
G03*
X115785000Y-219281000I1270000J0D01*
G01*
X106013000Y-169926000D02*
G75*
G03*
X106013000Y-167386000I0J1270000D01*
G01*
X125063000Y-247586000D02*
G75*
G03*
X125063000Y-250126000I0J-1270000D01*
G01*
X117289000Y-162065500D02*
X113787000Y-162065500D01*
X143843000Y-243776000D02*
G75*
G03*
X144478000Y-244411000I635000J0D01*
G01*
X67183000Y-176276000D02*
G75*
G03*
X67818000Y-176911000I635000J0D01*
G01*
X70358000Y-218281000D02*
X70358000Y-219281000D01*
X145113000Y-184896000D02*
G75*
G03*
X144478000Y-184261000I-635000J0D01*
G01*
X145113000Y-245046000D02*
G75*
G03*
X144478000Y-244411000I-635000J0D01*
G01*
X141303000Y-219916000D02*
G75*
G03*
X140668000Y-219281000I-635000J0D01*
G01*
X83693000Y-163576000D02*
G75*
G03*
X84328000Y-164211000I635000J0D01*
G01*
X95735000Y-258381000D02*
X99625000Y-258375000D01*
X140668000Y-258381000D02*
G75*
G03*
X141303000Y-257746000I0J635000D01*
G01*
X126698000Y-184261000D02*
G75*
G03*
X127333000Y-183626000I0J635000D01*
G01*
X73145000Y-179181000D02*
G75*
G03*
X75685000Y-179181000I1270000J0D01*
G01*
X117289000Y-182115500D02*
X113787000Y-182115500D01*
X67818000Y-240601000D02*
G75*
G03*
X67183000Y-241236000I0J-635000D01*
G01*
X147383000Y-196326000D02*
G75*
G03*
X148018000Y-196961000I635000J0D01*
G01*
X153345000Y-258381000D02*
X151675000Y-258381000D01*
X66548000Y-224361000D02*
G75*
G03*
X67183000Y-223726000I0J635000D01*
G01*
X133837000Y-185136500D02*
X137339000Y-185136500D01*
X141938000Y-180451000D02*
X143208000Y-180451000D01*
X73687000Y-245286500D02*
X77189000Y-245286500D01*
X103108000Y-217011000D02*
G75*
G03*
X103743000Y-216376000I0J635000D01*
G01*
X143843000Y-161036000D02*
G75*
G03*
X143208000Y-160401000I-635000J0D01*
G01*
X127968000Y-200501000D02*
G75*
G03*
X127333000Y-201136000I0J-635000D01*
G01*
X163258000Y-257111000D02*
X161988000Y-257111000D01*
X85963000Y-169926000D02*
G75*
G03*
X85963000Y-167386000I0J1270000D01*
G01*
X153887000Y-225236500D02*
X157389000Y-225236500D01*
X107283000Y-236426000D02*
G75*
G03*
X107918000Y-237061000I635000J0D01*
G01*
X130508000Y-178181000D02*
X130508000Y-179181000D01*
X130508000Y-218281000D02*
X130508000Y-219281000D01*
X148018000Y-196961000D02*
X149288000Y-196961000D01*
X83058000Y-237061000D02*
X81788000Y-237061000D01*
X146113000Y-172466000D02*
G75*
G03*
X146748000Y-173101000I635000J0D01*
G01*
X140668000Y-198231000D02*
X140668000Y-199231000D01*
X164528000Y-193151000D02*
G75*
G03*
X165163000Y-192516000I0J635000D01*
G01*
X143843000Y-201136000D02*
X143843000Y-203676000D01*
X83058000Y-196961000D02*
X81788000Y-196961000D01*
X163258000Y-196961000D02*
G75*
G03*
X163893000Y-196326000I0J635000D01*
G01*
X161988000Y-220551000D02*
X163258000Y-220551000D01*
X141303000Y-159766000D02*
G75*
G03*
X141938000Y-160401000I635000J0D01*
G01*
X146748000Y-224361000D02*
G75*
G03*
X146113000Y-224996000I0J-635000D01*
G01*
X157389000Y-225236500D02*
X157389000Y-222215500D01*
X67183000Y-181086000D02*
X67183000Y-183626000D01*
X125063000Y-184896000D02*
X126063000Y-184896000D01*
X140668000Y-218281000D02*
G75*
G03*
X141303000Y-217646000I0J635000D01*
G01*
X147383000Y-256476000D02*
G75*
G03*
X148018000Y-257111000I635000J0D01*
G01*
X146748000Y-224361000D02*
G75*
G03*
X147383000Y-223726000I0J635000D01*
G01*
X164528000Y-233251000D02*
G75*
G03*
X163893000Y-233886000I0J-635000D01*
G01*
X150558000Y-199231000D02*
G75*
G03*
X149923000Y-199866000I0J-635000D01*
G01*
X90408000Y-219281000D02*
G75*
G03*
X89773000Y-219916000I0J-635000D01*
G01*
X155885000Y-238331000D02*
G75*
G03*
X153345000Y-238331000I-1270000J0D01*
G01*
X85963000Y-252666000D02*
G75*
G03*
X86598000Y-253301000I635000J0D01*
G01*
X103743000Y-163576000D02*
G75*
G03*
X104378000Y-164211000I635000J0D01*
G01*
X107918000Y-180451000D02*
G75*
G03*
X107283000Y-181086000I0J-635000D01*
G01*
X165163000Y-224996000D02*
G75*
G03*
X164528000Y-224361000I-635000J0D01*
G01*
X165163000Y-210026000D02*
X165175000Y-211475000D01*
X165163000Y-232616000D02*
X165175000Y-231525000D01*
X137339000Y-185136500D02*
X137339000Y-182115500D01*
X146113000Y-192516000D02*
G75*
G03*
X146748000Y-193151000I635000J0D01*
G01*
X165163000Y-164846000D02*
G75*
G03*
X164528000Y-164211000I-635000J0D01*
G01*
X75685000Y-238331000D02*
G75*
G03*
X73145000Y-238331000I-1270000J0D01*
G01*
X143208000Y-257111000D02*
G75*
G03*
X143843000Y-256476000I0J635000D01*
G01*
X107918000Y-240601000D02*
X109188000Y-240601000D01*
X165163000Y-212566000D02*
X165175000Y-211475000D01*
X147383000Y-181086000D02*
X147383000Y-183626000D01*
X121253000Y-219916000D02*
G75*
G03*
X120618000Y-219281000I-635000J0D01*
G01*
X133837000Y-225236500D02*
X137339000Y-225236500D01*
X123793000Y-203676000D02*
G75*
G03*
X124428000Y-204311000I635000J0D01*
G01*
X127333000Y-236426000D02*
G75*
G03*
X127968000Y-237061000I635000J0D01*
G01*
X127333000Y-181086000D02*
X127333000Y-183626000D01*
X121888000Y-200501000D02*
X123158000Y-200501000D01*
X103743000Y-243776000D02*
G75*
G03*
X104378000Y-244411000I635000J0D01*
G01*
X106013000Y-250126000D02*
G75*
G03*
X106013000Y-247586000I0J1270000D01*
G01*
X89138000Y-160401000D02*
G75*
G03*
X89773000Y-159766000I0J635000D01*
G01*
X163893000Y-196326000D02*
X163893000Y-193786000D01*
X107283000Y-221186000D02*
X107283000Y-223726000D01*
X86598000Y-184261000D02*
G75*
G03*
X85963000Y-184896000I0J-635000D01*
G01*
X123793000Y-201136000D02*
X123793000Y-203676000D01*
X70358000Y-239331000D02*
G75*
G03*
X69723000Y-239966000I0J-635000D01*
G01*
X106648000Y-164211000D02*
G75*
G03*
X106013000Y-164846000I0J-635000D01*
G01*
X113787000Y-242265500D02*
X113787000Y-245286500D01*
X104378000Y-173101000D02*
G75*
G03*
X105013000Y-172466000I0J635000D01*
G01*
X146748000Y-204311000D02*
G75*
G03*
X146113000Y-204946000I0J-635000D01*
G01*
X149288000Y-160401000D02*
G75*
G03*
X149923000Y-159766000I0J635000D01*
G01*
X87233000Y-233886000D02*
G75*
G03*
X86598000Y-233251000I-635000J0D01*
G01*
X105013000Y-247586000D02*
G75*
G03*
X105013000Y-250126000I0J-1270000D01*
G01*
X100568000Y-238331000D02*
X100568000Y-239331000D01*
X117289000Y-245286500D02*
X117289000Y-242265500D01*
X103743000Y-221186000D02*
G75*
G03*
X103108000Y-220551000I-635000J0D01*
G01*
X109823000Y-237696000D02*
G75*
G03*
X110458000Y-238331000I635000J0D01*
G01*
X141938000Y-257111000D02*
G75*
G03*
X141303000Y-257746000I0J-635000D01*
G01*
X107283000Y-173736000D02*
G75*
G03*
X106648000Y-173101000I-635000J0D01*
G01*
X147383000Y-253936000D02*
G75*
G03*
X146748000Y-253301000I-635000J0D01*
G01*
X143843000Y-203676000D02*
G75*
G03*
X144478000Y-204311000I635000J0D01*
G01*
X83058000Y-176911000D02*
G75*
G03*
X83693000Y-176276000I0J635000D01*
G01*
X84963000Y-172466000D02*
X85963000Y-172466000D01*
X110458000Y-239331000D02*
G75*
G03*
X109823000Y-239966000I0J-635000D01*
G01*
X89773000Y-197596000D02*
G75*
G03*
X89138000Y-196961000I-635000J0D01*
G01*
X123793000Y-221186000D02*
X123793000Y-223726000D01*
X127968000Y-176911000D02*
X129238000Y-176911000D01*
X69088000Y-240601000D02*
G75*
G03*
X69723000Y-239966000I0J635000D01*
G01*
X84963000Y-184896000D02*
G75*
G03*
X84328000Y-184261000I-635000J0D01*
G01*
X107283000Y-216376000D02*
G75*
G03*
X107918000Y-217011000I635000J0D01*
G01*
X163893000Y-236426000D02*
X163893000Y-233886000D01*
X90408000Y-199231000D02*
G75*
G03*
X89773000Y-199866000I0J-635000D01*
G01*
X126063000Y-210026000D02*
G75*
G03*
X126063000Y-207486000I0J1270000D01*
G01*
X103108000Y-237061000D02*
G75*
G03*
X103743000Y-236426000I0J635000D01*
G01*
X149923000Y-217646000D02*
G75*
G03*
X149288000Y-217011000I-635000J0D01*
G01*
X67818000Y-200501000D02*
G75*
G03*
X67183000Y-201136000I0J-635000D01*
G01*
X86598000Y-244411000D02*
G75*
G03*
X87233000Y-243776000I0J635000D01*
G01*
X135835000Y-159131000D02*
X139725000Y-159131000D01*
X65913000Y-230076000D02*
G75*
G03*
X65913000Y-227536000I0J1270000D01*
G01*
X103108000Y-257111000D02*
G75*
G03*
X103743000Y-256476000I0J635000D01*
G01*
X157389000Y-165086500D02*
X157389000Y-162065500D01*
X161988000Y-180451000D02*
X163258000Y-180451000D01*
X85963000Y-192516000D02*
G75*
G03*
X86598000Y-193151000I635000J0D01*
G01*
X106648000Y-244411000D02*
G75*
G03*
X106013000Y-245046000I0J-635000D01*
G01*
X83693000Y-221186000D02*
G75*
G03*
X83058000Y-220551000I-635000J0D01*
G01*
X143843000Y-216376000D02*
X143843000Y-213836000D01*
X141938000Y-220551000D02*
X143208000Y-220551000D01*
X129873000Y-257746000D02*
G75*
G03*
X129238000Y-257111000I-635000J0D01*
G01*
X146113000Y-230076000D02*
G75*
G03*
X146113000Y-227536000I0J1270000D01*
G01*
X101838000Y-217011000D02*
G75*
G03*
X101203000Y-217646000I0J-635000D01*
G01*
X65913000Y-210026000D02*
X65925000Y-211475000D01*
X89773000Y-257746000D02*
G75*
G03*
X90408000Y-258381000I635000J0D01*
G01*
X126063000Y-192516000D02*
G75*
G03*
X126698000Y-193151000I635000J0D01*
G01*
X87233000Y-253936000D02*
G75*
G03*
X86598000Y-253301000I-635000J0D01*
G01*
X161988000Y-160401000D02*
X163258000Y-160401000D01*
X69723000Y-197596000D02*
G75*
G03*
X70358000Y-198231000I635000J0D01*
G01*
X100568000Y-258381000D02*
G75*
G03*
X101203000Y-257746000I0J635000D01*
G01*
X124428000Y-193151000D02*
G75*
G03*
X125063000Y-192516000I0J635000D01*
G01*
X165163000Y-207486000D02*
G75*
G03*
X165163000Y-210026000I0J-1270000D01*
G01*
X145113000Y-207486000D02*
G75*
G03*
X145113000Y-210026000I0J-1270000D01*
G01*
X103743000Y-181086000D02*
X103743000Y-183626000D01*
X127968000Y-180451000D02*
G75*
G03*
X127333000Y-181086000I0J-635000D01*
G01*
X129238000Y-160401000D02*
G75*
G03*
X129873000Y-159766000I0J635000D01*
G01*
X144478000Y-173101000D02*
G75*
G03*
X143843000Y-173736000I0J-635000D01*
G01*
X70358000Y-179181000D02*
G75*
G03*
X69723000Y-179816000I0J-635000D01*
G01*
X145113000Y-192516000D02*
X146113000Y-192516000D01*
X106013000Y-192516000D02*
G75*
G03*
X106648000Y-193151000I635000J0D01*
G01*
X163893000Y-203676000D02*
G75*
G03*
X164528000Y-204311000I635000J0D01*
G01*
X113245000Y-179181000D02*
G75*
G03*
X115785000Y-179181000I1270000J0D01*
G01*
X120618000Y-258381000D02*
G75*
G03*
X121253000Y-257746000I0J635000D01*
G01*
X146748000Y-164211000D02*
G75*
G03*
X147383000Y-163576000I0J635000D01*
G01*
X127333000Y-161036000D02*
X127333000Y-163576000D01*
X106648000Y-184261000D02*
G75*
G03*
X107283000Y-183626000I0J635000D01*
G01*
X157389000Y-185136500D02*
X157389000Y-182115500D01*
X163258000Y-217011000D02*
G75*
G03*
X163893000Y-216376000I0J635000D01*
G01*
X103108000Y-237061000D02*
X101838000Y-237061000D01*
X127333000Y-201136000D02*
X127333000Y-203676000D01*
X90408000Y-159131000D02*
G75*
G03*
X89773000Y-159766000I0J-635000D01*
G01*
X73687000Y-205186500D02*
X77189000Y-205186500D01*
X113787000Y-202165500D02*
X113787000Y-205186500D01*
X84963000Y-247586000D02*
G75*
G03*
X84963000Y-250126000I0J-1270000D01*
G01*
X83058000Y-217011000D02*
G75*
G03*
X83693000Y-216376000I0J635000D01*
G01*
X143208000Y-237061000D02*
X141938000Y-237061000D01*
X127333000Y-193786000D02*
X127333000Y-196326000D01*
X149923000Y-177546000D02*
G75*
G03*
X149288000Y-176911000I-635000J0D01*
G01*
X127968000Y-196961000D02*
X129238000Y-196961000D01*
X121888000Y-160401000D02*
X123158000Y-160401000D01*
X164528000Y-253301000D02*
G75*
G03*
X165163000Y-252666000I0J635000D01*
G01*
X97239000Y-185136500D02*
X97239000Y-182115500D01*
X107283000Y-213836000D02*
X107283000Y-216376000D01*
X93737000Y-205186500D02*
X97239000Y-205186500D01*
X163258000Y-237061000D02*
G75*
G03*
X163893000Y-236426000I0J635000D01*
G01*
X115785000Y-258381000D02*
G75*
G03*
X113245000Y-258381000I-1270000J0D01*
G01*
X90408000Y-258381000D02*
X91525000Y-258381000D01*
X163893000Y-221186000D02*
G75*
G03*
X163258000Y-220551000I-635000J0D01*
G01*
X141303000Y-239966000D02*
G75*
G03*
X141938000Y-240601000I635000J0D01*
G01*
X69088000Y-180451000D02*
G75*
G03*
X69723000Y-179816000I0J635000D01*
G01*
X67818000Y-180451000D02*
G75*
G03*
X67183000Y-181086000I0J-635000D01*
G01*
X144478000Y-193151000D02*
G75*
G03*
X143843000Y-193786000I0J-635000D01*
G01*
X150558000Y-198231000D02*
X150558000Y-199231000D01*
X67183000Y-221186000D02*
X67183000Y-223726000D01*
X104378000Y-193151000D02*
G75*
G03*
X103743000Y-193786000I0J-635000D01*
G01*
X83693000Y-161036000D02*
G75*
G03*
X83058000Y-160401000I-635000J0D01*
G01*
X126063000Y-169926000D02*
G75*
G03*
X126063000Y-167386000I0J1270000D01*
G01*
X147383000Y-193786000D02*
X147383000Y-196326000D01*
X121888000Y-257111000D02*
G75*
G03*
X121253000Y-257746000I0J-635000D01*
G01*
X107918000Y-237061000D02*
X109188000Y-237061000D01*
X123158000Y-217011000D02*
X121888000Y-217011000D01*
X65913000Y-169926000D02*
G75*
G03*
X65913000Y-167386000I0J1270000D01*
G01*
X145113000Y-204946000D02*
G75*
G03*
X144478000Y-204311000I-635000J0D01*
G01*
X67183000Y-201136000D02*
X67183000Y-203676000D01*
X163893000Y-216376000D02*
X163893000Y-213836000D01*
X121253000Y-159766000D02*
G75*
G03*
X121888000Y-160401000I635000J0D01*
G01*
X148018000Y-237061000D02*
X149288000Y-237061000D01*
X97239000Y-205186500D02*
X97239000Y-202165500D01*
X125063000Y-204946000D02*
G75*
G03*
X124428000Y-204311000I-635000J0D01*
G01*
X163893000Y-241236000D02*
X163893000Y-243776000D01*
X127333000Y-196326000D02*
G75*
G03*
X127968000Y-196961000I635000J0D01*
G01*
X103108000Y-196961000D02*
X101838000Y-196961000D01*
X123793000Y-236426000D02*
X123793000Y-233886000D01*
X109823000Y-217646000D02*
G75*
G03*
X110458000Y-218281000I635000J0D01*
G01*
X125063000Y-187436000D02*
G75*
G03*
X125063000Y-189976000I0J-1270000D01*
G01*
X87233000Y-173736000D02*
X87233000Y-176276000D01*
X125063000Y-252666000D02*
X126063000Y-252666000D01*
X65913000Y-212566000D02*
X65925000Y-211475000D01*
X81153000Y-179816000D02*
G75*
G03*
X81788000Y-180451000I635000J0D01*
G01*
X90408000Y-178181000D02*
X90408000Y-179181000D01*
X157389000Y-202165500D02*
X153887000Y-202165500D01*
X117289000Y-165086500D02*
X117289000Y-162065500D01*
X127968000Y-200501000D02*
X129238000Y-200501000D01*
X90408000Y-179181000D02*
G75*
G03*
X89773000Y-179816000I0J-635000D01*
G01*
X123793000Y-176276000D02*
X123793000Y-173736000D01*
X115785000Y-178181000D02*
G75*
G03*
X113245000Y-178181000I-1270000J0D01*
G01*
X107918000Y-257111000D02*
X109188000Y-257111000D01*
X107918000Y-240601000D02*
G75*
G03*
X107283000Y-241236000I0J-635000D01*
G01*
X83058000Y-237061000D02*
G75*
G03*
X83693000Y-236426000I0J635000D01*
G01*
X127333000Y-213836000D02*
X127333000Y-216376000D01*
X143208000Y-176911000D02*
G75*
G03*
X143843000Y-176276000I0J635000D01*
G01*
X146113000Y-210026000D02*
G75*
G03*
X146113000Y-207486000I0J1270000D01*
G01*
X69723000Y-237696000D02*
G75*
G03*
X69088000Y-237061000I-635000J0D01*
G01*
X165163000Y-247586000D02*
X165175000Y-246175000D01*
X120618000Y-238331000D02*
X120618000Y-239331000D01*
X107918000Y-220551000D02*
G75*
G03*
X107283000Y-221186000I0J-635000D01*
G01*
X83693000Y-181086000D02*
G75*
G03*
X83058000Y-180451000I-635000J0D01*
G01*
X70358000Y-159131000D02*
G75*
G03*
X69723000Y-159766000I0J-635000D01*
G01*
X143843000Y-181086000D02*
X143843000Y-183626000D01*
X147383000Y-201136000D02*
X147383000Y-203676000D01*
X84963000Y-232616000D02*
X85963000Y-232616000D01*
X163258000Y-257111000D02*
G75*
G03*
X163893000Y-256476000I0J635000D01*
G01*
X103743000Y-223726000D02*
G75*
G03*
X104378000Y-224361000I635000J0D01*
G01*
X80518000Y-198231000D02*
G75*
G03*
X81153000Y-197596000I0J635000D01*
G01*
X81153000Y-159766000D02*
G75*
G03*
X80518000Y-159131000I-635000J0D01*
G01*
X104378000Y-253301000D02*
G75*
G03*
X105013000Y-252666000I0J635000D01*
G01*
X147383000Y-233886000D02*
X147383000Y-236426000D01*
X130508000Y-238331000D02*
X130508000Y-239331000D01*
X140668000Y-238331000D02*
G75*
G03*
X141303000Y-237696000I0J635000D01*
G01*
X165163000Y-184896000D02*
G75*
G03*
X164528000Y-184261000I-635000J0D01*
G01*
X83693000Y-196326000D02*
X83693000Y-193786000D01*
X113245000Y-199231000D02*
G75*
G03*
X115785000Y-199231000I1270000J0D01*
G01*
X117289000Y-205186500D02*
X117289000Y-202165500D01*
X121253000Y-199866000D02*
G75*
G03*
X120618000Y-199231000I-635000J0D01*
G01*
X67818000Y-240601000D02*
X69088000Y-240601000D01*
X83058000Y-257111000D02*
G75*
G03*
X83693000Y-256476000I0J635000D01*
G01*
X110458000Y-258381000D02*
X111575000Y-258381000D01*
X165163000Y-172466000D02*
X165175000Y-171375000D01*
X84963000Y-245046000D02*
X85963000Y-245046000D01*
X105013000Y-245046000D02*
G75*
G03*
X104378000Y-244411000I-635000J0D01*
G01*
X165163000Y-169926000D02*
X165175000Y-171375000D01*
X67183000Y-236426000D02*
G75*
G03*
X67818000Y-237061000I635000J0D01*
G01*
X84963000Y-164846000D02*
X85963000Y-164846000D01*
X89138000Y-180451000D02*
G75*
G03*
X89773000Y-179816000I0J635000D01*
G01*
X137339000Y-162065500D02*
X133837000Y-162065500D01*
X153887000Y-162065500D02*
X153887000Y-165086500D01*
X84963000Y-187436000D02*
G75*
G03*
X84963000Y-189976000I0J-1270000D01*
G01*
X81788000Y-220551000D02*
X83058000Y-220551000D01*
X143843000Y-223726000D02*
G75*
G03*
X144478000Y-224361000I635000J0D01*
G01*
X149288000Y-200501000D02*
G75*
G03*
X149923000Y-199866000I0J635000D01*
G01*
X105013000Y-204946000D02*
X106013000Y-204946000D01*
X161988000Y-196961000D02*
G75*
G03*
X161353000Y-197596000I0J-635000D01*
G01*
X83058000Y-196961000D02*
G75*
G03*
X83693000Y-196326000I0J635000D01*
G01*
X126698000Y-244411000D02*
G75*
G03*
X126063000Y-245046000I0J-635000D01*
G01*
X141303000Y-219916000D02*
G75*
G03*
X141938000Y-220551000I635000J0D01*
G01*
X93737000Y-245286500D02*
X97239000Y-245286500D01*
X163258000Y-237061000D02*
X161988000Y-237061000D01*
X81788000Y-257111000D02*
G75*
G03*
X81153000Y-257746000I0J-635000D01*
G01*
X160718000Y-238331000D02*
X160718000Y-239331000D01*
X121888000Y-237061000D02*
G75*
G03*
X121253000Y-237696000I0J-635000D01*
G01*
X147383000Y-213836000D02*
G75*
G03*
X146748000Y-213201000I-635000J0D01*
G01*
X67818000Y-257111000D02*
X69088000Y-257111000D01*
X127333000Y-221186000D02*
X127333000Y-223726000D01*
X107283000Y-253936000D02*
G75*
G03*
X106648000Y-253301000I-635000J0D01*
G01*
X84328000Y-213201000D02*
G75*
G03*
X84963000Y-212566000I0J635000D01*
G01*
X161988000Y-217011000D02*
G75*
G03*
X161353000Y-217646000I0J-635000D01*
G01*
X110458000Y-219281000D02*
G75*
G03*
X109823000Y-219916000I0J-635000D01*
G01*
X133837000Y-242265500D02*
X133837000Y-245286500D01*
X125063000Y-224996000D02*
G75*
G03*
X124428000Y-224361000I-635000J0D01*
G01*
X95735000Y-258381000D02*
G75*
G03*
X93195000Y-258381000I-1270000J0D01*
G01*
X65913000Y-186025000D02*
X65913000Y-184896000D01*
X145113000Y-164846000D02*
X146113000Y-164846000D01*
X148018000Y-200501000D02*
G75*
G03*
X147383000Y-201136000I0J-635000D01*
G01*
X109823000Y-257746000D02*
G75*
G03*
X109188000Y-257111000I-635000J0D01*
G01*
X153345000Y-239331000D02*
G75*
G03*
X155885000Y-239331000I1270000J0D01*
G01*
X155885000Y-218281000D02*
G75*
G03*
X153345000Y-218281000I-1270000J0D01*
G01*
X127333000Y-216376000D02*
G75*
G03*
X127968000Y-217011000I635000J0D01*
G01*
X127968000Y-237061000D02*
X129238000Y-237061000D01*
X160718000Y-178181000D02*
G75*
G03*
X161353000Y-177546000I0J635000D01*
G01*
X66548000Y-184261000D02*
G75*
G03*
X65913000Y-184896000I0J-635000D01*
G01*
X113787000Y-225236500D02*
X117289000Y-225236500D01*
X103743000Y-201136000D02*
G75*
G03*
X103108000Y-200501000I-635000J0D01*
G01*
X137339000Y-182115500D02*
X133837000Y-182115500D01*
X106648000Y-224361000D02*
G75*
G03*
X107283000Y-223726000I0J635000D01*
G01*
X133837000Y-205186500D02*
X137339000Y-205186500D01*
X141938000Y-237061000D02*
G75*
G03*
X141303000Y-237696000I0J-635000D01*
G01*
X125063000Y-224996000D02*
X126063000Y-224996000D01*
X148018000Y-240601000D02*
X149288000Y-240601000D01*
X67818000Y-180451000D02*
X69088000Y-180451000D01*
X125063000Y-164846000D02*
G75*
G03*
X124428000Y-164211000I-635000J0D01*
G01*
X160718000Y-159131000D02*
X159775000Y-159131000D01*
X106013000Y-189976000D02*
G75*
G03*
X106013000Y-187436000I0J1270000D01*
G01*
X106013000Y-230076000D02*
G75*
G03*
X106013000Y-227536000I0J1270000D01*
G01*
X109823000Y-197596000D02*
G75*
G03*
X109188000Y-196961000I-635000J0D01*
G01*
X67183000Y-241236000D02*
X67183000Y-243776000D01*
X160718000Y-258381000D02*
X159775000Y-258375000D01*
X86598000Y-204311000D02*
G75*
G03*
X85963000Y-204946000I0J-635000D01*
G01*
X87233000Y-236426000D02*
G75*
G03*
X87868000Y-237061000I635000J0D01*
G01*
X148018000Y-160401000D02*
G75*
G03*
X147383000Y-161036000I0J-635000D01*
G01*
X103743000Y-196326000D02*
X103743000Y-193786000D01*
X127968000Y-257111000D02*
X129238000Y-257111000D01*
X101838000Y-240601000D02*
X103108000Y-240601000D01*
X73687000Y-242265500D02*
X73687000Y-245286500D01*
X125063000Y-207486000D02*
G75*
G03*
X125063000Y-210026000I0J-1270000D01*
G01*
X105013000Y-172466000D02*
X106013000Y-172466000D01*
X106013000Y-232616000D02*
G75*
G03*
X106648000Y-233251000I635000J0D01*
G01*
X137339000Y-205186500D02*
X137339000Y-202165500D01*
X127968000Y-220551000D02*
X129238000Y-220551000D01*
X161988000Y-176911000D02*
G75*
G03*
X161353000Y-177546000I0J-635000D01*
G01*
X148018000Y-240601000D02*
G75*
G03*
X147383000Y-241236000I0J-635000D01*
G01*
X121253000Y-219916000D02*
G75*
G03*
X121888000Y-220551000I635000J0D01*
G01*
X165163000Y-164846000D02*
X165175000Y-165975000D01*
X163893000Y-163576000D02*
G75*
G03*
X164528000Y-164211000I635000J0D01*
G01*
X70358000Y-258381000D02*
X71475000Y-258381000D01*
X160718000Y-218281000D02*
X160718000Y-219281000D01*
X165163000Y-187436000D02*
X165175000Y-186025000D01*
X84328000Y-233251000D02*
G75*
G03*
X84963000Y-232616000I0J635000D01*
G01*
X146113000Y-189976000D02*
G75*
G03*
X146113000Y-187436000I0J1270000D01*
G01*
X161353000Y-159766000D02*
G75*
G03*
X161988000Y-160401000I635000J0D01*
G01*
X104378000Y-233251000D02*
G75*
G03*
X105013000Y-232616000I0J635000D01*
G01*
X161353000Y-219916000D02*
G75*
G03*
X161988000Y-220551000I635000J0D01*
G01*
X65913000Y-169926000D02*
X65925000Y-171375000D01*
X127333000Y-253936000D02*
G75*
G03*
X126698000Y-253301000I-635000J0D01*
G01*
X69088000Y-160401000D02*
G75*
G03*
X69723000Y-159766000I0J635000D01*
G01*
X129238000Y-200501000D02*
G75*
G03*
X129873000Y-199866000I0J635000D01*
G01*
X67183000Y-253936000D02*
G75*
G03*
X66548000Y-253301000I-635000J0D01*
G01*
X101838000Y-176911000D02*
G75*
G03*
X101203000Y-177546000I0J-635000D01*
G01*
X107283000Y-241236000D02*
X107283000Y-243776000D01*
X126063000Y-252666000D02*
G75*
G03*
X126698000Y-253301000I635000J0D01*
G01*
X65913000Y-189976000D02*
X65925000Y-191425000D01*
X73687000Y-185136500D02*
X77189000Y-185136500D01*
X66548000Y-164211000D02*
G75*
G03*
X67183000Y-163576000I0J635000D01*
G01*
X93737000Y-225236500D02*
X97239000Y-225236500D01*
X67818000Y-196961000D02*
X69088000Y-196961000D01*
X133837000Y-202165500D02*
X133837000Y-205186500D01*
X123793000Y-256476000D02*
X123793000Y-253936000D01*
X105013000Y-227536000D02*
G75*
G03*
X105013000Y-230076000I0J-1270000D01*
G01*
X87233000Y-176276000D02*
G75*
G03*
X87868000Y-176911000I635000J0D01*
G01*
X113245000Y-258381000D02*
X111575000Y-258381000D01*
X109188000Y-160401000D02*
G75*
G03*
X109823000Y-159766000I0J635000D01*
G01*
X83693000Y-223726000D02*
G75*
G03*
X84328000Y-224361000I635000J0D01*
G01*
X97239000Y-162065500D02*
X93737000Y-162065500D01*
X103743000Y-256476000D02*
X103743000Y-253936000D01*
X81788000Y-176911000D02*
G75*
G03*
X81153000Y-177546000I0J-635000D01*
G01*
X149923000Y-237696000D02*
G75*
G03*
X150558000Y-238331000I635000J0D01*
G01*
X67183000Y-253936000D02*
X67183000Y-256476000D01*
X89138000Y-240601000D02*
G75*
G03*
X89773000Y-239966000I0J635000D01*
G01*
X100568000Y-218281000D02*
G75*
G03*
X101203000Y-217646000I0J635000D01*
G01*
X81788000Y-180451000D02*
X83058000Y-180451000D01*
X109823000Y-197596000D02*
G75*
G03*
X110458000Y-198231000I635000J0D01*
G01*
X127968000Y-240601000D02*
G75*
G03*
X127333000Y-241236000I0J-635000D01*
G01*
X137339000Y-225236500D02*
X137339000Y-222215500D01*
X67818000Y-217011000D02*
X69088000Y-217011000D01*
X90408000Y-238331000D02*
X90408000Y-239331000D01*
X107283000Y-161036000D02*
X107283000Y-163576000D01*
X127968000Y-240601000D02*
X129238000Y-240601000D01*
X113245000Y-159131000D02*
G75*
G03*
X115785000Y-159131000I1270000J0D01*
G01*
X126698000Y-184261000D02*
G75*
G03*
X126063000Y-184896000I0J-635000D01*
G01*
X65913000Y-227536000D02*
X65913000Y-226125000D01*
X83693000Y-181086000D02*
X83693000Y-183626000D01*
X69723000Y-177546000D02*
G75*
G03*
X69088000Y-176911000I-635000J0D01*
G01*
X87233000Y-216376000D02*
G75*
G03*
X87868000Y-217011000I635000J0D01*
G01*
X144478000Y-233251000D02*
G75*
G03*
X143843000Y-233886000I0J-635000D01*
G01*
X83693000Y-236426000D02*
X83693000Y-233886000D01*
X87233000Y-213836000D02*
X87233000Y-216376000D01*
X123158000Y-217011000D02*
G75*
G03*
X123793000Y-216376000I0J635000D01*
G01*
X105013000Y-212566000D02*
X106013000Y-212566000D01*
X65913000Y-165975000D02*
X65913000Y-164846000D01*
X161988000Y-240601000D02*
X163258000Y-240601000D01*
X93195000Y-199231000D02*
G75*
G03*
X95735000Y-199231000I1270000J0D01*
G01*
X89773000Y-237696000D02*
G75*
G03*
X89138000Y-237061000I-635000J0D01*
G01*
X141303000Y-159766000D02*
G75*
G03*
X140668000Y-159131000I-635000J0D01*
G01*
X103743000Y-181086000D02*
G75*
G03*
X103108000Y-180451000I-635000J0D01*
G01*
X145113000Y-224996000D02*
G75*
G03*
X144478000Y-224361000I-635000J0D01*
G01*
X127333000Y-233886000D02*
G75*
G03*
X126698000Y-233251000I-635000J0D01*
G01*
X89773000Y-177546000D02*
G75*
G03*
X89138000Y-176911000I-635000J0D01*
G01*
X127968000Y-217011000D02*
X129238000Y-217011000D01*
X125063000Y-164846000D02*
X126063000Y-164846000D01*
X163893000Y-201136000D02*
G75*
G03*
X163258000Y-200501000I-635000J0D01*
G01*
X85963000Y-232616000D02*
G75*
G03*
X86598000Y-233251000I635000J0D01*
G01*
X65913000Y-189976000D02*
G75*
G03*
X65913000Y-187436000I0J1270000D01*
G01*
X87868000Y-180451000D02*
G75*
G03*
X87233000Y-181086000I0J-635000D01*
G01*
X101203000Y-199866000D02*
G75*
G03*
X100568000Y-199231000I-635000J0D01*
G01*
X130508000Y-198231000D02*
X130508000Y-199231000D01*
X86598000Y-224361000D02*
G75*
G03*
X85963000Y-224996000I0J-635000D01*
G01*
X81153000Y-179816000D02*
G75*
G03*
X80518000Y-179181000I-635000J0D01*
G01*
X83693000Y-241236000D02*
X83693000Y-243776000D01*
X105013000Y-224996000D02*
X106013000Y-224996000D01*
X140668000Y-178181000D02*
X140668000Y-179181000D01*
X85963000Y-250126000D02*
G75*
G03*
X85963000Y-247586000I0J1270000D01*
G01*
X129873000Y-217646000D02*
G75*
G03*
X130508000Y-218281000I635000J0D01*
G01*
X123793000Y-196326000D02*
X123793000Y-193786000D01*
X107918000Y-160401000D02*
X109188000Y-160401000D01*
X67183000Y-256476000D02*
G75*
G03*
X67818000Y-257111000I635000J0D01*
G01*
X124428000Y-173101000D02*
G75*
G03*
X123793000Y-173736000I0J-635000D01*
G01*
X67183000Y-216376000D02*
G75*
G03*
X67818000Y-217011000I635000J0D01*
G01*
X143843000Y-221186000D02*
G75*
G03*
X143208000Y-220551000I-635000J0D01*
G01*
X101838000Y-200501000D02*
X103108000Y-200501000D01*
X106648000Y-244411000D02*
G75*
G03*
X107283000Y-243776000I0J635000D01*
G01*
X165163000Y-252666000D02*
X165175000Y-251575000D01*
X124428000Y-173101000D02*
G75*
G03*
X125063000Y-172466000I0J635000D01*
G01*
X107283000Y-233886000D02*
X107283000Y-236426000D01*
X103743000Y-161036000D02*
X103743000Y-163576000D01*
X89773000Y-177546000D02*
G75*
G03*
X90408000Y-178181000I635000J0D01*
G01*
X123793000Y-181086000D02*
X123793000Y-183626000D01*
X89773000Y-257746000D02*
G75*
G03*
X89138000Y-257111000I-635000J0D01*
G01*
X89138000Y-220551000D02*
G75*
G03*
X89773000Y-219916000I0J635000D01*
G01*
X155885000Y-159131000D02*
X159775000Y-159131000D01*
X101203000Y-159766000D02*
G75*
G03*
X100568000Y-159131000I-635000J0D01*
G01*
X143843000Y-176276000D02*
X143843000Y-173736000D01*
X160718000Y-258381000D02*
G75*
G03*
X161353000Y-257746000I0J635000D01*
G01*
X137339000Y-222215500D02*
X133837000Y-222215500D01*
X87868000Y-196961000D02*
X89138000Y-196961000D01*
X84963000Y-184896000D02*
X85963000Y-184896000D01*
X137339000Y-165086500D02*
X137339000Y-162065500D01*
X153887000Y-245286500D02*
X157389000Y-245286500D01*
X83693000Y-241236000D02*
G75*
G03*
X83058000Y-240601000I-635000J0D01*
G01*
X133295000Y-199231000D02*
G75*
G03*
X135835000Y-199231000I1270000J0D01*
G01*
X148018000Y-180451000D02*
G75*
G03*
X147383000Y-181086000I0J-635000D01*
G01*
X87233000Y-221186000D02*
X87233000Y-223726000D01*
X130508000Y-159131000D02*
G75*
G03*
X129873000Y-159766000I0J-635000D01*
G01*
X150558000Y-159131000D02*
X151675000Y-159131000D01*
X84963000Y-224996000D02*
X85963000Y-224996000D01*
X131625000Y-159131000D02*
X133295000Y-159131000D01*
X141303000Y-179816000D02*
G75*
G03*
X141938000Y-180451000I635000J0D01*
G01*
X120618000Y-238331000D02*
G75*
G03*
X121253000Y-237696000I0J635000D01*
G01*
X123158000Y-257111000D02*
X121888000Y-257111000D01*
X163893000Y-183626000D02*
G75*
G03*
X164528000Y-184261000I635000J0D01*
G01*
X84963000Y-252666000D02*
X85963000Y-252666000D01*
X143843000Y-221186000D02*
X143843000Y-223726000D01*
X101838000Y-160401000D02*
X103108000Y-160401000D01*
X110458000Y-159131000D02*
G75*
G03*
X109823000Y-159766000I0J-635000D01*
G01*
X67183000Y-213836000D02*
G75*
G03*
X66548000Y-213201000I-635000J0D01*
G01*
X145113000Y-232616000D02*
X146113000Y-232616000D01*
X67818000Y-160401000D02*
G75*
G03*
X67183000Y-161036000I0J-635000D01*
G01*
X161988000Y-237061000D02*
G75*
G03*
X161353000Y-237696000I0J-635000D01*
G01*
X84328000Y-173101000D02*
G75*
G03*
X83693000Y-173736000I0J-635000D01*
G01*
X106013000Y-172466000D02*
G75*
G03*
X106648000Y-173101000I635000J0D01*
G01*
X141303000Y-199866000D02*
G75*
G03*
X140668000Y-199231000I-635000J0D01*
G01*
X70358000Y-219281000D02*
G75*
G03*
X69723000Y-219916000I0J-635000D01*
G01*
X153887000Y-222215500D02*
X153887000Y-225236500D01*
X113245000Y-239331000D02*
G75*
G03*
X115785000Y-239331000I1270000J0D01*
G01*
X165163000Y-204946000D02*
G75*
G03*
X164528000Y-204311000I-635000J0D01*
G01*
X67183000Y-233886000D02*
X67183000Y-236426000D01*
X65913000Y-250126000D02*
X65925000Y-251575000D01*
X83058000Y-257111000D02*
X81788000Y-257111000D01*
X149923000Y-257746000D02*
G75*
G03*
X150558000Y-258381000I635000J0D01*
G01*
X105013000Y-192516000D02*
X106013000Y-192516000D01*
X123158000Y-176911000D02*
X121888000Y-176911000D01*
X87868000Y-180451000D02*
X89138000Y-180451000D01*
X123793000Y-241236000D02*
X123793000Y-243776000D01*
X83693000Y-201136000D02*
G75*
G03*
X83058000Y-200501000I-635000J0D01*
G01*
X67818000Y-200501000D02*
X69088000Y-200501000D01*
X163893000Y-161036000D02*
G75*
G03*
X163258000Y-160401000I-635000J0D01*
G01*
X81153000Y-199866000D02*
G75*
G03*
X80518000Y-199231000I-635000J0D01*
G01*
X163893000Y-241236000D02*
G75*
G03*
X163258000Y-240601000I-635000J0D01*
G01*
X121888000Y-240601000D02*
X123158000Y-240601000D01*
X67818000Y-237061000D02*
X69088000Y-237061000D01*
X120618000Y-218281000D02*
G75*
G03*
X121253000Y-217646000I0J635000D01*
G01*
X123793000Y-241236000D02*
G75*
G03*
X123158000Y-240601000I-635000J0D01*
G01*
X123158000Y-257111000D02*
G75*
G03*
X123793000Y-256476000I0J635000D01*
G01*
X127333000Y-173736000D02*
G75*
G03*
X126698000Y-173101000I-635000J0D01*
G01*
X149923000Y-217646000D02*
G75*
G03*
X150558000Y-218281000I635000J0D01*
G01*
X101203000Y-179816000D02*
G75*
G03*
X101838000Y-180451000I635000J0D01*
G01*
X149923000Y-177546000D02*
G75*
G03*
X150558000Y-178181000I635000J0D01*
G01*
X81153000Y-239966000D02*
G75*
G03*
X81788000Y-240601000I635000J0D01*
G01*
X161353000Y-219916000D02*
G75*
G03*
X160718000Y-219281000I-635000J0D01*
G01*
X87233000Y-173736000D02*
G75*
G03*
X86598000Y-173101000I-635000J0D01*
G01*
X103743000Y-203676000D02*
G75*
G03*
X104378000Y-204311000I635000J0D01*
G01*
X66548000Y-204311000D02*
G75*
G03*
X67183000Y-203676000I0J635000D01*
G01*
X83693000Y-183626000D02*
G75*
G03*
X84328000Y-184261000I635000J0D01*
G01*
X141938000Y-160401000D02*
X143208000Y-160401000D01*
X161988000Y-200501000D02*
X163258000Y-200501000D01*
X65913000Y-192516000D02*
X65925000Y-191425000D01*
X73687000Y-182115500D02*
X73687000Y-185136500D01*
X133295000Y-159131000D02*
G75*
G03*
X135835000Y-159131000I1270000J0D01*
G01*
X145113000Y-187436000D02*
G75*
G03*
X145113000Y-189976000I0J-1270000D01*
G01*
X160718000Y-238331000D02*
G75*
G03*
X161353000Y-237696000I0J635000D01*
G01*
X121253000Y-199866000D02*
G75*
G03*
X121888000Y-200501000I635000J0D01*
G01*
X107283000Y-181086000D02*
X107283000Y-183626000D01*
X107283000Y-176276000D02*
G75*
G03*
X107918000Y-176911000I635000J0D01*
G01*
X85963000Y-210026000D02*
G75*
G03*
X85963000Y-207486000I0J1270000D01*
G01*
X129873000Y-177546000D02*
G75*
G03*
X130508000Y-178181000I635000J0D01*
G01*
X87233000Y-253936000D02*
X87233000Y-256476000D01*
X165163000Y-230076000D02*
X165175000Y-231525000D01*
X81788000Y-217011000D02*
G75*
G03*
X81153000Y-217646000I0J-635000D01*
G01*
X141938000Y-196961000D02*
G75*
G03*
X141303000Y-197596000I0J-635000D01*
G01*
X87233000Y-161036000D02*
X87233000Y-163576000D01*
X117289000Y-242265500D02*
X113787000Y-242265500D01*
X117289000Y-185136500D02*
X117289000Y-182115500D01*
X165163000Y-227536000D02*
G75*
G03*
X165163000Y-230076000I0J-1270000D01*
G01*
X150558000Y-218281000D02*
X150558000Y-219281000D01*
X144478000Y-213201000D02*
G75*
G03*
X143843000Y-213836000I0J-635000D01*
G01*
X101203000Y-219916000D02*
G75*
G03*
X101838000Y-220551000I635000J0D01*
G01*
X117289000Y-225236500D02*
X117289000Y-222215500D01*
X157389000Y-162065500D02*
X153887000Y-162065500D01*
X120618000Y-198231000D02*
G75*
G03*
X121253000Y-197596000I0J635000D01*
G01*
X113787000Y-245286500D02*
X117289000Y-245286500D01*
X67818000Y-220551000D02*
X69088000Y-220551000D01*
X144478000Y-213201000D02*
G75*
G03*
X145113000Y-212566000I0J635000D01*
G01*
X126063000Y-230076000D02*
G75*
G03*
X126063000Y-227536000I0J1270000D01*
G01*
X127333000Y-173736000D02*
X127333000Y-176276000D01*
X87233000Y-196326000D02*
G75*
G03*
X87868000Y-196961000I635000J0D01*
G01*
X164528000Y-173101000D02*
G75*
G03*
X163893000Y-173736000I0J-635000D01*
G01*
X164528000Y-213201000D02*
G75*
G03*
X163893000Y-213836000I0J-635000D01*
G01*
X133837000Y-162065500D02*
X133837000Y-165086500D01*
X133837000Y-165086500D02*
X137339000Y-165086500D01*
X127333000Y-256476000D02*
G75*
G03*
X127968000Y-257111000I635000J0D01*
G01*
X147383000Y-176276000D02*
G75*
G03*
X148018000Y-176911000I635000J0D01*
G01*
X77189000Y-205186500D02*
X77189000Y-202165500D01*
X103743000Y-183626000D02*
G75*
G03*
X104378000Y-184261000I635000J0D01*
G01*
X110458000Y-178181000D02*
X110458000Y-179181000D01*
X135835000Y-238331000D02*
G75*
G03*
X133295000Y-238331000I-1270000J0D01*
G01*
X124428000Y-233251000D02*
G75*
G03*
X125063000Y-232616000I0J635000D01*
G01*
X67183000Y-196326000D02*
G75*
G03*
X67818000Y-196961000I635000J0D01*
G01*
X143843000Y-241236000D02*
G75*
G03*
X143208000Y-240601000I-635000J0D01*
G01*
X83058000Y-217011000D02*
X81788000Y-217011000D01*
X107283000Y-253936000D02*
X107283000Y-256476000D01*
X87868000Y-160401000D02*
G75*
G03*
X87233000Y-161036000I0J-635000D01*
G01*
X165163000Y-207486000D02*
X165175000Y-206075000D01*
X83693000Y-243776000D02*
G75*
G03*
X84328000Y-244411000I635000J0D01*
G01*
X164528000Y-233251000D02*
G75*
G03*
X165163000Y-232616000I0J635000D01*
G01*
X150558000Y-238331000D02*
X150558000Y-239331000D01*
X129238000Y-180451000D02*
G75*
G03*
X129873000Y-179816000I0J635000D01*
G01*
X101838000Y-220551000D02*
X103108000Y-220551000D01*
X110458000Y-238331000D02*
X110458000Y-239331000D01*
X84328000Y-233251000D02*
G75*
G03*
X83693000Y-233886000I0J-635000D01*
G01*
X67183000Y-233886000D02*
G75*
G03*
X66548000Y-233251000I-635000J0D01*
G01*
X163893000Y-181086000D02*
X163893000Y-183626000D01*
X140668000Y-159131000D02*
X139725000Y-159131000D01*
X141303000Y-239966000D02*
G75*
G03*
X140668000Y-239331000I-635000J0D01*
G01*
X103108000Y-196961000D02*
G75*
G03*
X103743000Y-196326000I0J635000D01*
G01*
X66548000Y-204311000D02*
G75*
G03*
X65913000Y-204946000I0J-635000D01*
G01*
X105013000Y-252666000D02*
X106013000Y-252666000D01*
X123793000Y-163576000D02*
G75*
G03*
X124428000Y-164211000I635000J0D01*
G01*
X93195000Y-219281000D02*
G75*
G03*
X95735000Y-219281000I1270000J0D01*
G01*
X83693000Y-221186000D02*
X83693000Y-223726000D01*
X87868000Y-220551000D02*
G75*
G03*
X87233000Y-221186000I0J-635000D01*
G01*
X93737000Y-185136500D02*
X97239000Y-185136500D01*
X121888000Y-217011000D02*
G75*
G03*
X121253000Y-217646000I0J-635000D01*
G01*
X69723000Y-217646000D02*
G75*
G03*
X69088000Y-217011000I-635000J0D01*
G01*
X150558000Y-179181000D02*
G75*
G03*
X149923000Y-179816000I0J-635000D01*
G01*
X69723000Y-257746000D02*
G75*
G03*
X69088000Y-257111000I-635000J0D01*
G01*
X65913000Y-192516000D02*
G75*
G03*
X66548000Y-193151000I635000J0D01*
G01*
X93737000Y-202165500D02*
X93737000Y-205186500D01*
X75685000Y-198231000D02*
G75*
G03*
X73145000Y-198231000I-1270000J0D01*
G01*
X71475000Y-159131000D02*
X73145000Y-159131000D01*
X107918000Y-160401000D02*
G75*
G03*
X107283000Y-161036000I0J-635000D01*
G01*
X155885000Y-178181000D02*
G75*
G03*
X153345000Y-178181000I-1270000J0D01*
G01*
X117289000Y-202165500D02*
X113787000Y-202165500D01*
X123158000Y-196961000D02*
X121888000Y-196961000D01*
X125063000Y-245046000D02*
G75*
G03*
X124428000Y-244411000I-635000J0D01*
G01*
X84963000Y-204946000D02*
X85963000Y-204946000D01*
X106648000Y-224361000D02*
G75*
G03*
X106013000Y-224996000I0J-635000D01*
G01*
X143843000Y-236426000D02*
X143843000Y-233886000D01*
X65913000Y-172466000D02*
X65925000Y-171375000D01*
X129238000Y-240601000D02*
G75*
G03*
X129873000Y-239966000I0J635000D01*
G01*
X123158000Y-196961000D02*
G75*
G03*
X123793000Y-196326000I0J635000D01*
G01*
X160718000Y-178181000D02*
X160718000Y-179181000D01*
X110458000Y-199231000D02*
G75*
G03*
X109823000Y-199866000I0J-635000D01*
G01*
X145113000Y-167386000D02*
G75*
G03*
X145113000Y-169926000I0J-1270000D01*
G01*
X149923000Y-197596000D02*
G75*
G03*
X149288000Y-196961000I-635000J0D01*
G01*
X70358000Y-199231000D02*
G75*
G03*
X69723000Y-199866000I0J-635000D01*
G01*
X107918000Y-200501000D02*
X109188000Y-200501000D01*
X113787000Y-182115500D02*
X113787000Y-185136500D01*
X83693000Y-216376000D02*
X83693000Y-213836000D01*
X147383000Y-241236000D02*
X147383000Y-243776000D01*
X123793000Y-161036000D02*
G75*
G03*
X123158000Y-160401000I-635000J0D01*
G01*
X147383000Y-161036000D02*
X147383000Y-163576000D01*
X127333000Y-233886000D02*
X127333000Y-236426000D01*
X97239000Y-222215500D02*
X93737000Y-222215500D01*
X84328000Y-193151000D02*
G75*
G03*
X83693000Y-193786000I0J-635000D01*
G01*
X130508000Y-239331000D02*
G75*
G03*
X129873000Y-239966000I0J-635000D01*
G01*
X121888000Y-180451000D02*
X123158000Y-180451000D01*
X87868000Y-220551000D02*
X89138000Y-220551000D01*
X161353000Y-199866000D02*
G75*
G03*
X160718000Y-199231000I-635000J0D01*
G01*
X126063000Y-172466000D02*
G75*
G03*
X126698000Y-173101000I635000J0D01*
G01*
X146748000Y-244411000D02*
G75*
G03*
X147383000Y-243776000I0J635000D01*
G01*
X90408000Y-159131000D02*
X91525000Y-159131000D01*
X66548000Y-244411000D02*
G75*
G03*
X65913000Y-245046000I0J-635000D01*
G01*
X73145000Y-199231000D02*
G75*
G03*
X75685000Y-199231000I1270000J0D01*
G01*
X144478000Y-233251000D02*
G75*
G03*
X145113000Y-232616000I0J635000D01*
G01*
X109823000Y-217646000D02*
G75*
G03*
X109188000Y-217011000I-635000J0D01*
G01*
X65913000Y-246175000D02*
X65913000Y-245046000D01*
X125063000Y-232616000D02*
X126063000Y-232616000D01*
X161353000Y-159766000D02*
G75*
G03*
X160718000Y-159131000I-635000J0D01*
G01*
X113787000Y-222215500D02*
X113787000Y-225236500D01*
X123793000Y-216376000D02*
X123793000Y-213836000D01*
X160718000Y-198231000D02*
G75*
G03*
X161353000Y-197596000I0J635000D01*
G01*
X86598000Y-184261000D02*
G75*
G03*
X87233000Y-183626000I0J635000D01*
G01*
X104378000Y-193151000D02*
G75*
G03*
X105013000Y-192516000I0J635000D01*
G01*
X65913000Y-232616000D02*
X65925000Y-231525000D01*
X93195000Y-179181000D02*
G75*
G03*
X95735000Y-179181000I1270000J0D01*
G01*
X123158000Y-237061000D02*
G75*
G03*
X123793000Y-236426000I0J635000D01*
G01*
X84963000Y-164846000D02*
G75*
G03*
X84328000Y-164211000I-635000J0D01*
G01*
X70358000Y-178181000D02*
X70358000Y-179181000D01*
X77189000Y-245286500D02*
X77189000Y-242265500D01*
X104378000Y-233251000D02*
G75*
G03*
X103743000Y-233886000I0J-635000D01*
G01*
X153887000Y-242265500D02*
X153887000Y-245286500D01*
X87868000Y-217011000D02*
X89138000Y-217011000D01*
X163258000Y-176911000D02*
X161988000Y-176911000D01*
X87233000Y-201136000D02*
X87233000Y-203676000D01*
X150558000Y-178181000D02*
X150558000Y-179181000D01*
X147383000Y-216376000D02*
G75*
G03*
X148018000Y-217011000I635000J0D01*
G01*
X146748000Y-184261000D02*
G75*
G03*
X146113000Y-184896000I0J-635000D01*
G01*
X77189000Y-182115500D02*
X73687000Y-182115500D01*
X133295000Y-258381000D02*
X131625000Y-258381000D01*
X137339000Y-202165500D02*
X133837000Y-202165500D01*
X77189000Y-202165500D02*
X73687000Y-202165500D01*
X121253000Y-159766000D02*
G75*
G03*
X120618000Y-159131000I-635000J0D01*
G01*
X125063000Y-212566000D02*
X126063000Y-212566000D01*
X104378000Y-213201000D02*
G75*
G03*
X105013000Y-212566000I0J635000D01*
G01*
X124428000Y-213201000D02*
G75*
G03*
X125063000Y-212566000I0J635000D01*
G01*
X97239000Y-242265500D02*
X93737000Y-242265500D01*
X155885000Y-258381000D02*
X159775000Y-258375000D01*
X81153000Y-159766000D02*
G75*
G03*
X81788000Y-160401000I635000J0D01*
G01*
X87233000Y-233886000D02*
X87233000Y-236426000D01*
X101203000Y-219916000D02*
G75*
G03*
X100568000Y-219281000I-635000J0D01*
G01*
X80518000Y-218281000D02*
X80518000Y-219281000D01*
X107283000Y-193786000D02*
G75*
G03*
X106648000Y-193151000I-635000J0D01*
G01*
X148018000Y-217011000D02*
X149288000Y-217011000D01*
X135835000Y-218281000D02*
G75*
G03*
X133295000Y-218281000I-1270000J0D01*
G01*
X148018000Y-200501000D02*
X149288000Y-200501000D01*
X65913000Y-212566000D02*
G75*
G03*
X66548000Y-213201000I635000J0D01*
G01*
X163893000Y-223726000D02*
G75*
G03*
X164528000Y-224361000I635000J0D01*
G01*
X69088000Y-220551000D02*
G75*
G03*
X69723000Y-219916000I0J635000D01*
G01*
X129873000Y-237696000D02*
G75*
G03*
X130508000Y-238331000I635000J0D01*
G01*
X143208000Y-257111000D02*
X141938000Y-257111000D01*
X153345000Y-179181000D02*
G75*
G03*
X155885000Y-179181000I1270000J0D01*
G01*
X149923000Y-257746000D02*
G75*
G03*
X149288000Y-257111000I-635000J0D01*
G01*
X164528000Y-213201000D02*
G75*
G03*
X165163000Y-212566000I0J635000D01*
G01*
X93737000Y-165086500D02*
X97239000Y-165086500D01*
X75685000Y-258381000D02*
X79575000Y-258375000D01*
X87868000Y-237061000D02*
X89138000Y-237061000D01*
X133295000Y-179181000D02*
G75*
G03*
X135835000Y-179181000I1270000J0D01*
G01*
X129873000Y-197596000D02*
G75*
G03*
X129238000Y-196961000I-635000J0D01*
G01*
X143843000Y-241236000D02*
X143843000Y-243776000D01*
X107918000Y-196961000D02*
X109188000Y-196961000D01*
X145113000Y-212566000D02*
X146113000Y-212566000D01*
X97239000Y-202165500D02*
X93737000Y-202165500D01*
X143843000Y-163576000D02*
G75*
G03*
X144478000Y-164211000I635000J0D01*
G01*
X143843000Y-196326000D02*
X143843000Y-193786000D01*
X149288000Y-180451000D02*
G75*
G03*
X149923000Y-179816000I0J635000D01*
G01*
X143208000Y-196961000D02*
G75*
G03*
X143843000Y-196326000I0J635000D01*
G01*
X107918000Y-220551000D02*
X109188000Y-220551000D01*
X93195000Y-239331000D02*
G75*
G03*
X95735000Y-239331000I1270000J0D01*
G01*
X146113000Y-250126000D02*
G75*
G03*
X146113000Y-247586000I0J1270000D01*
G01*
X110458000Y-159131000D02*
X111575000Y-159131000D01*
X105013000Y-167386000D02*
G75*
G03*
X105013000Y-169926000I0J-1270000D01*
G01*
X81153000Y-239966000D02*
G75*
G03*
X80518000Y-239331000I-635000J0D01*
G01*
X145113000Y-184896000D02*
X146113000Y-184896000D01*
X123158000Y-237061000D02*
X121888000Y-237061000D01*
X157389000Y-245286500D02*
X157389000Y-242265500D01*
X67183000Y-173736000D02*
G75*
G03*
X66548000Y-173101000I-635000J0D01*
G01*
X81788000Y-196961000D02*
G75*
G03*
X81153000Y-197596000I0J-635000D01*
G01*
X73687000Y-225236500D02*
X77189000Y-225236500D01*
X143208000Y-217011000D02*
G75*
G03*
X143843000Y-216376000I0J635000D01*
G01*
X84963000Y-245046000D02*
G75*
G03*
X84328000Y-244411000I-635000J0D01*
G01*
X93737000Y-242265500D02*
X93737000Y-245286500D01*
X121253000Y-239966000D02*
G75*
G03*
X121888000Y-240601000I635000J0D01*
G01*
X75685000Y-218281000D02*
G75*
G03*
X73145000Y-218281000I-1270000J0D01*
G01*
X126698000Y-224361000D02*
G75*
G03*
X126063000Y-224996000I0J-635000D01*
G01*
X106013000Y-252666000D02*
G75*
G03*
X106648000Y-253301000I635000J0D01*
G01*
X87233000Y-181086000D02*
X87233000Y-183626000D01*
X107283000Y-173736000D02*
X107283000Y-176276000D01*
X93195000Y-258381000D02*
X91525000Y-258381000D01*
X121253000Y-239966000D02*
G75*
G03*
X120618000Y-239331000I-635000J0D01*
G01*
X109188000Y-240601000D02*
G75*
G03*
X109823000Y-239966000I0J635000D01*
G01*
X101203000Y-179816000D02*
G75*
G03*
X100568000Y-179181000I-635000J0D01*
G01*
X150558000Y-239331000D02*
G75*
G03*
X149923000Y-239966000I0J-635000D01*
G01*
X120618000Y-159131000D02*
X119675000Y-159131000D01*
X70358000Y-238331000D02*
X70358000Y-239331000D01*
X107918000Y-200501000D02*
G75*
G03*
X107283000Y-201136000I0J-635000D01*
G01*
X135835000Y-178181000D02*
G75*
G03*
X133295000Y-178181000I-1270000J0D01*
G01*
X141303000Y-199866000D02*
G75*
G03*
X141938000Y-200501000I635000J0D01*
G01*
X163893000Y-201136000D02*
X163893000Y-203676000D01*
X80518000Y-218281000D02*
G75*
G03*
X81153000Y-217646000I0J635000D01*
G01*
X145113000Y-252666000D02*
X146113000Y-252666000D01*
X126698000Y-164211000D02*
G75*
G03*
X127333000Y-163576000I0J635000D01*
G01*
X77189000Y-222215500D02*
X73687000Y-222215500D01*
X123793000Y-183626000D02*
G75*
G03*
X124428000Y-184261000I635000J0D01*
G01*
X163893000Y-161036000D02*
X163893000Y-163576000D01*
X150558000Y-219281000D02*
G75*
G03*
X149923000Y-219916000I0J-635000D01*
G01*
X126063000Y-212566000D02*
G75*
G03*
X126698000Y-213201000I635000J0D01*
G01*
X129873000Y-237696000D02*
G75*
G03*
X129238000Y-237061000I-635000J0D01*
G01*
X103743000Y-241236000D02*
X103743000Y-243776000D01*
X163258000Y-217011000D02*
X161988000Y-217011000D01*
X153345000Y-219281000D02*
G75*
G03*
X155885000Y-219281000I1270000J0D01*
G01*
X129873000Y-177546000D02*
G75*
G03*
X129238000Y-176911000I-635000J0D01*
G01*
X87868000Y-200501000D02*
G75*
G03*
X87233000Y-201136000I0J-635000D01*
G01*
X87868000Y-200501000D02*
X89138000Y-200501000D01*
X90408000Y-198231000D02*
X90408000Y-199231000D01*
X97239000Y-245286500D02*
X97239000Y-242265500D01*
X101838000Y-237061000D02*
G75*
G03*
X101203000Y-237696000I0J-635000D01*
G01*
X66548000Y-244411000D02*
G75*
G03*
X67183000Y-243776000I0J635000D01*
G01*
X85963000Y-172466000D02*
G75*
G03*
X86598000Y-173101000I635000J0D01*
G01*
X81153000Y-199866000D02*
G75*
G03*
X81788000Y-200501000I635000J0D01*
G01*
X100568000Y-238331000D02*
G75*
G03*
X101203000Y-237696000I0J635000D01*
G01*
X65913000Y-230076000D02*
X65925000Y-231525000D01*
X115785000Y-258381000D02*
X119675000Y-258375000D01*
X120618000Y-218281000D02*
X120618000Y-219281000D01*
X105013000Y-224996000D02*
G75*
G03*
X104378000Y-224361000I-635000J0D01*
G01*
X89773000Y-217646000D02*
G75*
G03*
X89138000Y-217011000I-635000J0D01*
G01*
X126063000Y-189976000D02*
G75*
G03*
X126063000Y-187436000I0J1270000D01*
G01*
X101838000Y-180451000D02*
X103108000Y-180451000D01*
X165163000Y-189976000D02*
X165175000Y-191425000D01*
X95735000Y-198231000D02*
G75*
G03*
X93195000Y-198231000I-1270000J0D01*
G01*
X165163000Y-227536000D02*
X165175000Y-226125000D01*
X146113000Y-252666000D02*
G75*
G03*
X146748000Y-253301000I635000J0D01*
G01*
X73687000Y-222215500D02*
X73687000Y-225236500D01*
X153345000Y-159131000D02*
G75*
G03*
X155885000Y-159131000I1270000J0D01*
G01*
X160718000Y-198231000D02*
X160718000Y-199231000D01*
X105013000Y-245046000D02*
X106013000Y-245046000D01*
X107283000Y-201136000D02*
X107283000Y-203676000D01*
X125063000Y-184896000D02*
G75*
G03*
X124428000Y-184261000I-635000J0D01*
G01*
X101203000Y-199866000D02*
G75*
G03*
X101838000Y-200501000I635000J0D01*
G01*
X81153000Y-219916000D02*
G75*
G03*
X81788000Y-220551000I635000J0D01*
G01*
X147383000Y-193786000D02*
G75*
G03*
X146748000Y-193151000I-635000J0D01*
G01*
X86598000Y-224361000D02*
G75*
G03*
X87233000Y-223726000I0J635000D01*
G01*
X84963000Y-227536000D02*
G75*
G03*
X84963000Y-230076000I0J-1270000D01*
G01*
X146113000Y-232616000D02*
G75*
G03*
X146748000Y-233251000I635000J0D01*
G01*
X127968000Y-160401000D02*
G75*
G03*
X127333000Y-161036000I0J-635000D01*
G01*
X163893000Y-176276000D02*
X163893000Y-173736000D01*
X125063000Y-192516000D02*
X126063000Y-192516000D01*
X145113000Y-172466000D02*
X146113000Y-172466000D01*
X126698000Y-244411000D02*
G75*
G03*
X127333000Y-243776000I0J635000D01*
G01*
X66548000Y-224361000D02*
G75*
G03*
X65913000Y-224996000I0J-635000D01*
G01*
X80518000Y-258381000D02*
G75*
G03*
X81153000Y-257746000I0J635000D01*
G01*
X125063000Y-227536000D02*
G75*
G03*
X125063000Y-230076000I0J-1270000D01*
G01*
X84328000Y-253301000D02*
G75*
G03*
X84963000Y-252666000I0J635000D01*
G01*
X135835000Y-198231000D02*
G75*
G03*
X133295000Y-198231000I-1270000J0D01*
G01*
X129873000Y-197596000D02*
G75*
G03*
X130508000Y-198231000I635000J0D01*
G01*
X146748000Y-184261000D02*
G75*
G03*
X147383000Y-183626000I0J635000D01*
G01*
X115785000Y-238331000D02*
G75*
G03*
X113245000Y-238331000I-1270000J0D01*
G01*
X105013000Y-207486000D02*
G75*
G03*
X105013000Y-210026000I0J-1270000D01*
G01*
X84963000Y-192516000D02*
X85963000Y-192516000D01*
X101203000Y-159766000D02*
G75*
G03*
X101838000Y-160401000I635000J0D01*
G01*
X161353000Y-199866000D02*
G75*
G03*
X161988000Y-200501000I635000J0D01*
G01*
X105013000Y-204946000D02*
G75*
G03*
X104378000Y-204311000I-635000J0D01*
G01*
X165163000Y-167386000D02*
X165175000Y-165975000D01*
X75685000Y-258381000D02*
G75*
G03*
X73145000Y-258381000I-1270000J0D01*
G01*
X140668000Y-178181000D02*
G75*
G03*
X141303000Y-177546000I0J635000D01*
G01*
X87868000Y-257111000D02*
X89138000Y-257111000D01*
X113787000Y-185136500D02*
X117289000Y-185136500D01*
X100568000Y-178181000D02*
X100568000Y-179181000D01*
X80518000Y-178181000D02*
X80518000Y-179181000D01*
X110458000Y-218281000D02*
X110458000Y-219281000D01*
X147383000Y-173736000D02*
G75*
G03*
X146748000Y-173101000I-635000J0D01*
G01*
X135835000Y-258381000D02*
X139725000Y-258375000D01*
X157389000Y-222215500D02*
X153887000Y-222215500D01*
X120618000Y-178181000D02*
X120618000Y-179181000D01*
X73687000Y-202165500D02*
X73687000Y-205186500D01*
X109823000Y-257746000D02*
G75*
G03*
X110458000Y-258381000I635000J0D01*
G01*
X147383000Y-253936000D02*
X147383000Y-256476000D01*
X89773000Y-237696000D02*
G75*
G03*
X90408000Y-238331000I635000J0D01*
G01*
X105013000Y-184896000D02*
X106013000Y-184896000D01*
X145113000Y-227536000D02*
G75*
G03*
X145113000Y-230076000I0J-1270000D01*
G01*
X100568000Y-159131000D02*
X99625000Y-159131000D01*
X65913000Y-172466000D02*
G75*
G03*
X66548000Y-173101000I635000J0D01*
G01*
X105013000Y-232616000D02*
X106013000Y-232616000D01*
X127333000Y-193786000D02*
G75*
G03*
X126698000Y-193151000I-635000J0D01*
G01*
X85963000Y-212566000D02*
G75*
G03*
X86598000Y-213201000I635000J0D01*
G01*
X121888000Y-220551000D02*
X123158000Y-220551000D01*
X144478000Y-253301000D02*
G75*
G03*
X143843000Y-253936000I0J-635000D01*
G01*
X149288000Y-220551000D02*
G75*
G03*
X149923000Y-219916000I0J635000D01*
G01*
X146748000Y-204311000D02*
G75*
G03*
X147383000Y-203676000I0J635000D01*
G01*
X107918000Y-176911000D02*
X109188000Y-176911000D01*
X66548000Y-184261000D02*
G75*
G03*
X67183000Y-183626000I0J635000D01*
G01*
X103743000Y-176276000D02*
X103743000Y-173736000D01*
X117289000Y-222215500D02*
X113787000Y-222215500D01*
X65913000Y-167386000D02*
X65913000Y-165975000D01*
X161353000Y-239966000D02*
G75*
G03*
X160718000Y-239331000I-635000J0D01*
G01*
X65913000Y-252666000D02*
X65925000Y-251575000D01*
X133295000Y-239331000D02*
G75*
G03*
X135835000Y-239331000I1270000J0D01*
G01*
X87233000Y-241236000D02*
X87233000Y-243776000D01*
X87868000Y-176911000D02*
X89138000Y-176911000D01*
X143843000Y-161036000D02*
X143843000Y-163576000D01*
X165163000Y-184896000D02*
X165175000Y-186025000D01*
X111575000Y-159131000D02*
X113245000Y-159131000D01*
X143843000Y-181086000D02*
G75*
G03*
X143208000Y-180451000I-635000J0D01*
G01*
X133837000Y-222215500D02*
X133837000Y-225236500D01*
X147383000Y-173736000D02*
X147383000Y-176276000D01*
X66548000Y-164211000D02*
G75*
G03*
X65913000Y-164846000I0J-635000D01*
G01*
X123158000Y-176911000D02*
G75*
G03*
X123793000Y-176276000I0J635000D01*
G01*
X165163000Y-192516000D02*
X165175000Y-191425000D01*
X101838000Y-257111000D02*
G75*
G03*
X101203000Y-257746000I0J-635000D01*
G01*
X140668000Y-218281000D02*
X140668000Y-219281000D01*
X100568000Y-258381000D02*
X99625000Y-258375000D01*
X126698000Y-204311000D02*
G75*
G03*
X126063000Y-204946000I0J-635000D01*
G01*
X84963000Y-207486000D02*
G75*
G03*
X84963000Y-210026000I0J-1270000D01*
G01*
X147383000Y-221186000D02*
X147383000Y-223726000D01*
X155885000Y-198231000D02*
G75*
G03*
X153345000Y-198231000I-1270000J0D01*
G01*
X124428000Y-213201000D02*
G75*
G03*
X123793000Y-213836000I0J-635000D01*
G01*
X149288000Y-240601000D02*
G75*
G03*
X149923000Y-239966000I0J635000D01*
G01*
X69723000Y-197596000D02*
G75*
G03*
X69088000Y-196961000I-635000J0D01*
G01*
X103743000Y-201136000D02*
X103743000Y-203676000D01*
X124428000Y-253301000D02*
G75*
G03*
X123793000Y-253936000I0J-635000D01*
G01*
X70358000Y-198231000D02*
X70358000Y-199231000D01*
X95735000Y-238331000D02*
G75*
G03*
X93195000Y-238331000I-1270000J0D01*
G01*
X146748000Y-164211000D02*
G75*
G03*
X146113000Y-164846000I0J-635000D01*
G01*
X146113000Y-169926000D02*
G75*
G03*
X146113000Y-167386000I0J1270000D01*
G01*
X80518000Y-238331000D02*
X80518000Y-239331000D01*
X151675000Y-159131000D02*
X153345000Y-159131000D01*
X147383000Y-236426000D02*
G75*
G03*
X148018000Y-237061000I635000J0D01*
G01*
X115785000Y-218281000D02*
G75*
G03*
X113245000Y-218281000I-1270000J0D01*
G01*
X140668000Y-238331000D02*
X140668000Y-239331000D01*
X147383000Y-233886000D02*
G75*
G03*
X146748000Y-233251000I-635000J0D01*
G01*
X129238000Y-220551000D02*
G75*
G03*
X129873000Y-219916000I0J635000D01*
G01*
X143843000Y-256476000D02*
X143843000Y-253936000D01*
X81788000Y-237061000D02*
G75*
G03*
X81153000Y-237696000I0J-635000D01*
G01*
X161353000Y-179816000D02*
G75*
G03*
X161988000Y-180451000I635000J0D01*
G01*
X165163000Y-247586000D02*
G75*
G03*
X165163000Y-250126000I0J-1270000D01*
G01*
X130508000Y-199231000D02*
G75*
G03*
X129873000Y-199866000I0J-635000D01*
G01*
X113787000Y-165086500D02*
X117289000Y-165086500D01*
X165163000Y-187436000D02*
G75*
G03*
X165163000Y-189976000I0J-1270000D01*
G01*
X75685000Y-159131000D02*
X79575000Y-159131000D01*
X163893000Y-243776000D02*
G75*
G03*
X164528000Y-244411000I635000J0D01*
G01*
X87233000Y-213836000D02*
G75*
G03*
X86598000Y-213201000I-635000J0D01*
G01*
X73145000Y-258381000D02*
X71475000Y-258381000D01*
X137339000Y-242265500D02*
X133837000Y-242265500D01*
X120618000Y-198231000D02*
X120618000Y-199231000D01*
X148018000Y-220551000D02*
G75*
G03*
X147383000Y-221186000I0J-635000D01*
G01*
X101838000Y-196961000D02*
G75*
G03*
X101203000Y-197596000I0J-635000D01*
G01*
X100568000Y-198231000D02*
X100568000Y-199231000D01*
X103743000Y-216376000D02*
X103743000Y-213836000D01*
X120618000Y-258381000D02*
X119675000Y-258375000D01*
X143208000Y-176911000D02*
X141938000Y-176911000D01*
X144478000Y-253301000D02*
G75*
G03*
X145113000Y-252666000I0J635000D01*
G01*
X164528000Y-253301000D02*
G75*
G03*
X163893000Y-253936000I0J-635000D01*
G01*
X87868000Y-240601000D02*
X89138000Y-240601000D01*
X143843000Y-183626000D02*
G75*
G03*
X144478000Y-184261000I635000J0D01*
G01*
X161988000Y-257111000D02*
G75*
G03*
X161353000Y-257746000I0J-635000D01*
G01*
X164528000Y-193151000D02*
G75*
G03*
X163893000Y-193786000I0J-635000D01*
G01*
X81153000Y-219916000D02*
G75*
G03*
X80518000Y-219281000I-635000J0D01*
G01*
X85963000Y-189976000D02*
G75*
G03*
X85963000Y-187436000I0J1270000D01*
G01*
X103743000Y-221186000D02*
X103743000Y-223726000D01*
X121253000Y-179816000D02*
G75*
G03*
X120618000Y-179181000I-635000J0D01*
G01*
X135835000Y-258381000D02*
G75*
G03*
X133295000Y-258381000I-1270000J0D01*
G01*
X83693000Y-203676000D02*
G75*
G03*
X84328000Y-204311000I635000J0D01*
G01*
X126063000Y-250126000D02*
G75*
G03*
X126063000Y-247586000I0J1270000D01*
G01*
M02*
