G04 #@! TF.GenerationSoftware,KiCad,Pcbnew,(6.0.4-0)*
G04 #@! TF.CreationDate,2022-05-03T13:04:23-07:00*
G04 #@! TF.ProjectId,amoeba-king,616d6f65-6261-42d6-9b69-6e672e6b6963,rev?*
G04 #@! TF.SameCoordinates,Original*
G04 #@! TF.FileFunction,Legend,Top*
G04 #@! TF.FilePolarity,Positive*
%FSLAX46Y46*%
G04 Gerber Fmt 4.6, Leading zero omitted, Abs format (unit mm)*
G04 Created by KiCad (PCBNEW (6.0.4-0)) date 2022-05-03 13:04:23*
%MOMM*%
%LPD*%
G01*
G04 APERTURE LIST*
%ADD10C,0.100000*%
%ADD11C,0.150000*%
%ADD12C,0.158750*%
G04 APERTURE END LIST*
D10*
G36*
X77698600Y-165481000D02*
G01*
X77317600Y-165481000D01*
X77698600Y-165100000D01*
X77698600Y-165481000D01*
G37*
X77698600Y-165481000D02*
X77317600Y-165481000D01*
X77698600Y-165100000D01*
X77698600Y-165481000D01*
G36*
X137848600Y-225631000D02*
G01*
X137467600Y-225631000D01*
X137848600Y-225250000D01*
X137848600Y-225631000D01*
G37*
X137848600Y-225631000D02*
X137467600Y-225631000D01*
X137848600Y-225250000D01*
X137848600Y-225631000D01*
G36*
X97748600Y-245681000D02*
G01*
X97367600Y-245681000D01*
X97748600Y-245300000D01*
X97748600Y-245681000D01*
G37*
X97748600Y-245681000D02*
X97367600Y-245681000D01*
X97748600Y-245300000D01*
X97748600Y-245681000D01*
G36*
X157898600Y-225631000D02*
G01*
X157517600Y-225631000D01*
X157898600Y-225250000D01*
X157898600Y-225631000D01*
G37*
X157898600Y-225631000D02*
X157517600Y-225631000D01*
X157898600Y-225250000D01*
X157898600Y-225631000D01*
G36*
X157898600Y-245681000D02*
G01*
X157517600Y-245681000D01*
X157898600Y-245300000D01*
X157898600Y-245681000D01*
G37*
X157898600Y-245681000D02*
X157517600Y-245681000D01*
X157898600Y-245300000D01*
X157898600Y-245681000D01*
G36*
X97748600Y-225631000D02*
G01*
X97367600Y-225631000D01*
X97748600Y-225250000D01*
X97748600Y-225631000D01*
G37*
X97748600Y-225631000D02*
X97367600Y-225631000D01*
X97748600Y-225250000D01*
X97748600Y-225631000D01*
G36*
X97748600Y-205581000D02*
G01*
X97367600Y-205581000D01*
X97748600Y-205200000D01*
X97748600Y-205581000D01*
G37*
X97748600Y-205581000D02*
X97367600Y-205581000D01*
X97748600Y-205200000D01*
X97748600Y-205581000D01*
G36*
X97748600Y-185531000D02*
G01*
X97367600Y-185531000D01*
X97748600Y-185150000D01*
X97748600Y-185531000D01*
G37*
X97748600Y-185531000D02*
X97367600Y-185531000D01*
X97748600Y-185150000D01*
X97748600Y-185531000D01*
G36*
X117798600Y-225631000D02*
G01*
X117417600Y-225631000D01*
X117798600Y-225250000D01*
X117798600Y-225631000D01*
G37*
X117798600Y-225631000D02*
X117417600Y-225631000D01*
X117798600Y-225250000D01*
X117798600Y-225631000D01*
G36*
X117798600Y-245681000D02*
G01*
X117417600Y-245681000D01*
X117798600Y-245300000D01*
X117798600Y-245681000D01*
G37*
X117798600Y-245681000D02*
X117417600Y-245681000D01*
X117798600Y-245300000D01*
X117798600Y-245681000D01*
G36*
X117798600Y-205581000D02*
G01*
X117417600Y-205581000D01*
X117798600Y-205200000D01*
X117798600Y-205581000D01*
G37*
X117798600Y-205581000D02*
X117417600Y-205581000D01*
X117798600Y-205200000D01*
X117798600Y-205581000D01*
G36*
X117798600Y-185531000D02*
G01*
X117417600Y-185531000D01*
X117798600Y-185150000D01*
X117798600Y-185531000D01*
G37*
X117798600Y-185531000D02*
X117417600Y-185531000D01*
X117798600Y-185150000D01*
X117798600Y-185531000D01*
G36*
X137848600Y-185531000D02*
G01*
X137467600Y-185531000D01*
X137848600Y-185150000D01*
X137848600Y-185531000D01*
G37*
X137848600Y-185531000D02*
X137467600Y-185531000D01*
X137848600Y-185150000D01*
X137848600Y-185531000D01*
G36*
X137848600Y-245681000D02*
G01*
X137467600Y-245681000D01*
X137848600Y-245300000D01*
X137848600Y-245681000D01*
G37*
X137848600Y-245681000D02*
X137467600Y-245681000D01*
X137848600Y-245300000D01*
X137848600Y-245681000D01*
G36*
X77698600Y-205481000D02*
G01*
X77317600Y-205481000D01*
X77698600Y-205100000D01*
X77698600Y-205481000D01*
G37*
X77698600Y-205481000D02*
X77317600Y-205481000D01*
X77698600Y-205100000D01*
X77698600Y-205481000D01*
G36*
X77698600Y-225481000D02*
G01*
X77317600Y-225481000D01*
X77698600Y-225100000D01*
X77698600Y-225481000D01*
G37*
X77698600Y-225481000D02*
X77317600Y-225481000D01*
X77698600Y-225100000D01*
X77698600Y-225481000D01*
G36*
X157898600Y-205581000D02*
G01*
X157517600Y-205581000D01*
X157898600Y-205200000D01*
X157898600Y-205581000D01*
G37*
X157898600Y-205581000D02*
X157517600Y-205581000D01*
X157898600Y-205200000D01*
X157898600Y-205581000D01*
G36*
X77698600Y-245681000D02*
G01*
X77317600Y-245681000D01*
X77698600Y-245300000D01*
X77698600Y-245681000D01*
G37*
X77698600Y-245681000D02*
X77317600Y-245681000D01*
X77698600Y-245300000D01*
X77698600Y-245681000D01*
G36*
X97748600Y-165481000D02*
G01*
X97367600Y-165481000D01*
X97748600Y-165100000D01*
X97748600Y-165481000D01*
G37*
X97748600Y-165481000D02*
X97367600Y-165481000D01*
X97748600Y-165100000D01*
X97748600Y-165481000D01*
G36*
X157898600Y-165481000D02*
G01*
X157517600Y-165481000D01*
X157898600Y-165100000D01*
X157898600Y-165481000D01*
G37*
X157898600Y-165481000D02*
X157517600Y-165481000D01*
X157898600Y-165100000D01*
X157898600Y-165481000D01*
G36*
X77698600Y-245481000D02*
G01*
X77317600Y-245481000D01*
X77698600Y-245100000D01*
X77698600Y-245481000D01*
G37*
X77698600Y-245481000D02*
X77317600Y-245481000D01*
X77698600Y-245100000D01*
X77698600Y-245481000D01*
G36*
X77698600Y-225631000D02*
G01*
X77317600Y-225631000D01*
X77698600Y-225250000D01*
X77698600Y-225631000D01*
G37*
X77698600Y-225631000D02*
X77317600Y-225631000D01*
X77698600Y-225250000D01*
X77698600Y-225631000D01*
G36*
X77698600Y-185531000D02*
G01*
X77317600Y-185531000D01*
X77698600Y-185150000D01*
X77698600Y-185531000D01*
G37*
X77698600Y-185531000D02*
X77317600Y-185531000D01*
X77698600Y-185150000D01*
X77698600Y-185531000D01*
G36*
X137848600Y-165481000D02*
G01*
X137467600Y-165481000D01*
X137848600Y-165100000D01*
X137848600Y-165481000D01*
G37*
X137848600Y-165481000D02*
X137467600Y-165481000D01*
X137848600Y-165100000D01*
X137848600Y-165481000D01*
G36*
X77698600Y-205581000D02*
G01*
X77317600Y-205581000D01*
X77698600Y-205200000D01*
X77698600Y-205581000D01*
G37*
X77698600Y-205581000D02*
X77317600Y-205581000D01*
X77698600Y-205200000D01*
X77698600Y-205581000D01*
G36*
X157898600Y-185531000D02*
G01*
X157517600Y-185531000D01*
X157898600Y-185150000D01*
X157898600Y-185531000D01*
G37*
X157898600Y-185531000D02*
X157517600Y-185531000D01*
X157898600Y-185150000D01*
X157898600Y-185531000D01*
G36*
X137848600Y-205581000D02*
G01*
X137467600Y-205581000D01*
X137848600Y-205200000D01*
X137848600Y-205581000D01*
G37*
X137848600Y-205581000D02*
X137467600Y-205581000D01*
X137848600Y-205200000D01*
X137848600Y-205581000D01*
G36*
X117798600Y-165481000D02*
G01*
X117417600Y-165481000D01*
X117798600Y-165100000D01*
X117798600Y-165481000D01*
G37*
X117798600Y-165481000D02*
X117417600Y-165481000D01*
X117798600Y-165100000D01*
X117798600Y-165481000D01*
D11*
X77656766Y-175279033D02*
X77990100Y-175279033D01*
X77590100Y-175507604D02*
X77823433Y-174707604D01*
X78056766Y-175507604D01*
X78290100Y-175507604D02*
X78290100Y-174974271D01*
X78290100Y-175050461D02*
X78323433Y-175012366D01*
X78390100Y-174974271D01*
X78490100Y-174974271D01*
X78556766Y-175012366D01*
X78590100Y-175088557D01*
X78590100Y-175507604D01*
X78590100Y-175088557D02*
X78623433Y-175012366D01*
X78690100Y-174974271D01*
X78790100Y-174974271D01*
X78856766Y-175012366D01*
X78890100Y-175088557D01*
X78890100Y-175507604D01*
X79323433Y-175507604D02*
X79256766Y-175469509D01*
X79223433Y-175431414D01*
X79190100Y-175355223D01*
X79190100Y-175126652D01*
X79223433Y-175050461D01*
X79256766Y-175012366D01*
X79323433Y-174974271D01*
X79423433Y-174974271D01*
X79490100Y-175012366D01*
X79523433Y-175050461D01*
X79556766Y-175126652D01*
X79556766Y-175355223D01*
X79523433Y-175431414D01*
X79490100Y-175469509D01*
X79423433Y-175507604D01*
X79323433Y-175507604D01*
X80123433Y-175469509D02*
X80056766Y-175507604D01*
X79923433Y-175507604D01*
X79856766Y-175469509D01*
X79823433Y-175393319D01*
X79823433Y-175088557D01*
X79856766Y-175012366D01*
X79923433Y-174974271D01*
X80056766Y-174974271D01*
X80123433Y-175012366D01*
X80156766Y-175088557D01*
X80156766Y-175164747D01*
X79823433Y-175240938D01*
X80456766Y-175507604D02*
X80456766Y-174707604D01*
X80456766Y-175012366D02*
X80523433Y-174974271D01*
X80656766Y-174974271D01*
X80723433Y-175012366D01*
X80756766Y-175050461D01*
X80790100Y-175126652D01*
X80790100Y-175355223D01*
X80756766Y-175431414D01*
X80723433Y-175469509D01*
X80656766Y-175507604D01*
X80523433Y-175507604D01*
X80456766Y-175469509D01*
X81390100Y-175507604D02*
X81390100Y-175088557D01*
X81356766Y-175012366D01*
X81290100Y-174974271D01*
X81156766Y-174974271D01*
X81090100Y-175012366D01*
X81390100Y-175469509D02*
X81323433Y-175507604D01*
X81156766Y-175507604D01*
X81090100Y-175469509D01*
X81056766Y-175393319D01*
X81056766Y-175317128D01*
X81090100Y-175240938D01*
X81156766Y-175202842D01*
X81323433Y-175202842D01*
X81390100Y-175164747D01*
D12*
X67589456Y-176051028D02*
X67687730Y-176474361D01*
X67891837Y-176051028D01*
X68413444Y-176474361D02*
X68050587Y-176474361D01*
X68232016Y-176474361D02*
X68311391Y-175839361D01*
X68239575Y-175930076D01*
X68171540Y-175990552D01*
X68107284Y-176020790D01*
X68693147Y-176413885D02*
X68719605Y-176444123D01*
X68685587Y-176474361D01*
X68659129Y-176444123D01*
X68693147Y-176413885D01*
X68685587Y-176474361D01*
X69320587Y-176474361D02*
X68957730Y-176474361D01*
X69139159Y-176474361D02*
X69218534Y-175839361D01*
X69146718Y-175930076D01*
X69078682Y-175990552D01*
X69014426Y-176020790D01*
D11*
X78226566Y-174402704D02*
X78226566Y-173602704D01*
X78626566Y-174402704D02*
X78326566Y-173945561D01*
X78626566Y-173602704D02*
X78226566Y-174059847D01*
X78926566Y-174402704D02*
X78926566Y-173869371D01*
X78926566Y-173602704D02*
X78893233Y-173640800D01*
X78926566Y-173678895D01*
X78959900Y-173640800D01*
X78926566Y-173602704D01*
X78926566Y-173678895D01*
X79259900Y-173869371D02*
X79259900Y-174402704D01*
X79259900Y-173945561D02*
X79293233Y-173907466D01*
X79359900Y-173869371D01*
X79459900Y-173869371D01*
X79526566Y-173907466D01*
X79559900Y-173983657D01*
X79559900Y-174402704D01*
X80193233Y-173869371D02*
X80193233Y-174516990D01*
X80159900Y-174593180D01*
X80126566Y-174631276D01*
X80059900Y-174669371D01*
X79959900Y-174669371D01*
X79893233Y-174631276D01*
X80193233Y-174364609D02*
X80126566Y-174402704D01*
X79993233Y-174402704D01*
X79926566Y-174364609D01*
X79893233Y-174326514D01*
X79859900Y-174250323D01*
X79859900Y-174021752D01*
X79893233Y-173945561D01*
X79926566Y-173907466D01*
X79993233Y-173869371D01*
X80126566Y-173869371D01*
X80193233Y-173907466D01*
X138376566Y-234552704D02*
X138376566Y-233752704D01*
X138776566Y-234552704D02*
X138476566Y-234095561D01*
X138776566Y-233752704D02*
X138376566Y-234209847D01*
X139076566Y-234552704D02*
X139076566Y-234019371D01*
X139076566Y-233752704D02*
X139043233Y-233790800D01*
X139076566Y-233828895D01*
X139109900Y-233790800D01*
X139076566Y-233752704D01*
X139076566Y-233828895D01*
X139409900Y-234019371D02*
X139409900Y-234552704D01*
X139409900Y-234095561D02*
X139443233Y-234057466D01*
X139509900Y-234019371D01*
X139609900Y-234019371D01*
X139676566Y-234057466D01*
X139709900Y-234133657D01*
X139709900Y-234552704D01*
X140343233Y-234019371D02*
X140343233Y-234666990D01*
X140309900Y-234743180D01*
X140276566Y-234781276D01*
X140209900Y-234819371D01*
X140109900Y-234819371D01*
X140043233Y-234781276D01*
X140343233Y-234514609D02*
X140276566Y-234552704D01*
X140143233Y-234552704D01*
X140076566Y-234514609D01*
X140043233Y-234476514D01*
X140009900Y-234400323D01*
X140009900Y-234171752D01*
X140043233Y-234095561D01*
X140076566Y-234057466D01*
X140143233Y-234019371D01*
X140276566Y-234019371D01*
X140343233Y-234057466D01*
X77656766Y-235279033D02*
X77990100Y-235279033D01*
X77590100Y-235507604D02*
X77823433Y-234707604D01*
X78056766Y-235507604D01*
X78290100Y-235507604D02*
X78290100Y-234974271D01*
X78290100Y-235050461D02*
X78323433Y-235012366D01*
X78390100Y-234974271D01*
X78490100Y-234974271D01*
X78556766Y-235012366D01*
X78590100Y-235088557D01*
X78590100Y-235507604D01*
X78590100Y-235088557D02*
X78623433Y-235012366D01*
X78690100Y-234974271D01*
X78790100Y-234974271D01*
X78856766Y-235012366D01*
X78890100Y-235088557D01*
X78890100Y-235507604D01*
X79323433Y-235507604D02*
X79256766Y-235469509D01*
X79223433Y-235431414D01*
X79190100Y-235355223D01*
X79190100Y-235126652D01*
X79223433Y-235050461D01*
X79256766Y-235012366D01*
X79323433Y-234974271D01*
X79423433Y-234974271D01*
X79490100Y-235012366D01*
X79523433Y-235050461D01*
X79556766Y-235126652D01*
X79556766Y-235355223D01*
X79523433Y-235431414D01*
X79490100Y-235469509D01*
X79423433Y-235507604D01*
X79323433Y-235507604D01*
X80123433Y-235469509D02*
X80056766Y-235507604D01*
X79923433Y-235507604D01*
X79856766Y-235469509D01*
X79823433Y-235393319D01*
X79823433Y-235088557D01*
X79856766Y-235012366D01*
X79923433Y-234974271D01*
X80056766Y-234974271D01*
X80123433Y-235012366D01*
X80156766Y-235088557D01*
X80156766Y-235164747D01*
X79823433Y-235240938D01*
X80456766Y-235507604D02*
X80456766Y-234707604D01*
X80456766Y-235012366D02*
X80523433Y-234974271D01*
X80656766Y-234974271D01*
X80723433Y-235012366D01*
X80756766Y-235050461D01*
X80790100Y-235126652D01*
X80790100Y-235355223D01*
X80756766Y-235431414D01*
X80723433Y-235469509D01*
X80656766Y-235507604D01*
X80523433Y-235507604D01*
X80456766Y-235469509D01*
X81390100Y-235507604D02*
X81390100Y-235088557D01*
X81356766Y-235012366D01*
X81290100Y-234974271D01*
X81156766Y-234974271D01*
X81090100Y-235012366D01*
X81390100Y-235469509D02*
X81323433Y-235507604D01*
X81156766Y-235507604D01*
X81090100Y-235469509D01*
X81056766Y-235393319D01*
X81056766Y-235317128D01*
X81090100Y-235240938D01*
X81156766Y-235202842D01*
X81323433Y-235202842D01*
X81390100Y-235164747D01*
D12*
X147789456Y-256251028D02*
X147887730Y-256674361D01*
X148091837Y-256251028D01*
X148613444Y-256674361D02*
X148250587Y-256674361D01*
X148432016Y-256674361D02*
X148511391Y-256039361D01*
X148439575Y-256130076D01*
X148371540Y-256190552D01*
X148307284Y-256220790D01*
X148893147Y-256613885D02*
X148919605Y-256644123D01*
X148885587Y-256674361D01*
X148859129Y-256644123D01*
X148893147Y-256613885D01*
X148885587Y-256674361D01*
X149520587Y-256674361D02*
X149157730Y-256674361D01*
X149339159Y-256674361D02*
X149418534Y-256039361D01*
X149346718Y-256130076D01*
X149278682Y-256190552D01*
X149214426Y-256220790D01*
D11*
X78226566Y-214402704D02*
X78226566Y-213602704D01*
X78626566Y-214402704D02*
X78326566Y-213945561D01*
X78626566Y-213602704D02*
X78226566Y-214059847D01*
X78926566Y-214402704D02*
X78926566Y-213869371D01*
X78926566Y-213602704D02*
X78893233Y-213640800D01*
X78926566Y-213678895D01*
X78959900Y-213640800D01*
X78926566Y-213602704D01*
X78926566Y-213678895D01*
X79259900Y-213869371D02*
X79259900Y-214402704D01*
X79259900Y-213945561D02*
X79293233Y-213907466D01*
X79359900Y-213869371D01*
X79459900Y-213869371D01*
X79526566Y-213907466D01*
X79559900Y-213983657D01*
X79559900Y-214402704D01*
X80193233Y-213869371D02*
X80193233Y-214516990D01*
X80159900Y-214593180D01*
X80126566Y-214631276D01*
X80059900Y-214669371D01*
X79959900Y-214669371D01*
X79893233Y-214631276D01*
X80193233Y-214364609D02*
X80126566Y-214402704D01*
X79993233Y-214402704D01*
X79926566Y-214364609D01*
X79893233Y-214326514D01*
X79859900Y-214250323D01*
X79859900Y-214021752D01*
X79893233Y-213945561D01*
X79926566Y-213907466D01*
X79993233Y-213869371D01*
X80126566Y-213869371D01*
X80193233Y-213907466D01*
D12*
X107689456Y-216151028D02*
X107787730Y-216574361D01*
X107991837Y-216151028D01*
X108513444Y-216574361D02*
X108150587Y-216574361D01*
X108332016Y-216574361D02*
X108411391Y-215939361D01*
X108339575Y-216030076D01*
X108271540Y-216090552D01*
X108207284Y-216120790D01*
X108793147Y-216513885D02*
X108819605Y-216544123D01*
X108785587Y-216574361D01*
X108759129Y-216544123D01*
X108793147Y-216513885D01*
X108785587Y-216574361D01*
X109420587Y-216574361D02*
X109057730Y-216574361D01*
X109239159Y-216574361D02*
X109318534Y-215939361D01*
X109246718Y-216030076D01*
X109178682Y-216090552D01*
X109114426Y-216120790D01*
D11*
X77656766Y-215379033D02*
X77990100Y-215379033D01*
X77590100Y-215607604D02*
X77823433Y-214807604D01*
X78056766Y-215607604D01*
X78290100Y-215607604D02*
X78290100Y-215074271D01*
X78290100Y-215150461D02*
X78323433Y-215112366D01*
X78390100Y-215074271D01*
X78490100Y-215074271D01*
X78556766Y-215112366D01*
X78590100Y-215188557D01*
X78590100Y-215607604D01*
X78590100Y-215188557D02*
X78623433Y-215112366D01*
X78690100Y-215074271D01*
X78790100Y-215074271D01*
X78856766Y-215112366D01*
X78890100Y-215188557D01*
X78890100Y-215607604D01*
X79323433Y-215607604D02*
X79256766Y-215569509D01*
X79223433Y-215531414D01*
X79190100Y-215455223D01*
X79190100Y-215226652D01*
X79223433Y-215150461D01*
X79256766Y-215112366D01*
X79323433Y-215074271D01*
X79423433Y-215074271D01*
X79490100Y-215112366D01*
X79523433Y-215150461D01*
X79556766Y-215226652D01*
X79556766Y-215455223D01*
X79523433Y-215531414D01*
X79490100Y-215569509D01*
X79423433Y-215607604D01*
X79323433Y-215607604D01*
X80123433Y-215569509D02*
X80056766Y-215607604D01*
X79923433Y-215607604D01*
X79856766Y-215569509D01*
X79823433Y-215493319D01*
X79823433Y-215188557D01*
X79856766Y-215112366D01*
X79923433Y-215074271D01*
X80056766Y-215074271D01*
X80123433Y-215112366D01*
X80156766Y-215188557D01*
X80156766Y-215264747D01*
X79823433Y-215340938D01*
X80456766Y-215607604D02*
X80456766Y-214807604D01*
X80456766Y-215112366D02*
X80523433Y-215074271D01*
X80656766Y-215074271D01*
X80723433Y-215112366D01*
X80756766Y-215150461D01*
X80790100Y-215226652D01*
X80790100Y-215455223D01*
X80756766Y-215531414D01*
X80723433Y-215569509D01*
X80656766Y-215607604D01*
X80523433Y-215607604D01*
X80456766Y-215569509D01*
X81390100Y-215607604D02*
X81390100Y-215188557D01*
X81356766Y-215112366D01*
X81290100Y-215074271D01*
X81156766Y-215074271D01*
X81090100Y-215112366D01*
X81390100Y-215569509D02*
X81323433Y-215607604D01*
X81156766Y-215607604D01*
X81090100Y-215569509D01*
X81056766Y-215493319D01*
X81056766Y-215417128D01*
X81090100Y-215340938D01*
X81156766Y-215302842D01*
X81323433Y-215302842D01*
X81390100Y-215264747D01*
X97706766Y-215379033D02*
X98040100Y-215379033D01*
X97640100Y-215607604D02*
X97873433Y-214807604D01*
X98106766Y-215607604D01*
X98340100Y-215607604D02*
X98340100Y-215074271D01*
X98340100Y-215150461D02*
X98373433Y-215112366D01*
X98440100Y-215074271D01*
X98540100Y-215074271D01*
X98606766Y-215112366D01*
X98640100Y-215188557D01*
X98640100Y-215607604D01*
X98640100Y-215188557D02*
X98673433Y-215112366D01*
X98740100Y-215074271D01*
X98840100Y-215074271D01*
X98906766Y-215112366D01*
X98940100Y-215188557D01*
X98940100Y-215607604D01*
X99373433Y-215607604D02*
X99306766Y-215569509D01*
X99273433Y-215531414D01*
X99240100Y-215455223D01*
X99240100Y-215226652D01*
X99273433Y-215150461D01*
X99306766Y-215112366D01*
X99373433Y-215074271D01*
X99473433Y-215074271D01*
X99540100Y-215112366D01*
X99573433Y-215150461D01*
X99606766Y-215226652D01*
X99606766Y-215455223D01*
X99573433Y-215531414D01*
X99540100Y-215569509D01*
X99473433Y-215607604D01*
X99373433Y-215607604D01*
X100173433Y-215569509D02*
X100106766Y-215607604D01*
X99973433Y-215607604D01*
X99906766Y-215569509D01*
X99873433Y-215493319D01*
X99873433Y-215188557D01*
X99906766Y-215112366D01*
X99973433Y-215074271D01*
X100106766Y-215074271D01*
X100173433Y-215112366D01*
X100206766Y-215188557D01*
X100206766Y-215264747D01*
X99873433Y-215340938D01*
X100506766Y-215607604D02*
X100506766Y-214807604D01*
X100506766Y-215112366D02*
X100573433Y-215074271D01*
X100706766Y-215074271D01*
X100773433Y-215112366D01*
X100806766Y-215150461D01*
X100840100Y-215226652D01*
X100840100Y-215455223D01*
X100806766Y-215531414D01*
X100773433Y-215569509D01*
X100706766Y-215607604D01*
X100573433Y-215607604D01*
X100506766Y-215569509D01*
X101440100Y-215607604D02*
X101440100Y-215188557D01*
X101406766Y-215112366D01*
X101340100Y-215074271D01*
X101206766Y-215074271D01*
X101140100Y-215112366D01*
X101440100Y-215569509D02*
X101373433Y-215607604D01*
X101206766Y-215607604D01*
X101140100Y-215569509D01*
X101106766Y-215493319D01*
X101106766Y-215417128D01*
X101140100Y-215340938D01*
X101206766Y-215302842D01*
X101373433Y-215302842D01*
X101440100Y-215264747D01*
D12*
X67589456Y-216051028D02*
X67687730Y-216474361D01*
X67891837Y-216051028D01*
X68413444Y-216474361D02*
X68050587Y-216474361D01*
X68232016Y-216474361D02*
X68311391Y-215839361D01*
X68239575Y-215930076D01*
X68171540Y-215990552D01*
X68107284Y-216020790D01*
X68693147Y-216413885D02*
X68719605Y-216444123D01*
X68685587Y-216474361D01*
X68659129Y-216444123D01*
X68693147Y-216413885D01*
X68685587Y-216474361D01*
X69320587Y-216474361D02*
X68957730Y-216474361D01*
X69139159Y-216474361D02*
X69218534Y-215839361D01*
X69146718Y-215930076D01*
X69078682Y-215990552D01*
X69014426Y-216020790D01*
X127739456Y-196101028D02*
X127837730Y-196524361D01*
X128041837Y-196101028D01*
X128563444Y-196524361D02*
X128200587Y-196524361D01*
X128382016Y-196524361D02*
X128461391Y-195889361D01*
X128389575Y-195980076D01*
X128321540Y-196040552D01*
X128257284Y-196070790D01*
X128843147Y-196463885D02*
X128869605Y-196494123D01*
X128835587Y-196524361D01*
X128809129Y-196494123D01*
X128843147Y-196463885D01*
X128835587Y-196524361D01*
X129470587Y-196524361D02*
X129107730Y-196524361D01*
X129289159Y-196524361D02*
X129368534Y-195889361D01*
X129296718Y-195980076D01*
X129228682Y-196040552D01*
X129164426Y-196070790D01*
X127739456Y-236201028D02*
X127837730Y-236624361D01*
X128041837Y-236201028D01*
X128563444Y-236624361D02*
X128200587Y-236624361D01*
X128382016Y-236624361D02*
X128461391Y-235989361D01*
X128389575Y-236080076D01*
X128321540Y-236140552D01*
X128257284Y-236170790D01*
X128843147Y-236563885D02*
X128869605Y-236594123D01*
X128835587Y-236624361D01*
X128809129Y-236594123D01*
X128843147Y-236563885D01*
X128835587Y-236624361D01*
X129470587Y-236624361D02*
X129107730Y-236624361D01*
X129289159Y-236624361D02*
X129368534Y-235989361D01*
X129296718Y-236080076D01*
X129228682Y-236140552D01*
X129164426Y-236170790D01*
X127739456Y-216151028D02*
X127837730Y-216574361D01*
X128041837Y-216151028D01*
X128563444Y-216574361D02*
X128200587Y-216574361D01*
X128382016Y-216574361D02*
X128461391Y-215939361D01*
X128389575Y-216030076D01*
X128321540Y-216090552D01*
X128257284Y-216120790D01*
X128843147Y-216513885D02*
X128869605Y-216544123D01*
X128835587Y-216574361D01*
X128809129Y-216544123D01*
X128843147Y-216513885D01*
X128835587Y-216574361D01*
X129470587Y-216574361D02*
X129107730Y-216574361D01*
X129289159Y-216574361D02*
X129368534Y-215939361D01*
X129296718Y-216030076D01*
X129228682Y-216090552D01*
X129164426Y-216120790D01*
D11*
X117756766Y-195329033D02*
X118090100Y-195329033D01*
X117690100Y-195557604D02*
X117923433Y-194757604D01*
X118156766Y-195557604D01*
X118390100Y-195557604D02*
X118390100Y-195024271D01*
X118390100Y-195100461D02*
X118423433Y-195062366D01*
X118490100Y-195024271D01*
X118590100Y-195024271D01*
X118656766Y-195062366D01*
X118690100Y-195138557D01*
X118690100Y-195557604D01*
X118690100Y-195138557D02*
X118723433Y-195062366D01*
X118790100Y-195024271D01*
X118890100Y-195024271D01*
X118956766Y-195062366D01*
X118990100Y-195138557D01*
X118990100Y-195557604D01*
X119423433Y-195557604D02*
X119356766Y-195519509D01*
X119323433Y-195481414D01*
X119290100Y-195405223D01*
X119290100Y-195176652D01*
X119323433Y-195100461D01*
X119356766Y-195062366D01*
X119423433Y-195024271D01*
X119523433Y-195024271D01*
X119590100Y-195062366D01*
X119623433Y-195100461D01*
X119656766Y-195176652D01*
X119656766Y-195405223D01*
X119623433Y-195481414D01*
X119590100Y-195519509D01*
X119523433Y-195557604D01*
X119423433Y-195557604D01*
X120223433Y-195519509D02*
X120156766Y-195557604D01*
X120023433Y-195557604D01*
X119956766Y-195519509D01*
X119923433Y-195443319D01*
X119923433Y-195138557D01*
X119956766Y-195062366D01*
X120023433Y-195024271D01*
X120156766Y-195024271D01*
X120223433Y-195062366D01*
X120256766Y-195138557D01*
X120256766Y-195214747D01*
X119923433Y-195290938D01*
X120556766Y-195557604D02*
X120556766Y-194757604D01*
X120556766Y-195062366D02*
X120623433Y-195024271D01*
X120756766Y-195024271D01*
X120823433Y-195062366D01*
X120856766Y-195100461D01*
X120890100Y-195176652D01*
X120890100Y-195405223D01*
X120856766Y-195481414D01*
X120823433Y-195519509D01*
X120756766Y-195557604D01*
X120623433Y-195557604D01*
X120556766Y-195519509D01*
X121490100Y-195557604D02*
X121490100Y-195138557D01*
X121456766Y-195062366D01*
X121390100Y-195024271D01*
X121256766Y-195024271D01*
X121190100Y-195062366D01*
X121490100Y-195519509D02*
X121423433Y-195557604D01*
X121256766Y-195557604D01*
X121190100Y-195519509D01*
X121156766Y-195443319D01*
X121156766Y-195367128D01*
X121190100Y-195290938D01*
X121256766Y-195252842D01*
X121423433Y-195252842D01*
X121490100Y-195214747D01*
X77656766Y-255279033D02*
X77990100Y-255279033D01*
X77590100Y-255507604D02*
X77823433Y-254707604D01*
X78056766Y-255507604D01*
X78290100Y-255507604D02*
X78290100Y-254974271D01*
X78290100Y-255050461D02*
X78323433Y-255012366D01*
X78390100Y-254974271D01*
X78490100Y-254974271D01*
X78556766Y-255012366D01*
X78590100Y-255088557D01*
X78590100Y-255507604D01*
X78590100Y-255088557D02*
X78623433Y-255012366D01*
X78690100Y-254974271D01*
X78790100Y-254974271D01*
X78856766Y-255012366D01*
X78890100Y-255088557D01*
X78890100Y-255507604D01*
X79323433Y-255507604D02*
X79256766Y-255469509D01*
X79223433Y-255431414D01*
X79190100Y-255355223D01*
X79190100Y-255126652D01*
X79223433Y-255050461D01*
X79256766Y-255012366D01*
X79323433Y-254974271D01*
X79423433Y-254974271D01*
X79490100Y-255012366D01*
X79523433Y-255050461D01*
X79556766Y-255126652D01*
X79556766Y-255355223D01*
X79523433Y-255431414D01*
X79490100Y-255469509D01*
X79423433Y-255507604D01*
X79323433Y-255507604D01*
X80123433Y-255469509D02*
X80056766Y-255507604D01*
X79923433Y-255507604D01*
X79856766Y-255469509D01*
X79823433Y-255393319D01*
X79823433Y-255088557D01*
X79856766Y-255012366D01*
X79923433Y-254974271D01*
X80056766Y-254974271D01*
X80123433Y-255012366D01*
X80156766Y-255088557D01*
X80156766Y-255164747D01*
X79823433Y-255240938D01*
X80456766Y-255507604D02*
X80456766Y-254707604D01*
X80456766Y-255012366D02*
X80523433Y-254974271D01*
X80656766Y-254974271D01*
X80723433Y-255012366D01*
X80756766Y-255050461D01*
X80790100Y-255126652D01*
X80790100Y-255355223D01*
X80756766Y-255431414D01*
X80723433Y-255469509D01*
X80656766Y-255507604D01*
X80523433Y-255507604D01*
X80456766Y-255469509D01*
X81390100Y-255507604D02*
X81390100Y-255088557D01*
X81356766Y-255012366D01*
X81290100Y-254974271D01*
X81156766Y-254974271D01*
X81090100Y-255012366D01*
X81390100Y-255469509D02*
X81323433Y-255507604D01*
X81156766Y-255507604D01*
X81090100Y-255469509D01*
X81056766Y-255393319D01*
X81056766Y-255317128D01*
X81090100Y-255240938D01*
X81156766Y-255202842D01*
X81323433Y-255202842D01*
X81390100Y-255164747D01*
X78226566Y-194452704D02*
X78226566Y-193652704D01*
X78626566Y-194452704D02*
X78326566Y-193995561D01*
X78626566Y-193652704D02*
X78226566Y-194109847D01*
X78926566Y-194452704D02*
X78926566Y-193919371D01*
X78926566Y-193652704D02*
X78893233Y-193690800D01*
X78926566Y-193728895D01*
X78959900Y-193690800D01*
X78926566Y-193652704D01*
X78926566Y-193728895D01*
X79259900Y-193919371D02*
X79259900Y-194452704D01*
X79259900Y-193995561D02*
X79293233Y-193957466D01*
X79359900Y-193919371D01*
X79459900Y-193919371D01*
X79526566Y-193957466D01*
X79559900Y-194033657D01*
X79559900Y-194452704D01*
X80193233Y-193919371D02*
X80193233Y-194566990D01*
X80159900Y-194643180D01*
X80126566Y-194681276D01*
X80059900Y-194719371D01*
X79959900Y-194719371D01*
X79893233Y-194681276D01*
X80193233Y-194414609D02*
X80126566Y-194452704D01*
X79993233Y-194452704D01*
X79926566Y-194414609D01*
X79893233Y-194376514D01*
X79859900Y-194300323D01*
X79859900Y-194071752D01*
X79893233Y-193995561D01*
X79926566Y-193957466D01*
X79993233Y-193919371D01*
X80126566Y-193919371D01*
X80193233Y-193957466D01*
D12*
X87639456Y-216151028D02*
X87737730Y-216574361D01*
X87941837Y-216151028D01*
X88463444Y-216574361D02*
X88100587Y-216574361D01*
X88282016Y-216574361D02*
X88361391Y-215939361D01*
X88289575Y-216030076D01*
X88221540Y-216090552D01*
X88157284Y-216120790D01*
X88743147Y-216513885D02*
X88769605Y-216544123D01*
X88735587Y-216574361D01*
X88709129Y-216544123D01*
X88743147Y-216513885D01*
X88735587Y-216574361D01*
X89370587Y-216574361D02*
X89007730Y-216574361D01*
X89189159Y-216574361D02*
X89268534Y-215939361D01*
X89196718Y-216030076D01*
X89128682Y-216090552D01*
X89064426Y-216120790D01*
D11*
X97706766Y-195329033D02*
X98040100Y-195329033D01*
X97640100Y-195557604D02*
X97873433Y-194757604D01*
X98106766Y-195557604D01*
X98340100Y-195557604D02*
X98340100Y-195024271D01*
X98340100Y-195100461D02*
X98373433Y-195062366D01*
X98440100Y-195024271D01*
X98540100Y-195024271D01*
X98606766Y-195062366D01*
X98640100Y-195138557D01*
X98640100Y-195557604D01*
X98640100Y-195138557D02*
X98673433Y-195062366D01*
X98740100Y-195024271D01*
X98840100Y-195024271D01*
X98906766Y-195062366D01*
X98940100Y-195138557D01*
X98940100Y-195557604D01*
X99373433Y-195557604D02*
X99306766Y-195519509D01*
X99273433Y-195481414D01*
X99240100Y-195405223D01*
X99240100Y-195176652D01*
X99273433Y-195100461D01*
X99306766Y-195062366D01*
X99373433Y-195024271D01*
X99473433Y-195024271D01*
X99540100Y-195062366D01*
X99573433Y-195100461D01*
X99606766Y-195176652D01*
X99606766Y-195405223D01*
X99573433Y-195481414D01*
X99540100Y-195519509D01*
X99473433Y-195557604D01*
X99373433Y-195557604D01*
X100173433Y-195519509D02*
X100106766Y-195557604D01*
X99973433Y-195557604D01*
X99906766Y-195519509D01*
X99873433Y-195443319D01*
X99873433Y-195138557D01*
X99906766Y-195062366D01*
X99973433Y-195024271D01*
X100106766Y-195024271D01*
X100173433Y-195062366D01*
X100206766Y-195138557D01*
X100206766Y-195214747D01*
X99873433Y-195290938D01*
X100506766Y-195557604D02*
X100506766Y-194757604D01*
X100506766Y-195062366D02*
X100573433Y-195024271D01*
X100706766Y-195024271D01*
X100773433Y-195062366D01*
X100806766Y-195100461D01*
X100840100Y-195176652D01*
X100840100Y-195405223D01*
X100806766Y-195481414D01*
X100773433Y-195519509D01*
X100706766Y-195557604D01*
X100573433Y-195557604D01*
X100506766Y-195519509D01*
X101440100Y-195557604D02*
X101440100Y-195138557D01*
X101406766Y-195062366D01*
X101340100Y-195024271D01*
X101206766Y-195024271D01*
X101140100Y-195062366D01*
X101440100Y-195519509D02*
X101373433Y-195557604D01*
X101206766Y-195557604D01*
X101140100Y-195519509D01*
X101106766Y-195443319D01*
X101106766Y-195367128D01*
X101140100Y-195290938D01*
X101206766Y-195252842D01*
X101373433Y-195252842D01*
X101440100Y-195214747D01*
X78226566Y-254602704D02*
X78226566Y-253802704D01*
X78626566Y-254602704D02*
X78326566Y-254145561D01*
X78626566Y-253802704D02*
X78226566Y-254259847D01*
X78926566Y-254602704D02*
X78926566Y-254069371D01*
X78926566Y-253802704D02*
X78893233Y-253840800D01*
X78926566Y-253878895D01*
X78959900Y-253840800D01*
X78926566Y-253802704D01*
X78926566Y-253878895D01*
X79259900Y-254069371D02*
X79259900Y-254602704D01*
X79259900Y-254145561D02*
X79293233Y-254107466D01*
X79359900Y-254069371D01*
X79459900Y-254069371D01*
X79526566Y-254107466D01*
X79559900Y-254183657D01*
X79559900Y-254602704D01*
X80193233Y-254069371D02*
X80193233Y-254716990D01*
X80159900Y-254793180D01*
X80126566Y-254831276D01*
X80059900Y-254869371D01*
X79959900Y-254869371D01*
X79893233Y-254831276D01*
X80193233Y-254564609D02*
X80126566Y-254602704D01*
X79993233Y-254602704D01*
X79926566Y-254564609D01*
X79893233Y-254526514D01*
X79859900Y-254450323D01*
X79859900Y-254221752D01*
X79893233Y-254145561D01*
X79926566Y-254107466D01*
X79993233Y-254069371D01*
X80126566Y-254069371D01*
X80193233Y-254107466D01*
X78226566Y-254402704D02*
X78226566Y-253602704D01*
X78626566Y-254402704D02*
X78326566Y-253945561D01*
X78626566Y-253602704D02*
X78226566Y-254059847D01*
X78926566Y-254402704D02*
X78926566Y-253869371D01*
X78926566Y-253602704D02*
X78893233Y-253640800D01*
X78926566Y-253678895D01*
X78959900Y-253640800D01*
X78926566Y-253602704D01*
X78926566Y-253678895D01*
X79259900Y-253869371D02*
X79259900Y-254402704D01*
X79259900Y-253945561D02*
X79293233Y-253907466D01*
X79359900Y-253869371D01*
X79459900Y-253869371D01*
X79526566Y-253907466D01*
X79559900Y-253983657D01*
X79559900Y-254402704D01*
X80193233Y-253869371D02*
X80193233Y-254516990D01*
X80159900Y-254593180D01*
X80126566Y-254631276D01*
X80059900Y-254669371D01*
X79959900Y-254669371D01*
X79893233Y-254631276D01*
X80193233Y-254364609D02*
X80126566Y-254402704D01*
X79993233Y-254402704D01*
X79926566Y-254364609D01*
X79893233Y-254326514D01*
X79859900Y-254250323D01*
X79859900Y-254021752D01*
X79893233Y-253945561D01*
X79926566Y-253907466D01*
X79993233Y-253869371D01*
X80126566Y-253869371D01*
X80193233Y-253907466D01*
D12*
X147789456Y-176051028D02*
X147887730Y-176474361D01*
X148091837Y-176051028D01*
X148613444Y-176474361D02*
X148250587Y-176474361D01*
X148432016Y-176474361D02*
X148511391Y-175839361D01*
X148439575Y-175930076D01*
X148371540Y-175990552D01*
X148307284Y-176020790D01*
X148893147Y-176413885D02*
X148919605Y-176444123D01*
X148885587Y-176474361D01*
X148859129Y-176444123D01*
X148893147Y-176413885D01*
X148885587Y-176474361D01*
X149520587Y-176474361D02*
X149157730Y-176474361D01*
X149339159Y-176474361D02*
X149418534Y-175839361D01*
X149346718Y-175930076D01*
X149278682Y-175990552D01*
X149214426Y-176020790D01*
D11*
X157856766Y-235429033D02*
X158190100Y-235429033D01*
X157790100Y-235657604D02*
X158023433Y-234857604D01*
X158256766Y-235657604D01*
X158490100Y-235657604D02*
X158490100Y-235124271D01*
X158490100Y-235200461D02*
X158523433Y-235162366D01*
X158590100Y-235124271D01*
X158690100Y-235124271D01*
X158756766Y-235162366D01*
X158790100Y-235238557D01*
X158790100Y-235657604D01*
X158790100Y-235238557D02*
X158823433Y-235162366D01*
X158890100Y-235124271D01*
X158990100Y-235124271D01*
X159056766Y-235162366D01*
X159090100Y-235238557D01*
X159090100Y-235657604D01*
X159523433Y-235657604D02*
X159456766Y-235619509D01*
X159423433Y-235581414D01*
X159390100Y-235505223D01*
X159390100Y-235276652D01*
X159423433Y-235200461D01*
X159456766Y-235162366D01*
X159523433Y-235124271D01*
X159623433Y-235124271D01*
X159690100Y-235162366D01*
X159723433Y-235200461D01*
X159756766Y-235276652D01*
X159756766Y-235505223D01*
X159723433Y-235581414D01*
X159690100Y-235619509D01*
X159623433Y-235657604D01*
X159523433Y-235657604D01*
X160323433Y-235619509D02*
X160256766Y-235657604D01*
X160123433Y-235657604D01*
X160056766Y-235619509D01*
X160023433Y-235543319D01*
X160023433Y-235238557D01*
X160056766Y-235162366D01*
X160123433Y-235124271D01*
X160256766Y-235124271D01*
X160323433Y-235162366D01*
X160356766Y-235238557D01*
X160356766Y-235314747D01*
X160023433Y-235390938D01*
X160656766Y-235657604D02*
X160656766Y-234857604D01*
X160656766Y-235162366D02*
X160723433Y-235124271D01*
X160856766Y-235124271D01*
X160923433Y-235162366D01*
X160956766Y-235200461D01*
X160990100Y-235276652D01*
X160990100Y-235505223D01*
X160956766Y-235581414D01*
X160923433Y-235619509D01*
X160856766Y-235657604D01*
X160723433Y-235657604D01*
X160656766Y-235619509D01*
X161590100Y-235657604D02*
X161590100Y-235238557D01*
X161556766Y-235162366D01*
X161490100Y-235124271D01*
X161356766Y-235124271D01*
X161290100Y-235162366D01*
X161590100Y-235619509D02*
X161523433Y-235657604D01*
X161356766Y-235657604D01*
X161290100Y-235619509D01*
X161256766Y-235543319D01*
X161256766Y-235467128D01*
X161290100Y-235390938D01*
X161356766Y-235352842D01*
X161523433Y-235352842D01*
X161590100Y-235314747D01*
X117756766Y-255479033D02*
X118090100Y-255479033D01*
X117690100Y-255707604D02*
X117923433Y-254907604D01*
X118156766Y-255707604D01*
X118390100Y-255707604D02*
X118390100Y-255174271D01*
X118390100Y-255250461D02*
X118423433Y-255212366D01*
X118490100Y-255174271D01*
X118590100Y-255174271D01*
X118656766Y-255212366D01*
X118690100Y-255288557D01*
X118690100Y-255707604D01*
X118690100Y-255288557D02*
X118723433Y-255212366D01*
X118790100Y-255174271D01*
X118890100Y-255174271D01*
X118956766Y-255212366D01*
X118990100Y-255288557D01*
X118990100Y-255707604D01*
X119423433Y-255707604D02*
X119356766Y-255669509D01*
X119323433Y-255631414D01*
X119290100Y-255555223D01*
X119290100Y-255326652D01*
X119323433Y-255250461D01*
X119356766Y-255212366D01*
X119423433Y-255174271D01*
X119523433Y-255174271D01*
X119590100Y-255212366D01*
X119623433Y-255250461D01*
X119656766Y-255326652D01*
X119656766Y-255555223D01*
X119623433Y-255631414D01*
X119590100Y-255669509D01*
X119523433Y-255707604D01*
X119423433Y-255707604D01*
X120223433Y-255669509D02*
X120156766Y-255707604D01*
X120023433Y-255707604D01*
X119956766Y-255669509D01*
X119923433Y-255593319D01*
X119923433Y-255288557D01*
X119956766Y-255212366D01*
X120023433Y-255174271D01*
X120156766Y-255174271D01*
X120223433Y-255212366D01*
X120256766Y-255288557D01*
X120256766Y-255364747D01*
X119923433Y-255440938D01*
X120556766Y-255707604D02*
X120556766Y-254907604D01*
X120556766Y-255212366D02*
X120623433Y-255174271D01*
X120756766Y-255174271D01*
X120823433Y-255212366D01*
X120856766Y-255250461D01*
X120890100Y-255326652D01*
X120890100Y-255555223D01*
X120856766Y-255631414D01*
X120823433Y-255669509D01*
X120756766Y-255707604D01*
X120623433Y-255707604D01*
X120556766Y-255669509D01*
X121490100Y-255707604D02*
X121490100Y-255288557D01*
X121456766Y-255212366D01*
X121390100Y-255174271D01*
X121256766Y-255174271D01*
X121190100Y-255212366D01*
X121490100Y-255669509D02*
X121423433Y-255707604D01*
X121256766Y-255707604D01*
X121190100Y-255669509D01*
X121156766Y-255593319D01*
X121156766Y-255517128D01*
X121190100Y-255440938D01*
X121256766Y-255402842D01*
X121423433Y-255402842D01*
X121490100Y-255364747D01*
D12*
X107689456Y-236201028D02*
X107787730Y-236624361D01*
X107991837Y-236201028D01*
X108513444Y-236624361D02*
X108150587Y-236624361D01*
X108332016Y-236624361D02*
X108411391Y-235989361D01*
X108339575Y-236080076D01*
X108271540Y-236140552D01*
X108207284Y-236170790D01*
X108793147Y-236563885D02*
X108819605Y-236594123D01*
X108785587Y-236624361D01*
X108759129Y-236594123D01*
X108793147Y-236563885D01*
X108785587Y-236624361D01*
X109420587Y-236624361D02*
X109057730Y-236624361D01*
X109239159Y-236624361D02*
X109318534Y-235989361D01*
X109246718Y-236080076D01*
X109178682Y-236140552D01*
X109114426Y-236170790D01*
D11*
X138376566Y-194452704D02*
X138376566Y-193652704D01*
X138776566Y-194452704D02*
X138476566Y-193995561D01*
X138776566Y-193652704D02*
X138376566Y-194109847D01*
X139076566Y-194452704D02*
X139076566Y-193919371D01*
X139076566Y-193652704D02*
X139043233Y-193690800D01*
X139076566Y-193728895D01*
X139109900Y-193690800D01*
X139076566Y-193652704D01*
X139076566Y-193728895D01*
X139409900Y-193919371D02*
X139409900Y-194452704D01*
X139409900Y-193995561D02*
X139443233Y-193957466D01*
X139509900Y-193919371D01*
X139609900Y-193919371D01*
X139676566Y-193957466D01*
X139709900Y-194033657D01*
X139709900Y-194452704D01*
X140343233Y-193919371D02*
X140343233Y-194566990D01*
X140309900Y-194643180D01*
X140276566Y-194681276D01*
X140209900Y-194719371D01*
X140109900Y-194719371D01*
X140043233Y-194681276D01*
X140343233Y-194414609D02*
X140276566Y-194452704D01*
X140143233Y-194452704D01*
X140076566Y-194414609D01*
X140043233Y-194376514D01*
X140009900Y-194300323D01*
X140009900Y-194071752D01*
X140043233Y-193995561D01*
X140076566Y-193957466D01*
X140143233Y-193919371D01*
X140276566Y-193919371D01*
X140343233Y-193957466D01*
D12*
X87639456Y-236201028D02*
X87737730Y-236624361D01*
X87941837Y-236201028D01*
X88463444Y-236624361D02*
X88100587Y-236624361D01*
X88282016Y-236624361D02*
X88361391Y-235989361D01*
X88289575Y-236080076D01*
X88221540Y-236140552D01*
X88157284Y-236170790D01*
X88743147Y-236563885D02*
X88769605Y-236594123D01*
X88735587Y-236624361D01*
X88709129Y-236594123D01*
X88743147Y-236563885D01*
X88735587Y-236624361D01*
X89370587Y-236624361D02*
X89007730Y-236624361D01*
X89189159Y-236624361D02*
X89268534Y-235989361D01*
X89196718Y-236080076D01*
X89128682Y-236140552D01*
X89064426Y-236170790D01*
D11*
X158426566Y-174402704D02*
X158426566Y-173602704D01*
X158826566Y-174402704D02*
X158526566Y-173945561D01*
X158826566Y-173602704D02*
X158426566Y-174059847D01*
X159126566Y-174402704D02*
X159126566Y-173869371D01*
X159126566Y-173602704D02*
X159093233Y-173640800D01*
X159126566Y-173678895D01*
X159159900Y-173640800D01*
X159126566Y-173602704D01*
X159126566Y-173678895D01*
X159459900Y-173869371D02*
X159459900Y-174402704D01*
X159459900Y-173945561D02*
X159493233Y-173907466D01*
X159559900Y-173869371D01*
X159659900Y-173869371D01*
X159726566Y-173907466D01*
X159759900Y-173983657D01*
X159759900Y-174402704D01*
X160393233Y-173869371D02*
X160393233Y-174516990D01*
X160359900Y-174593180D01*
X160326566Y-174631276D01*
X160259900Y-174669371D01*
X160159900Y-174669371D01*
X160093233Y-174631276D01*
X160393233Y-174364609D02*
X160326566Y-174402704D01*
X160193233Y-174402704D01*
X160126566Y-174364609D01*
X160093233Y-174326514D01*
X160059900Y-174250323D01*
X160059900Y-174021752D01*
X160093233Y-173945561D01*
X160126566Y-173907466D01*
X160193233Y-173869371D01*
X160326566Y-173869371D01*
X160393233Y-173907466D01*
X137806766Y-215379033D02*
X138140100Y-215379033D01*
X137740100Y-215607604D02*
X137973433Y-214807604D01*
X138206766Y-215607604D01*
X138440100Y-215607604D02*
X138440100Y-215074271D01*
X138440100Y-215150461D02*
X138473433Y-215112366D01*
X138540100Y-215074271D01*
X138640100Y-215074271D01*
X138706766Y-215112366D01*
X138740100Y-215188557D01*
X138740100Y-215607604D01*
X138740100Y-215188557D02*
X138773433Y-215112366D01*
X138840100Y-215074271D01*
X138940100Y-215074271D01*
X139006766Y-215112366D01*
X139040100Y-215188557D01*
X139040100Y-215607604D01*
X139473433Y-215607604D02*
X139406766Y-215569509D01*
X139373433Y-215531414D01*
X139340100Y-215455223D01*
X139340100Y-215226652D01*
X139373433Y-215150461D01*
X139406766Y-215112366D01*
X139473433Y-215074271D01*
X139573433Y-215074271D01*
X139640100Y-215112366D01*
X139673433Y-215150461D01*
X139706766Y-215226652D01*
X139706766Y-215455223D01*
X139673433Y-215531414D01*
X139640100Y-215569509D01*
X139573433Y-215607604D01*
X139473433Y-215607604D01*
X140273433Y-215569509D02*
X140206766Y-215607604D01*
X140073433Y-215607604D01*
X140006766Y-215569509D01*
X139973433Y-215493319D01*
X139973433Y-215188557D01*
X140006766Y-215112366D01*
X140073433Y-215074271D01*
X140206766Y-215074271D01*
X140273433Y-215112366D01*
X140306766Y-215188557D01*
X140306766Y-215264747D01*
X139973433Y-215340938D01*
X140606766Y-215607604D02*
X140606766Y-214807604D01*
X140606766Y-215112366D02*
X140673433Y-215074271D01*
X140806766Y-215074271D01*
X140873433Y-215112366D01*
X140906766Y-215150461D01*
X140940100Y-215226652D01*
X140940100Y-215455223D01*
X140906766Y-215531414D01*
X140873433Y-215569509D01*
X140806766Y-215607604D01*
X140673433Y-215607604D01*
X140606766Y-215569509D01*
X141540100Y-215607604D02*
X141540100Y-215188557D01*
X141506766Y-215112366D01*
X141440100Y-215074271D01*
X141306766Y-215074271D01*
X141240100Y-215112366D01*
X141540100Y-215569509D02*
X141473433Y-215607604D01*
X141306766Y-215607604D01*
X141240100Y-215569509D01*
X141206766Y-215493319D01*
X141206766Y-215417128D01*
X141240100Y-215340938D01*
X141306766Y-215302842D01*
X141473433Y-215302842D01*
X141540100Y-215264747D01*
D12*
X87639456Y-196101028D02*
X87737730Y-196524361D01*
X87941837Y-196101028D01*
X88463444Y-196524361D02*
X88100587Y-196524361D01*
X88282016Y-196524361D02*
X88361391Y-195889361D01*
X88289575Y-195980076D01*
X88221540Y-196040552D01*
X88157284Y-196070790D01*
X88743147Y-196463885D02*
X88769605Y-196494123D01*
X88735587Y-196524361D01*
X88709129Y-196494123D01*
X88743147Y-196463885D01*
X88735587Y-196524361D01*
X89370587Y-196524361D02*
X89007730Y-196524361D01*
X89189159Y-196524361D02*
X89268534Y-195889361D01*
X89196718Y-195980076D01*
X89128682Y-196040552D01*
X89064426Y-196070790D01*
D11*
X78226566Y-234402704D02*
X78226566Y-233602704D01*
X78626566Y-234402704D02*
X78326566Y-233945561D01*
X78626566Y-233602704D02*
X78226566Y-234059847D01*
X78926566Y-234402704D02*
X78926566Y-233869371D01*
X78926566Y-233602704D02*
X78893233Y-233640800D01*
X78926566Y-233678895D01*
X78959900Y-233640800D01*
X78926566Y-233602704D01*
X78926566Y-233678895D01*
X79259900Y-233869371D02*
X79259900Y-234402704D01*
X79259900Y-233945561D02*
X79293233Y-233907466D01*
X79359900Y-233869371D01*
X79459900Y-233869371D01*
X79526566Y-233907466D01*
X79559900Y-233983657D01*
X79559900Y-234402704D01*
X80193233Y-233869371D02*
X80193233Y-234516990D01*
X80159900Y-234593180D01*
X80126566Y-234631276D01*
X80059900Y-234669371D01*
X79959900Y-234669371D01*
X79893233Y-234631276D01*
X80193233Y-234364609D02*
X80126566Y-234402704D01*
X79993233Y-234402704D01*
X79926566Y-234364609D01*
X79893233Y-234326514D01*
X79859900Y-234250323D01*
X79859900Y-234021752D01*
X79893233Y-233945561D01*
X79926566Y-233907466D01*
X79993233Y-233869371D01*
X80126566Y-233869371D01*
X80193233Y-233907466D01*
D12*
X147789456Y-196101028D02*
X147887730Y-196524361D01*
X148091837Y-196101028D01*
X148613444Y-196524361D02*
X148250587Y-196524361D01*
X148432016Y-196524361D02*
X148511391Y-195889361D01*
X148439575Y-195980076D01*
X148371540Y-196040552D01*
X148307284Y-196070790D01*
X148893147Y-196463885D02*
X148919605Y-196494123D01*
X148885587Y-196524361D01*
X148859129Y-196494123D01*
X148893147Y-196463885D01*
X148885587Y-196524361D01*
X149520587Y-196524361D02*
X149157730Y-196524361D01*
X149339159Y-196524361D02*
X149418534Y-195889361D01*
X149346718Y-195980076D01*
X149278682Y-196040552D01*
X149214426Y-196070790D01*
X67589456Y-236201028D02*
X67687730Y-236624361D01*
X67891837Y-236201028D01*
X68413444Y-236624361D02*
X68050587Y-236624361D01*
X68232016Y-236624361D02*
X68311391Y-235989361D01*
X68239575Y-236080076D01*
X68171540Y-236140552D01*
X68107284Y-236170790D01*
X68693147Y-236563885D02*
X68719605Y-236594123D01*
X68685587Y-236624361D01*
X68659129Y-236594123D01*
X68693147Y-236563885D01*
X68685587Y-236624361D01*
X69320587Y-236624361D02*
X68957730Y-236624361D01*
X69139159Y-236624361D02*
X69218534Y-235989361D01*
X69146718Y-236080076D01*
X69078682Y-236140552D01*
X69014426Y-236170790D01*
X67589456Y-196101028D02*
X67687730Y-196524361D01*
X67891837Y-196101028D01*
X68413444Y-196524361D02*
X68050587Y-196524361D01*
X68232016Y-196524361D02*
X68311391Y-195889361D01*
X68239575Y-195980076D01*
X68171540Y-196040552D01*
X68107284Y-196070790D01*
X68693147Y-196463885D02*
X68719605Y-196494123D01*
X68685587Y-196524361D01*
X68659129Y-196494123D01*
X68693147Y-196463885D01*
X68685587Y-196524361D01*
X69320587Y-196524361D02*
X68957730Y-196524361D01*
X69139159Y-196524361D02*
X69218534Y-195889361D01*
X69146718Y-195980076D01*
X69078682Y-196040552D01*
X69014426Y-196070790D01*
D11*
X118326566Y-194452704D02*
X118326566Y-193652704D01*
X118726566Y-194452704D02*
X118426566Y-193995561D01*
X118726566Y-193652704D02*
X118326566Y-194109847D01*
X119026566Y-194452704D02*
X119026566Y-193919371D01*
X119026566Y-193652704D02*
X118993233Y-193690800D01*
X119026566Y-193728895D01*
X119059900Y-193690800D01*
X119026566Y-193652704D01*
X119026566Y-193728895D01*
X119359900Y-193919371D02*
X119359900Y-194452704D01*
X119359900Y-193995561D02*
X119393233Y-193957466D01*
X119459900Y-193919371D01*
X119559900Y-193919371D01*
X119626566Y-193957466D01*
X119659900Y-194033657D01*
X119659900Y-194452704D01*
X120293233Y-193919371D02*
X120293233Y-194566990D01*
X120259900Y-194643180D01*
X120226566Y-194681276D01*
X120159900Y-194719371D01*
X120059900Y-194719371D01*
X119993233Y-194681276D01*
X120293233Y-194414609D02*
X120226566Y-194452704D01*
X120093233Y-194452704D01*
X120026566Y-194414609D01*
X119993233Y-194376514D01*
X119959900Y-194300323D01*
X119959900Y-194071752D01*
X119993233Y-193995561D01*
X120026566Y-193957466D01*
X120093233Y-193919371D01*
X120226566Y-193919371D01*
X120293233Y-193957466D01*
X118326566Y-214502704D02*
X118326566Y-213702704D01*
X118726566Y-214502704D02*
X118426566Y-214045561D01*
X118726566Y-213702704D02*
X118326566Y-214159847D01*
X119026566Y-214502704D02*
X119026566Y-213969371D01*
X119026566Y-213702704D02*
X118993233Y-213740800D01*
X119026566Y-213778895D01*
X119059900Y-213740800D01*
X119026566Y-213702704D01*
X119026566Y-213778895D01*
X119359900Y-213969371D02*
X119359900Y-214502704D01*
X119359900Y-214045561D02*
X119393233Y-214007466D01*
X119459900Y-213969371D01*
X119559900Y-213969371D01*
X119626566Y-214007466D01*
X119659900Y-214083657D01*
X119659900Y-214502704D01*
X120293233Y-213969371D02*
X120293233Y-214616990D01*
X120259900Y-214693180D01*
X120226566Y-214731276D01*
X120159900Y-214769371D01*
X120059900Y-214769371D01*
X119993233Y-214731276D01*
X120293233Y-214464609D02*
X120226566Y-214502704D01*
X120093233Y-214502704D01*
X120026566Y-214464609D01*
X119993233Y-214426514D01*
X119959900Y-214350323D01*
X119959900Y-214121752D01*
X119993233Y-214045561D01*
X120026566Y-214007466D01*
X120093233Y-213969371D01*
X120226566Y-213969371D01*
X120293233Y-214007466D01*
X118326566Y-174402704D02*
X118326566Y-173602704D01*
X118726566Y-174402704D02*
X118426566Y-173945561D01*
X118726566Y-173602704D02*
X118326566Y-174059847D01*
X119026566Y-174402704D02*
X119026566Y-173869371D01*
X119026566Y-173602704D02*
X118993233Y-173640800D01*
X119026566Y-173678895D01*
X119059900Y-173640800D01*
X119026566Y-173602704D01*
X119026566Y-173678895D01*
X119359900Y-173869371D02*
X119359900Y-174402704D01*
X119359900Y-173945561D02*
X119393233Y-173907466D01*
X119459900Y-173869371D01*
X119559900Y-173869371D01*
X119626566Y-173907466D01*
X119659900Y-173983657D01*
X119659900Y-174402704D01*
X120293233Y-173869371D02*
X120293233Y-174516990D01*
X120259900Y-174593180D01*
X120226566Y-174631276D01*
X120159900Y-174669371D01*
X120059900Y-174669371D01*
X119993233Y-174631276D01*
X120293233Y-174364609D02*
X120226566Y-174402704D01*
X120093233Y-174402704D01*
X120026566Y-174364609D01*
X119993233Y-174326514D01*
X119959900Y-174250323D01*
X119959900Y-174021752D01*
X119993233Y-173945561D01*
X120026566Y-173907466D01*
X120093233Y-173869371D01*
X120226566Y-173869371D01*
X120293233Y-173907466D01*
X118326566Y-254602704D02*
X118326566Y-253802704D01*
X118726566Y-254602704D02*
X118426566Y-254145561D01*
X118726566Y-253802704D02*
X118326566Y-254259847D01*
X119026566Y-254602704D02*
X119026566Y-254069371D01*
X119026566Y-253802704D02*
X118993233Y-253840800D01*
X119026566Y-253878895D01*
X119059900Y-253840800D01*
X119026566Y-253802704D01*
X119026566Y-253878895D01*
X119359900Y-254069371D02*
X119359900Y-254602704D01*
X119359900Y-254145561D02*
X119393233Y-254107466D01*
X119459900Y-254069371D01*
X119559900Y-254069371D01*
X119626566Y-254107466D01*
X119659900Y-254183657D01*
X119659900Y-254602704D01*
X120293233Y-254069371D02*
X120293233Y-254716990D01*
X120259900Y-254793180D01*
X120226566Y-254831276D01*
X120159900Y-254869371D01*
X120059900Y-254869371D01*
X119993233Y-254831276D01*
X120293233Y-254564609D02*
X120226566Y-254602704D01*
X120093233Y-254602704D01*
X120026566Y-254564609D01*
X119993233Y-254526514D01*
X119959900Y-254450323D01*
X119959900Y-254221752D01*
X119993233Y-254145561D01*
X120026566Y-254107466D01*
X120093233Y-254069371D01*
X120226566Y-254069371D01*
X120293233Y-254107466D01*
X157856766Y-255479033D02*
X158190100Y-255479033D01*
X157790100Y-255707604D02*
X158023433Y-254907604D01*
X158256766Y-255707604D01*
X158490100Y-255707604D02*
X158490100Y-255174271D01*
X158490100Y-255250461D02*
X158523433Y-255212366D01*
X158590100Y-255174271D01*
X158690100Y-255174271D01*
X158756766Y-255212366D01*
X158790100Y-255288557D01*
X158790100Y-255707604D01*
X158790100Y-255288557D02*
X158823433Y-255212366D01*
X158890100Y-255174271D01*
X158990100Y-255174271D01*
X159056766Y-255212366D01*
X159090100Y-255288557D01*
X159090100Y-255707604D01*
X159523433Y-255707604D02*
X159456766Y-255669509D01*
X159423433Y-255631414D01*
X159390100Y-255555223D01*
X159390100Y-255326652D01*
X159423433Y-255250461D01*
X159456766Y-255212366D01*
X159523433Y-255174271D01*
X159623433Y-255174271D01*
X159690100Y-255212366D01*
X159723433Y-255250461D01*
X159756766Y-255326652D01*
X159756766Y-255555223D01*
X159723433Y-255631414D01*
X159690100Y-255669509D01*
X159623433Y-255707604D01*
X159523433Y-255707604D01*
X160323433Y-255669509D02*
X160256766Y-255707604D01*
X160123433Y-255707604D01*
X160056766Y-255669509D01*
X160023433Y-255593319D01*
X160023433Y-255288557D01*
X160056766Y-255212366D01*
X160123433Y-255174271D01*
X160256766Y-255174271D01*
X160323433Y-255212366D01*
X160356766Y-255288557D01*
X160356766Y-255364747D01*
X160023433Y-255440938D01*
X160656766Y-255707604D02*
X160656766Y-254907604D01*
X160656766Y-255212366D02*
X160723433Y-255174271D01*
X160856766Y-255174271D01*
X160923433Y-255212366D01*
X160956766Y-255250461D01*
X160990100Y-255326652D01*
X160990100Y-255555223D01*
X160956766Y-255631414D01*
X160923433Y-255669509D01*
X160856766Y-255707604D01*
X160723433Y-255707604D01*
X160656766Y-255669509D01*
X161590100Y-255707604D02*
X161590100Y-255288557D01*
X161556766Y-255212366D01*
X161490100Y-255174271D01*
X161356766Y-255174271D01*
X161290100Y-255212366D01*
X161590100Y-255669509D02*
X161523433Y-255707604D01*
X161356766Y-255707604D01*
X161290100Y-255669509D01*
X161256766Y-255593319D01*
X161256766Y-255517128D01*
X161290100Y-255440938D01*
X161356766Y-255402842D01*
X161523433Y-255402842D01*
X161590100Y-255364747D01*
X138376566Y-214502704D02*
X138376566Y-213702704D01*
X138776566Y-214502704D02*
X138476566Y-214045561D01*
X138776566Y-213702704D02*
X138376566Y-214159847D01*
X139076566Y-214502704D02*
X139076566Y-213969371D01*
X139076566Y-213702704D02*
X139043233Y-213740800D01*
X139076566Y-213778895D01*
X139109900Y-213740800D01*
X139076566Y-213702704D01*
X139076566Y-213778895D01*
X139409900Y-213969371D02*
X139409900Y-214502704D01*
X139409900Y-214045561D02*
X139443233Y-214007466D01*
X139509900Y-213969371D01*
X139609900Y-213969371D01*
X139676566Y-214007466D01*
X139709900Y-214083657D01*
X139709900Y-214502704D01*
X140343233Y-213969371D02*
X140343233Y-214616990D01*
X140309900Y-214693180D01*
X140276566Y-214731276D01*
X140209900Y-214769371D01*
X140109900Y-214769371D01*
X140043233Y-214731276D01*
X140343233Y-214464609D02*
X140276566Y-214502704D01*
X140143233Y-214502704D01*
X140076566Y-214464609D01*
X140043233Y-214426514D01*
X140009900Y-214350323D01*
X140009900Y-214121752D01*
X140043233Y-214045561D01*
X140076566Y-214007466D01*
X140143233Y-213969371D01*
X140276566Y-213969371D01*
X140343233Y-214007466D01*
D12*
X107689456Y-196101028D02*
X107787730Y-196524361D01*
X107991837Y-196101028D01*
X108513444Y-196524361D02*
X108150587Y-196524361D01*
X108332016Y-196524361D02*
X108411391Y-195889361D01*
X108339575Y-195980076D01*
X108271540Y-196040552D01*
X108207284Y-196070790D01*
X108793147Y-196463885D02*
X108819605Y-196494123D01*
X108785587Y-196524361D01*
X108759129Y-196494123D01*
X108793147Y-196463885D01*
X108785587Y-196524361D01*
X109420587Y-196524361D02*
X109057730Y-196524361D01*
X109239159Y-196524361D02*
X109318534Y-195889361D01*
X109246718Y-195980076D01*
X109178682Y-196040552D01*
X109114426Y-196070790D01*
X67589456Y-236051028D02*
X67687730Y-236474361D01*
X67891837Y-236051028D01*
X68413444Y-236474361D02*
X68050587Y-236474361D01*
X68232016Y-236474361D02*
X68311391Y-235839361D01*
X68239575Y-235930076D01*
X68171540Y-235990552D01*
X68107284Y-236020790D01*
X68693147Y-236413885D02*
X68719605Y-236444123D01*
X68685587Y-236474361D01*
X68659129Y-236444123D01*
X68693147Y-236413885D01*
X68685587Y-236474361D01*
X69320587Y-236474361D02*
X68957730Y-236474361D01*
X69139159Y-236474361D02*
X69218534Y-235839361D01*
X69146718Y-235930076D01*
X69078682Y-235990552D01*
X69014426Y-236020790D01*
D11*
X98276566Y-194452704D02*
X98276566Y-193652704D01*
X98676566Y-194452704D02*
X98376566Y-193995561D01*
X98676566Y-193652704D02*
X98276566Y-194109847D01*
X98976566Y-194452704D02*
X98976566Y-193919371D01*
X98976566Y-193652704D02*
X98943233Y-193690800D01*
X98976566Y-193728895D01*
X99009900Y-193690800D01*
X98976566Y-193652704D01*
X98976566Y-193728895D01*
X99309900Y-193919371D02*
X99309900Y-194452704D01*
X99309900Y-193995561D02*
X99343233Y-193957466D01*
X99409900Y-193919371D01*
X99509900Y-193919371D01*
X99576566Y-193957466D01*
X99609900Y-194033657D01*
X99609900Y-194452704D01*
X100243233Y-193919371D02*
X100243233Y-194566990D01*
X100209900Y-194643180D01*
X100176566Y-194681276D01*
X100109900Y-194719371D01*
X100009900Y-194719371D01*
X99943233Y-194681276D01*
X100243233Y-194414609D02*
X100176566Y-194452704D01*
X100043233Y-194452704D01*
X99976566Y-194414609D01*
X99943233Y-194376514D01*
X99909900Y-194300323D01*
X99909900Y-194071752D01*
X99943233Y-193995561D01*
X99976566Y-193957466D01*
X100043233Y-193919371D01*
X100176566Y-193919371D01*
X100243233Y-193957466D01*
X117756766Y-175279033D02*
X118090100Y-175279033D01*
X117690100Y-175507604D02*
X117923433Y-174707604D01*
X118156766Y-175507604D01*
X118390100Y-175507604D02*
X118390100Y-174974271D01*
X118390100Y-175050461D02*
X118423433Y-175012366D01*
X118490100Y-174974271D01*
X118590100Y-174974271D01*
X118656766Y-175012366D01*
X118690100Y-175088557D01*
X118690100Y-175507604D01*
X118690100Y-175088557D02*
X118723433Y-175012366D01*
X118790100Y-174974271D01*
X118890100Y-174974271D01*
X118956766Y-175012366D01*
X118990100Y-175088557D01*
X118990100Y-175507604D01*
X119423433Y-175507604D02*
X119356766Y-175469509D01*
X119323433Y-175431414D01*
X119290100Y-175355223D01*
X119290100Y-175126652D01*
X119323433Y-175050461D01*
X119356766Y-175012366D01*
X119423433Y-174974271D01*
X119523433Y-174974271D01*
X119590100Y-175012366D01*
X119623433Y-175050461D01*
X119656766Y-175126652D01*
X119656766Y-175355223D01*
X119623433Y-175431414D01*
X119590100Y-175469509D01*
X119523433Y-175507604D01*
X119423433Y-175507604D01*
X120223433Y-175469509D02*
X120156766Y-175507604D01*
X120023433Y-175507604D01*
X119956766Y-175469509D01*
X119923433Y-175393319D01*
X119923433Y-175088557D01*
X119956766Y-175012366D01*
X120023433Y-174974271D01*
X120156766Y-174974271D01*
X120223433Y-175012366D01*
X120256766Y-175088557D01*
X120256766Y-175164747D01*
X119923433Y-175240938D01*
X120556766Y-175507604D02*
X120556766Y-174707604D01*
X120556766Y-175012366D02*
X120623433Y-174974271D01*
X120756766Y-174974271D01*
X120823433Y-175012366D01*
X120856766Y-175050461D01*
X120890100Y-175126652D01*
X120890100Y-175355223D01*
X120856766Y-175431414D01*
X120823433Y-175469509D01*
X120756766Y-175507604D01*
X120623433Y-175507604D01*
X120556766Y-175469509D01*
X121490100Y-175507604D02*
X121490100Y-175088557D01*
X121456766Y-175012366D01*
X121390100Y-174974271D01*
X121256766Y-174974271D01*
X121190100Y-175012366D01*
X121490100Y-175469509D02*
X121423433Y-175507604D01*
X121256766Y-175507604D01*
X121190100Y-175469509D01*
X121156766Y-175393319D01*
X121156766Y-175317128D01*
X121190100Y-175240938D01*
X121256766Y-175202842D01*
X121423433Y-175202842D01*
X121490100Y-175164747D01*
X118326566Y-234552704D02*
X118326566Y-233752704D01*
X118726566Y-234552704D02*
X118426566Y-234095561D01*
X118726566Y-233752704D02*
X118326566Y-234209847D01*
X119026566Y-234552704D02*
X119026566Y-234019371D01*
X119026566Y-233752704D02*
X118993233Y-233790800D01*
X119026566Y-233828895D01*
X119059900Y-233790800D01*
X119026566Y-233752704D01*
X119026566Y-233828895D01*
X119359900Y-234019371D02*
X119359900Y-234552704D01*
X119359900Y-234095561D02*
X119393233Y-234057466D01*
X119459900Y-234019371D01*
X119559900Y-234019371D01*
X119626566Y-234057466D01*
X119659900Y-234133657D01*
X119659900Y-234552704D01*
X120293233Y-234019371D02*
X120293233Y-234666990D01*
X120259900Y-234743180D01*
X120226566Y-234781276D01*
X120159900Y-234819371D01*
X120059900Y-234819371D01*
X119993233Y-234781276D01*
X120293233Y-234514609D02*
X120226566Y-234552704D01*
X120093233Y-234552704D01*
X120026566Y-234514609D01*
X119993233Y-234476514D01*
X119959900Y-234400323D01*
X119959900Y-234171752D01*
X119993233Y-234095561D01*
X120026566Y-234057466D01*
X120093233Y-234019371D01*
X120226566Y-234019371D01*
X120293233Y-234057466D01*
D12*
X127739456Y-256251028D02*
X127837730Y-256674361D01*
X128041837Y-256251028D01*
X128563444Y-256674361D02*
X128200587Y-256674361D01*
X128382016Y-256674361D02*
X128461391Y-256039361D01*
X128389575Y-256130076D01*
X128321540Y-256190552D01*
X128257284Y-256220790D01*
X128843147Y-256613885D02*
X128869605Y-256644123D01*
X128835587Y-256674361D01*
X128809129Y-256644123D01*
X128843147Y-256613885D01*
X128835587Y-256674361D01*
X129470587Y-256674361D02*
X129107730Y-256674361D01*
X129289159Y-256674361D02*
X129368534Y-256039361D01*
X129296718Y-256130076D01*
X129228682Y-256190552D01*
X129164426Y-256220790D01*
D11*
X77656766Y-195329033D02*
X77990100Y-195329033D01*
X77590100Y-195557604D02*
X77823433Y-194757604D01*
X78056766Y-195557604D01*
X78290100Y-195557604D02*
X78290100Y-195024271D01*
X78290100Y-195100461D02*
X78323433Y-195062366D01*
X78390100Y-195024271D01*
X78490100Y-195024271D01*
X78556766Y-195062366D01*
X78590100Y-195138557D01*
X78590100Y-195557604D01*
X78590100Y-195138557D02*
X78623433Y-195062366D01*
X78690100Y-195024271D01*
X78790100Y-195024271D01*
X78856766Y-195062366D01*
X78890100Y-195138557D01*
X78890100Y-195557604D01*
X79323433Y-195557604D02*
X79256766Y-195519509D01*
X79223433Y-195481414D01*
X79190100Y-195405223D01*
X79190100Y-195176652D01*
X79223433Y-195100461D01*
X79256766Y-195062366D01*
X79323433Y-195024271D01*
X79423433Y-195024271D01*
X79490100Y-195062366D01*
X79523433Y-195100461D01*
X79556766Y-195176652D01*
X79556766Y-195405223D01*
X79523433Y-195481414D01*
X79490100Y-195519509D01*
X79423433Y-195557604D01*
X79323433Y-195557604D01*
X80123433Y-195519509D02*
X80056766Y-195557604D01*
X79923433Y-195557604D01*
X79856766Y-195519509D01*
X79823433Y-195443319D01*
X79823433Y-195138557D01*
X79856766Y-195062366D01*
X79923433Y-195024271D01*
X80056766Y-195024271D01*
X80123433Y-195062366D01*
X80156766Y-195138557D01*
X80156766Y-195214747D01*
X79823433Y-195290938D01*
X80456766Y-195557604D02*
X80456766Y-194757604D01*
X80456766Y-195062366D02*
X80523433Y-195024271D01*
X80656766Y-195024271D01*
X80723433Y-195062366D01*
X80756766Y-195100461D01*
X80790100Y-195176652D01*
X80790100Y-195405223D01*
X80756766Y-195481414D01*
X80723433Y-195519509D01*
X80656766Y-195557604D01*
X80523433Y-195557604D01*
X80456766Y-195519509D01*
X81390100Y-195557604D02*
X81390100Y-195138557D01*
X81356766Y-195062366D01*
X81290100Y-195024271D01*
X81156766Y-195024271D01*
X81090100Y-195062366D01*
X81390100Y-195519509D02*
X81323433Y-195557604D01*
X81156766Y-195557604D01*
X81090100Y-195519509D01*
X81056766Y-195443319D01*
X81056766Y-195367128D01*
X81090100Y-195290938D01*
X81156766Y-195252842D01*
X81323433Y-195252842D01*
X81390100Y-195214747D01*
X117756766Y-215379033D02*
X118090100Y-215379033D01*
X117690100Y-215607604D02*
X117923433Y-214807604D01*
X118156766Y-215607604D01*
X118390100Y-215607604D02*
X118390100Y-215074271D01*
X118390100Y-215150461D02*
X118423433Y-215112366D01*
X118490100Y-215074271D01*
X118590100Y-215074271D01*
X118656766Y-215112366D01*
X118690100Y-215188557D01*
X118690100Y-215607604D01*
X118690100Y-215188557D02*
X118723433Y-215112366D01*
X118790100Y-215074271D01*
X118890100Y-215074271D01*
X118956766Y-215112366D01*
X118990100Y-215188557D01*
X118990100Y-215607604D01*
X119423433Y-215607604D02*
X119356766Y-215569509D01*
X119323433Y-215531414D01*
X119290100Y-215455223D01*
X119290100Y-215226652D01*
X119323433Y-215150461D01*
X119356766Y-215112366D01*
X119423433Y-215074271D01*
X119523433Y-215074271D01*
X119590100Y-215112366D01*
X119623433Y-215150461D01*
X119656766Y-215226652D01*
X119656766Y-215455223D01*
X119623433Y-215531414D01*
X119590100Y-215569509D01*
X119523433Y-215607604D01*
X119423433Y-215607604D01*
X120223433Y-215569509D02*
X120156766Y-215607604D01*
X120023433Y-215607604D01*
X119956766Y-215569509D01*
X119923433Y-215493319D01*
X119923433Y-215188557D01*
X119956766Y-215112366D01*
X120023433Y-215074271D01*
X120156766Y-215074271D01*
X120223433Y-215112366D01*
X120256766Y-215188557D01*
X120256766Y-215264747D01*
X119923433Y-215340938D01*
X120556766Y-215607604D02*
X120556766Y-214807604D01*
X120556766Y-215112366D02*
X120623433Y-215074271D01*
X120756766Y-215074271D01*
X120823433Y-215112366D01*
X120856766Y-215150461D01*
X120890100Y-215226652D01*
X120890100Y-215455223D01*
X120856766Y-215531414D01*
X120823433Y-215569509D01*
X120756766Y-215607604D01*
X120623433Y-215607604D01*
X120556766Y-215569509D01*
X121490100Y-215607604D02*
X121490100Y-215188557D01*
X121456766Y-215112366D01*
X121390100Y-215074271D01*
X121256766Y-215074271D01*
X121190100Y-215112366D01*
X121490100Y-215569509D02*
X121423433Y-215607604D01*
X121256766Y-215607604D01*
X121190100Y-215569509D01*
X121156766Y-215493319D01*
X121156766Y-215417128D01*
X121190100Y-215340938D01*
X121256766Y-215302842D01*
X121423433Y-215302842D01*
X121490100Y-215264747D01*
D12*
X127739456Y-176051028D02*
X127837730Y-176474361D01*
X128041837Y-176051028D01*
X128563444Y-176474361D02*
X128200587Y-176474361D01*
X128382016Y-176474361D02*
X128461391Y-175839361D01*
X128389575Y-175930076D01*
X128321540Y-175990552D01*
X128257284Y-176020790D01*
X128843147Y-176413885D02*
X128869605Y-176444123D01*
X128835587Y-176474361D01*
X128809129Y-176444123D01*
X128843147Y-176413885D01*
X128835587Y-176474361D01*
X129470587Y-176474361D02*
X129107730Y-176474361D01*
X129289159Y-176474361D02*
X129368534Y-175839361D01*
X129296718Y-175930076D01*
X129228682Y-175990552D01*
X129164426Y-176020790D01*
D11*
X158426566Y-234552704D02*
X158426566Y-233752704D01*
X158826566Y-234552704D02*
X158526566Y-234095561D01*
X158826566Y-233752704D02*
X158426566Y-234209847D01*
X159126566Y-234552704D02*
X159126566Y-234019371D01*
X159126566Y-233752704D02*
X159093233Y-233790800D01*
X159126566Y-233828895D01*
X159159900Y-233790800D01*
X159126566Y-233752704D01*
X159126566Y-233828895D01*
X159459900Y-234019371D02*
X159459900Y-234552704D01*
X159459900Y-234095561D02*
X159493233Y-234057466D01*
X159559900Y-234019371D01*
X159659900Y-234019371D01*
X159726566Y-234057466D01*
X159759900Y-234133657D01*
X159759900Y-234552704D01*
X160393233Y-234019371D02*
X160393233Y-234666990D01*
X160359900Y-234743180D01*
X160326566Y-234781276D01*
X160259900Y-234819371D01*
X160159900Y-234819371D01*
X160093233Y-234781276D01*
X160393233Y-234514609D02*
X160326566Y-234552704D01*
X160193233Y-234552704D01*
X160126566Y-234514609D01*
X160093233Y-234476514D01*
X160059900Y-234400323D01*
X160059900Y-234171752D01*
X160093233Y-234095561D01*
X160126566Y-234057466D01*
X160193233Y-234019371D01*
X160326566Y-234019371D01*
X160393233Y-234057466D01*
X98276566Y-214502704D02*
X98276566Y-213702704D01*
X98676566Y-214502704D02*
X98376566Y-214045561D01*
X98676566Y-213702704D02*
X98276566Y-214159847D01*
X98976566Y-214502704D02*
X98976566Y-213969371D01*
X98976566Y-213702704D02*
X98943233Y-213740800D01*
X98976566Y-213778895D01*
X99009900Y-213740800D01*
X98976566Y-213702704D01*
X98976566Y-213778895D01*
X99309900Y-213969371D02*
X99309900Y-214502704D01*
X99309900Y-214045561D02*
X99343233Y-214007466D01*
X99409900Y-213969371D01*
X99509900Y-213969371D01*
X99576566Y-214007466D01*
X99609900Y-214083657D01*
X99609900Y-214502704D01*
X100243233Y-213969371D02*
X100243233Y-214616990D01*
X100209900Y-214693180D01*
X100176566Y-214731276D01*
X100109900Y-214769371D01*
X100009900Y-214769371D01*
X99943233Y-214731276D01*
X100243233Y-214464609D02*
X100176566Y-214502704D01*
X100043233Y-214502704D01*
X99976566Y-214464609D01*
X99943233Y-214426514D01*
X99909900Y-214350323D01*
X99909900Y-214121752D01*
X99943233Y-214045561D01*
X99976566Y-214007466D01*
X100043233Y-213969371D01*
X100176566Y-213969371D01*
X100243233Y-214007466D01*
D12*
X147789456Y-236201028D02*
X147887730Y-236624361D01*
X148091837Y-236201028D01*
X148613444Y-236624361D02*
X148250587Y-236624361D01*
X148432016Y-236624361D02*
X148511391Y-235989361D01*
X148439575Y-236080076D01*
X148371540Y-236140552D01*
X148307284Y-236170790D01*
X148893147Y-236563885D02*
X148919605Y-236594123D01*
X148885587Y-236624361D01*
X148859129Y-236594123D01*
X148893147Y-236563885D01*
X148885587Y-236624361D01*
X149520587Y-236624361D02*
X149157730Y-236624361D01*
X149339159Y-236624361D02*
X149418534Y-235989361D01*
X149346718Y-236080076D01*
X149278682Y-236140552D01*
X149214426Y-236170790D01*
D11*
X137806766Y-235429033D02*
X138140100Y-235429033D01*
X137740100Y-235657604D02*
X137973433Y-234857604D01*
X138206766Y-235657604D01*
X138440100Y-235657604D02*
X138440100Y-235124271D01*
X138440100Y-235200461D02*
X138473433Y-235162366D01*
X138540100Y-235124271D01*
X138640100Y-235124271D01*
X138706766Y-235162366D01*
X138740100Y-235238557D01*
X138740100Y-235657604D01*
X138740100Y-235238557D02*
X138773433Y-235162366D01*
X138840100Y-235124271D01*
X138940100Y-235124271D01*
X139006766Y-235162366D01*
X139040100Y-235238557D01*
X139040100Y-235657604D01*
X139473433Y-235657604D02*
X139406766Y-235619509D01*
X139373433Y-235581414D01*
X139340100Y-235505223D01*
X139340100Y-235276652D01*
X139373433Y-235200461D01*
X139406766Y-235162366D01*
X139473433Y-235124271D01*
X139573433Y-235124271D01*
X139640100Y-235162366D01*
X139673433Y-235200461D01*
X139706766Y-235276652D01*
X139706766Y-235505223D01*
X139673433Y-235581414D01*
X139640100Y-235619509D01*
X139573433Y-235657604D01*
X139473433Y-235657604D01*
X140273433Y-235619509D02*
X140206766Y-235657604D01*
X140073433Y-235657604D01*
X140006766Y-235619509D01*
X139973433Y-235543319D01*
X139973433Y-235238557D01*
X140006766Y-235162366D01*
X140073433Y-235124271D01*
X140206766Y-235124271D01*
X140273433Y-235162366D01*
X140306766Y-235238557D01*
X140306766Y-235314747D01*
X139973433Y-235390938D01*
X140606766Y-235657604D02*
X140606766Y-234857604D01*
X140606766Y-235162366D02*
X140673433Y-235124271D01*
X140806766Y-235124271D01*
X140873433Y-235162366D01*
X140906766Y-235200461D01*
X140940100Y-235276652D01*
X140940100Y-235505223D01*
X140906766Y-235581414D01*
X140873433Y-235619509D01*
X140806766Y-235657604D01*
X140673433Y-235657604D01*
X140606766Y-235619509D01*
X141540100Y-235657604D02*
X141540100Y-235238557D01*
X141506766Y-235162366D01*
X141440100Y-235124271D01*
X141306766Y-235124271D01*
X141240100Y-235162366D01*
X141540100Y-235619509D02*
X141473433Y-235657604D01*
X141306766Y-235657604D01*
X141240100Y-235619509D01*
X141206766Y-235543319D01*
X141206766Y-235467128D01*
X141240100Y-235390938D01*
X141306766Y-235352842D01*
X141473433Y-235352842D01*
X141540100Y-235314747D01*
X137806766Y-255479033D02*
X138140100Y-255479033D01*
X137740100Y-255707604D02*
X137973433Y-254907604D01*
X138206766Y-255707604D01*
X138440100Y-255707604D02*
X138440100Y-255174271D01*
X138440100Y-255250461D02*
X138473433Y-255212366D01*
X138540100Y-255174271D01*
X138640100Y-255174271D01*
X138706766Y-255212366D01*
X138740100Y-255288557D01*
X138740100Y-255707604D01*
X138740100Y-255288557D02*
X138773433Y-255212366D01*
X138840100Y-255174271D01*
X138940100Y-255174271D01*
X139006766Y-255212366D01*
X139040100Y-255288557D01*
X139040100Y-255707604D01*
X139473433Y-255707604D02*
X139406766Y-255669509D01*
X139373433Y-255631414D01*
X139340100Y-255555223D01*
X139340100Y-255326652D01*
X139373433Y-255250461D01*
X139406766Y-255212366D01*
X139473433Y-255174271D01*
X139573433Y-255174271D01*
X139640100Y-255212366D01*
X139673433Y-255250461D01*
X139706766Y-255326652D01*
X139706766Y-255555223D01*
X139673433Y-255631414D01*
X139640100Y-255669509D01*
X139573433Y-255707604D01*
X139473433Y-255707604D01*
X140273433Y-255669509D02*
X140206766Y-255707604D01*
X140073433Y-255707604D01*
X140006766Y-255669509D01*
X139973433Y-255593319D01*
X139973433Y-255288557D01*
X140006766Y-255212366D01*
X140073433Y-255174271D01*
X140206766Y-255174271D01*
X140273433Y-255212366D01*
X140306766Y-255288557D01*
X140306766Y-255364747D01*
X139973433Y-255440938D01*
X140606766Y-255707604D02*
X140606766Y-254907604D01*
X140606766Y-255212366D02*
X140673433Y-255174271D01*
X140806766Y-255174271D01*
X140873433Y-255212366D01*
X140906766Y-255250461D01*
X140940100Y-255326652D01*
X140940100Y-255555223D01*
X140906766Y-255631414D01*
X140873433Y-255669509D01*
X140806766Y-255707604D01*
X140673433Y-255707604D01*
X140606766Y-255669509D01*
X141540100Y-255707604D02*
X141540100Y-255288557D01*
X141506766Y-255212366D01*
X141440100Y-255174271D01*
X141306766Y-255174271D01*
X141240100Y-255212366D01*
X141540100Y-255669509D02*
X141473433Y-255707604D01*
X141306766Y-255707604D01*
X141240100Y-255669509D01*
X141206766Y-255593319D01*
X141206766Y-255517128D01*
X141240100Y-255440938D01*
X141306766Y-255402842D01*
X141473433Y-255402842D01*
X141540100Y-255364747D01*
X98276566Y-234552704D02*
X98276566Y-233752704D01*
X98676566Y-234552704D02*
X98376566Y-234095561D01*
X98676566Y-233752704D02*
X98276566Y-234209847D01*
X98976566Y-234552704D02*
X98976566Y-234019371D01*
X98976566Y-233752704D02*
X98943233Y-233790800D01*
X98976566Y-233828895D01*
X99009900Y-233790800D01*
X98976566Y-233752704D01*
X98976566Y-233828895D01*
X99309900Y-234019371D02*
X99309900Y-234552704D01*
X99309900Y-234095561D02*
X99343233Y-234057466D01*
X99409900Y-234019371D01*
X99509900Y-234019371D01*
X99576566Y-234057466D01*
X99609900Y-234133657D01*
X99609900Y-234552704D01*
X100243233Y-234019371D02*
X100243233Y-234666990D01*
X100209900Y-234743180D01*
X100176566Y-234781276D01*
X100109900Y-234819371D01*
X100009900Y-234819371D01*
X99943233Y-234781276D01*
X100243233Y-234514609D02*
X100176566Y-234552704D01*
X100043233Y-234552704D01*
X99976566Y-234514609D01*
X99943233Y-234476514D01*
X99909900Y-234400323D01*
X99909900Y-234171752D01*
X99943233Y-234095561D01*
X99976566Y-234057466D01*
X100043233Y-234019371D01*
X100176566Y-234019371D01*
X100243233Y-234057466D01*
D12*
X107689456Y-256251028D02*
X107787730Y-256674361D01*
X107991837Y-256251028D01*
X108513444Y-256674361D02*
X108150587Y-256674361D01*
X108332016Y-256674361D02*
X108411391Y-256039361D01*
X108339575Y-256130076D01*
X108271540Y-256190552D01*
X108207284Y-256220790D01*
X108793147Y-256613885D02*
X108819605Y-256644123D01*
X108785587Y-256674361D01*
X108759129Y-256644123D01*
X108793147Y-256613885D01*
X108785587Y-256674361D01*
X109420587Y-256674361D02*
X109057730Y-256674361D01*
X109239159Y-256674361D02*
X109318534Y-256039361D01*
X109246718Y-256130076D01*
X109178682Y-256190552D01*
X109114426Y-256220790D01*
D11*
X138376566Y-174402704D02*
X138376566Y-173602704D01*
X138776566Y-174402704D02*
X138476566Y-173945561D01*
X138776566Y-173602704D02*
X138376566Y-174059847D01*
X139076566Y-174402704D02*
X139076566Y-173869371D01*
X139076566Y-173602704D02*
X139043233Y-173640800D01*
X139076566Y-173678895D01*
X139109900Y-173640800D01*
X139076566Y-173602704D01*
X139076566Y-173678895D01*
X139409900Y-173869371D02*
X139409900Y-174402704D01*
X139409900Y-173945561D02*
X139443233Y-173907466D01*
X139509900Y-173869371D01*
X139609900Y-173869371D01*
X139676566Y-173907466D01*
X139709900Y-173983657D01*
X139709900Y-174402704D01*
X140343233Y-173869371D02*
X140343233Y-174516990D01*
X140309900Y-174593180D01*
X140276566Y-174631276D01*
X140209900Y-174669371D01*
X140109900Y-174669371D01*
X140043233Y-174631276D01*
X140343233Y-174364609D02*
X140276566Y-174402704D01*
X140143233Y-174402704D01*
X140076566Y-174364609D01*
X140043233Y-174326514D01*
X140009900Y-174250323D01*
X140009900Y-174021752D01*
X140043233Y-173945561D01*
X140076566Y-173907466D01*
X140143233Y-173869371D01*
X140276566Y-173869371D01*
X140343233Y-173907466D01*
X157856766Y-195329033D02*
X158190100Y-195329033D01*
X157790100Y-195557604D02*
X158023433Y-194757604D01*
X158256766Y-195557604D01*
X158490100Y-195557604D02*
X158490100Y-195024271D01*
X158490100Y-195100461D02*
X158523433Y-195062366D01*
X158590100Y-195024271D01*
X158690100Y-195024271D01*
X158756766Y-195062366D01*
X158790100Y-195138557D01*
X158790100Y-195557604D01*
X158790100Y-195138557D02*
X158823433Y-195062366D01*
X158890100Y-195024271D01*
X158990100Y-195024271D01*
X159056766Y-195062366D01*
X159090100Y-195138557D01*
X159090100Y-195557604D01*
X159523433Y-195557604D02*
X159456766Y-195519509D01*
X159423433Y-195481414D01*
X159390100Y-195405223D01*
X159390100Y-195176652D01*
X159423433Y-195100461D01*
X159456766Y-195062366D01*
X159523433Y-195024271D01*
X159623433Y-195024271D01*
X159690100Y-195062366D01*
X159723433Y-195100461D01*
X159756766Y-195176652D01*
X159756766Y-195405223D01*
X159723433Y-195481414D01*
X159690100Y-195519509D01*
X159623433Y-195557604D01*
X159523433Y-195557604D01*
X160323433Y-195519509D02*
X160256766Y-195557604D01*
X160123433Y-195557604D01*
X160056766Y-195519509D01*
X160023433Y-195443319D01*
X160023433Y-195138557D01*
X160056766Y-195062366D01*
X160123433Y-195024271D01*
X160256766Y-195024271D01*
X160323433Y-195062366D01*
X160356766Y-195138557D01*
X160356766Y-195214747D01*
X160023433Y-195290938D01*
X160656766Y-195557604D02*
X160656766Y-194757604D01*
X160656766Y-195062366D02*
X160723433Y-195024271D01*
X160856766Y-195024271D01*
X160923433Y-195062366D01*
X160956766Y-195100461D01*
X160990100Y-195176652D01*
X160990100Y-195405223D01*
X160956766Y-195481414D01*
X160923433Y-195519509D01*
X160856766Y-195557604D01*
X160723433Y-195557604D01*
X160656766Y-195519509D01*
X161590100Y-195557604D02*
X161590100Y-195138557D01*
X161556766Y-195062366D01*
X161490100Y-195024271D01*
X161356766Y-195024271D01*
X161290100Y-195062366D01*
X161590100Y-195519509D02*
X161523433Y-195557604D01*
X161356766Y-195557604D01*
X161290100Y-195519509D01*
X161256766Y-195443319D01*
X161256766Y-195367128D01*
X161290100Y-195290938D01*
X161356766Y-195252842D01*
X161523433Y-195252842D01*
X161590100Y-195214747D01*
D12*
X87639456Y-176051028D02*
X87737730Y-176474361D01*
X87941837Y-176051028D01*
X88463444Y-176474361D02*
X88100587Y-176474361D01*
X88282016Y-176474361D02*
X88361391Y-175839361D01*
X88289575Y-175930076D01*
X88221540Y-175990552D01*
X88157284Y-176020790D01*
X88743147Y-176413885D02*
X88769605Y-176444123D01*
X88735587Y-176474361D01*
X88709129Y-176444123D01*
X88743147Y-176413885D01*
X88735587Y-176474361D01*
X89370587Y-176474361D02*
X89007730Y-176474361D01*
X89189159Y-176474361D02*
X89268534Y-175839361D01*
X89196718Y-175930076D01*
X89128682Y-175990552D01*
X89064426Y-176020790D01*
D11*
X157856766Y-215379033D02*
X158190100Y-215379033D01*
X157790100Y-215607604D02*
X158023433Y-214807604D01*
X158256766Y-215607604D01*
X158490100Y-215607604D02*
X158490100Y-215074271D01*
X158490100Y-215150461D02*
X158523433Y-215112366D01*
X158590100Y-215074271D01*
X158690100Y-215074271D01*
X158756766Y-215112366D01*
X158790100Y-215188557D01*
X158790100Y-215607604D01*
X158790100Y-215188557D02*
X158823433Y-215112366D01*
X158890100Y-215074271D01*
X158990100Y-215074271D01*
X159056766Y-215112366D01*
X159090100Y-215188557D01*
X159090100Y-215607604D01*
X159523433Y-215607604D02*
X159456766Y-215569509D01*
X159423433Y-215531414D01*
X159390100Y-215455223D01*
X159390100Y-215226652D01*
X159423433Y-215150461D01*
X159456766Y-215112366D01*
X159523433Y-215074271D01*
X159623433Y-215074271D01*
X159690100Y-215112366D01*
X159723433Y-215150461D01*
X159756766Y-215226652D01*
X159756766Y-215455223D01*
X159723433Y-215531414D01*
X159690100Y-215569509D01*
X159623433Y-215607604D01*
X159523433Y-215607604D01*
X160323433Y-215569509D02*
X160256766Y-215607604D01*
X160123433Y-215607604D01*
X160056766Y-215569509D01*
X160023433Y-215493319D01*
X160023433Y-215188557D01*
X160056766Y-215112366D01*
X160123433Y-215074271D01*
X160256766Y-215074271D01*
X160323433Y-215112366D01*
X160356766Y-215188557D01*
X160356766Y-215264747D01*
X160023433Y-215340938D01*
X160656766Y-215607604D02*
X160656766Y-214807604D01*
X160656766Y-215112366D02*
X160723433Y-215074271D01*
X160856766Y-215074271D01*
X160923433Y-215112366D01*
X160956766Y-215150461D01*
X160990100Y-215226652D01*
X160990100Y-215455223D01*
X160956766Y-215531414D01*
X160923433Y-215569509D01*
X160856766Y-215607604D01*
X160723433Y-215607604D01*
X160656766Y-215569509D01*
X161590100Y-215607604D02*
X161590100Y-215188557D01*
X161556766Y-215112366D01*
X161490100Y-215074271D01*
X161356766Y-215074271D01*
X161290100Y-215112366D01*
X161590100Y-215569509D02*
X161523433Y-215607604D01*
X161356766Y-215607604D01*
X161290100Y-215569509D01*
X161256766Y-215493319D01*
X161256766Y-215417128D01*
X161290100Y-215340938D01*
X161356766Y-215302842D01*
X161523433Y-215302842D01*
X161590100Y-215264747D01*
D12*
X107689456Y-176051028D02*
X107787730Y-176474361D01*
X107991837Y-176051028D01*
X108513444Y-176474361D02*
X108150587Y-176474361D01*
X108332016Y-176474361D02*
X108411391Y-175839361D01*
X108339575Y-175930076D01*
X108271540Y-175990552D01*
X108207284Y-176020790D01*
X108793147Y-176413885D02*
X108819605Y-176444123D01*
X108785587Y-176474361D01*
X108759129Y-176444123D01*
X108793147Y-176413885D01*
X108785587Y-176474361D01*
X109420587Y-176474361D02*
X109057730Y-176474361D01*
X109239159Y-176474361D02*
X109318534Y-175839361D01*
X109246718Y-175930076D01*
X109178682Y-175990552D01*
X109114426Y-176020790D01*
D11*
X77656766Y-215279033D02*
X77990100Y-215279033D01*
X77590100Y-215507604D02*
X77823433Y-214707604D01*
X78056766Y-215507604D01*
X78290100Y-215507604D02*
X78290100Y-214974271D01*
X78290100Y-215050461D02*
X78323433Y-215012366D01*
X78390100Y-214974271D01*
X78490100Y-214974271D01*
X78556766Y-215012366D01*
X78590100Y-215088557D01*
X78590100Y-215507604D01*
X78590100Y-215088557D02*
X78623433Y-215012366D01*
X78690100Y-214974271D01*
X78790100Y-214974271D01*
X78856766Y-215012366D01*
X78890100Y-215088557D01*
X78890100Y-215507604D01*
X79323433Y-215507604D02*
X79256766Y-215469509D01*
X79223433Y-215431414D01*
X79190100Y-215355223D01*
X79190100Y-215126652D01*
X79223433Y-215050461D01*
X79256766Y-215012366D01*
X79323433Y-214974271D01*
X79423433Y-214974271D01*
X79490100Y-215012366D01*
X79523433Y-215050461D01*
X79556766Y-215126652D01*
X79556766Y-215355223D01*
X79523433Y-215431414D01*
X79490100Y-215469509D01*
X79423433Y-215507604D01*
X79323433Y-215507604D01*
X80123433Y-215469509D02*
X80056766Y-215507604D01*
X79923433Y-215507604D01*
X79856766Y-215469509D01*
X79823433Y-215393319D01*
X79823433Y-215088557D01*
X79856766Y-215012366D01*
X79923433Y-214974271D01*
X80056766Y-214974271D01*
X80123433Y-215012366D01*
X80156766Y-215088557D01*
X80156766Y-215164747D01*
X79823433Y-215240938D01*
X80456766Y-215507604D02*
X80456766Y-214707604D01*
X80456766Y-215012366D02*
X80523433Y-214974271D01*
X80656766Y-214974271D01*
X80723433Y-215012366D01*
X80756766Y-215050461D01*
X80790100Y-215126652D01*
X80790100Y-215355223D01*
X80756766Y-215431414D01*
X80723433Y-215469509D01*
X80656766Y-215507604D01*
X80523433Y-215507604D01*
X80456766Y-215469509D01*
X81390100Y-215507604D02*
X81390100Y-215088557D01*
X81356766Y-215012366D01*
X81290100Y-214974271D01*
X81156766Y-214974271D01*
X81090100Y-215012366D01*
X81390100Y-215469509D02*
X81323433Y-215507604D01*
X81156766Y-215507604D01*
X81090100Y-215469509D01*
X81056766Y-215393319D01*
X81056766Y-215317128D01*
X81090100Y-215240938D01*
X81156766Y-215202842D01*
X81323433Y-215202842D01*
X81390100Y-215164747D01*
X77656766Y-235429033D02*
X77990100Y-235429033D01*
X77590100Y-235657604D02*
X77823433Y-234857604D01*
X78056766Y-235657604D01*
X78290100Y-235657604D02*
X78290100Y-235124271D01*
X78290100Y-235200461D02*
X78323433Y-235162366D01*
X78390100Y-235124271D01*
X78490100Y-235124271D01*
X78556766Y-235162366D01*
X78590100Y-235238557D01*
X78590100Y-235657604D01*
X78590100Y-235238557D02*
X78623433Y-235162366D01*
X78690100Y-235124271D01*
X78790100Y-235124271D01*
X78856766Y-235162366D01*
X78890100Y-235238557D01*
X78890100Y-235657604D01*
X79323433Y-235657604D02*
X79256766Y-235619509D01*
X79223433Y-235581414D01*
X79190100Y-235505223D01*
X79190100Y-235276652D01*
X79223433Y-235200461D01*
X79256766Y-235162366D01*
X79323433Y-235124271D01*
X79423433Y-235124271D01*
X79490100Y-235162366D01*
X79523433Y-235200461D01*
X79556766Y-235276652D01*
X79556766Y-235505223D01*
X79523433Y-235581414D01*
X79490100Y-235619509D01*
X79423433Y-235657604D01*
X79323433Y-235657604D01*
X80123433Y-235619509D02*
X80056766Y-235657604D01*
X79923433Y-235657604D01*
X79856766Y-235619509D01*
X79823433Y-235543319D01*
X79823433Y-235238557D01*
X79856766Y-235162366D01*
X79923433Y-235124271D01*
X80056766Y-235124271D01*
X80123433Y-235162366D01*
X80156766Y-235238557D01*
X80156766Y-235314747D01*
X79823433Y-235390938D01*
X80456766Y-235657604D02*
X80456766Y-234857604D01*
X80456766Y-235162366D02*
X80523433Y-235124271D01*
X80656766Y-235124271D01*
X80723433Y-235162366D01*
X80756766Y-235200461D01*
X80790100Y-235276652D01*
X80790100Y-235505223D01*
X80756766Y-235581414D01*
X80723433Y-235619509D01*
X80656766Y-235657604D01*
X80523433Y-235657604D01*
X80456766Y-235619509D01*
X81390100Y-235657604D02*
X81390100Y-235238557D01*
X81356766Y-235162366D01*
X81290100Y-235124271D01*
X81156766Y-235124271D01*
X81090100Y-235162366D01*
X81390100Y-235619509D02*
X81323433Y-235657604D01*
X81156766Y-235657604D01*
X81090100Y-235619509D01*
X81056766Y-235543319D01*
X81056766Y-235467128D01*
X81090100Y-235390938D01*
X81156766Y-235352842D01*
X81323433Y-235352842D01*
X81390100Y-235314747D01*
X157856766Y-175279033D02*
X158190100Y-175279033D01*
X157790100Y-175507604D02*
X158023433Y-174707604D01*
X158256766Y-175507604D01*
X158490100Y-175507604D02*
X158490100Y-174974271D01*
X158490100Y-175050461D02*
X158523433Y-175012366D01*
X158590100Y-174974271D01*
X158690100Y-174974271D01*
X158756766Y-175012366D01*
X158790100Y-175088557D01*
X158790100Y-175507604D01*
X158790100Y-175088557D02*
X158823433Y-175012366D01*
X158890100Y-174974271D01*
X158990100Y-174974271D01*
X159056766Y-175012366D01*
X159090100Y-175088557D01*
X159090100Y-175507604D01*
X159523433Y-175507604D02*
X159456766Y-175469509D01*
X159423433Y-175431414D01*
X159390100Y-175355223D01*
X159390100Y-175126652D01*
X159423433Y-175050461D01*
X159456766Y-175012366D01*
X159523433Y-174974271D01*
X159623433Y-174974271D01*
X159690100Y-175012366D01*
X159723433Y-175050461D01*
X159756766Y-175126652D01*
X159756766Y-175355223D01*
X159723433Y-175431414D01*
X159690100Y-175469509D01*
X159623433Y-175507604D01*
X159523433Y-175507604D01*
X160323433Y-175469509D02*
X160256766Y-175507604D01*
X160123433Y-175507604D01*
X160056766Y-175469509D01*
X160023433Y-175393319D01*
X160023433Y-175088557D01*
X160056766Y-175012366D01*
X160123433Y-174974271D01*
X160256766Y-174974271D01*
X160323433Y-175012366D01*
X160356766Y-175088557D01*
X160356766Y-175164747D01*
X160023433Y-175240938D01*
X160656766Y-175507604D02*
X160656766Y-174707604D01*
X160656766Y-175012366D02*
X160723433Y-174974271D01*
X160856766Y-174974271D01*
X160923433Y-175012366D01*
X160956766Y-175050461D01*
X160990100Y-175126652D01*
X160990100Y-175355223D01*
X160956766Y-175431414D01*
X160923433Y-175469509D01*
X160856766Y-175507604D01*
X160723433Y-175507604D01*
X160656766Y-175469509D01*
X161590100Y-175507604D02*
X161590100Y-175088557D01*
X161556766Y-175012366D01*
X161490100Y-174974271D01*
X161356766Y-174974271D01*
X161290100Y-175012366D01*
X161590100Y-175469509D02*
X161523433Y-175507604D01*
X161356766Y-175507604D01*
X161290100Y-175469509D01*
X161256766Y-175393319D01*
X161256766Y-175317128D01*
X161290100Y-175240938D01*
X161356766Y-175202842D01*
X161523433Y-175202842D01*
X161590100Y-175164747D01*
X137806766Y-175279033D02*
X138140100Y-175279033D01*
X137740100Y-175507604D02*
X137973433Y-174707604D01*
X138206766Y-175507604D01*
X138440100Y-175507604D02*
X138440100Y-174974271D01*
X138440100Y-175050461D02*
X138473433Y-175012366D01*
X138540100Y-174974271D01*
X138640100Y-174974271D01*
X138706766Y-175012366D01*
X138740100Y-175088557D01*
X138740100Y-175507604D01*
X138740100Y-175088557D02*
X138773433Y-175012366D01*
X138840100Y-174974271D01*
X138940100Y-174974271D01*
X139006766Y-175012366D01*
X139040100Y-175088557D01*
X139040100Y-175507604D01*
X139473433Y-175507604D02*
X139406766Y-175469509D01*
X139373433Y-175431414D01*
X139340100Y-175355223D01*
X139340100Y-175126652D01*
X139373433Y-175050461D01*
X139406766Y-175012366D01*
X139473433Y-174974271D01*
X139573433Y-174974271D01*
X139640100Y-175012366D01*
X139673433Y-175050461D01*
X139706766Y-175126652D01*
X139706766Y-175355223D01*
X139673433Y-175431414D01*
X139640100Y-175469509D01*
X139573433Y-175507604D01*
X139473433Y-175507604D01*
X140273433Y-175469509D02*
X140206766Y-175507604D01*
X140073433Y-175507604D01*
X140006766Y-175469509D01*
X139973433Y-175393319D01*
X139973433Y-175088557D01*
X140006766Y-175012366D01*
X140073433Y-174974271D01*
X140206766Y-174974271D01*
X140273433Y-175012366D01*
X140306766Y-175088557D01*
X140306766Y-175164747D01*
X139973433Y-175240938D01*
X140606766Y-175507604D02*
X140606766Y-174707604D01*
X140606766Y-175012366D02*
X140673433Y-174974271D01*
X140806766Y-174974271D01*
X140873433Y-175012366D01*
X140906766Y-175050461D01*
X140940100Y-175126652D01*
X140940100Y-175355223D01*
X140906766Y-175431414D01*
X140873433Y-175469509D01*
X140806766Y-175507604D01*
X140673433Y-175507604D01*
X140606766Y-175469509D01*
X141540100Y-175507604D02*
X141540100Y-175088557D01*
X141506766Y-175012366D01*
X141440100Y-174974271D01*
X141306766Y-174974271D01*
X141240100Y-175012366D01*
X141540100Y-175469509D02*
X141473433Y-175507604D01*
X141306766Y-175507604D01*
X141240100Y-175469509D01*
X141206766Y-175393319D01*
X141206766Y-175317128D01*
X141240100Y-175240938D01*
X141306766Y-175202842D01*
X141473433Y-175202842D01*
X141540100Y-175164747D01*
X137806766Y-195329033D02*
X138140100Y-195329033D01*
X137740100Y-195557604D02*
X137973433Y-194757604D01*
X138206766Y-195557604D01*
X138440100Y-195557604D02*
X138440100Y-195024271D01*
X138440100Y-195100461D02*
X138473433Y-195062366D01*
X138540100Y-195024271D01*
X138640100Y-195024271D01*
X138706766Y-195062366D01*
X138740100Y-195138557D01*
X138740100Y-195557604D01*
X138740100Y-195138557D02*
X138773433Y-195062366D01*
X138840100Y-195024271D01*
X138940100Y-195024271D01*
X139006766Y-195062366D01*
X139040100Y-195138557D01*
X139040100Y-195557604D01*
X139473433Y-195557604D02*
X139406766Y-195519509D01*
X139373433Y-195481414D01*
X139340100Y-195405223D01*
X139340100Y-195176652D01*
X139373433Y-195100461D01*
X139406766Y-195062366D01*
X139473433Y-195024271D01*
X139573433Y-195024271D01*
X139640100Y-195062366D01*
X139673433Y-195100461D01*
X139706766Y-195176652D01*
X139706766Y-195405223D01*
X139673433Y-195481414D01*
X139640100Y-195519509D01*
X139573433Y-195557604D01*
X139473433Y-195557604D01*
X140273433Y-195519509D02*
X140206766Y-195557604D01*
X140073433Y-195557604D01*
X140006766Y-195519509D01*
X139973433Y-195443319D01*
X139973433Y-195138557D01*
X140006766Y-195062366D01*
X140073433Y-195024271D01*
X140206766Y-195024271D01*
X140273433Y-195062366D01*
X140306766Y-195138557D01*
X140306766Y-195214747D01*
X139973433Y-195290938D01*
X140606766Y-195557604D02*
X140606766Y-194757604D01*
X140606766Y-195062366D02*
X140673433Y-195024271D01*
X140806766Y-195024271D01*
X140873433Y-195062366D01*
X140906766Y-195100461D01*
X140940100Y-195176652D01*
X140940100Y-195405223D01*
X140906766Y-195481414D01*
X140873433Y-195519509D01*
X140806766Y-195557604D01*
X140673433Y-195557604D01*
X140606766Y-195519509D01*
X141540100Y-195557604D02*
X141540100Y-195138557D01*
X141506766Y-195062366D01*
X141440100Y-195024271D01*
X141306766Y-195024271D01*
X141240100Y-195062366D01*
X141540100Y-195519509D02*
X141473433Y-195557604D01*
X141306766Y-195557604D01*
X141240100Y-195519509D01*
X141206766Y-195443319D01*
X141206766Y-195367128D01*
X141240100Y-195290938D01*
X141306766Y-195252842D01*
X141473433Y-195252842D01*
X141540100Y-195214747D01*
X98276566Y-174402704D02*
X98276566Y-173602704D01*
X98676566Y-174402704D02*
X98376566Y-173945561D01*
X98676566Y-173602704D02*
X98276566Y-174059847D01*
X98976566Y-174402704D02*
X98976566Y-173869371D01*
X98976566Y-173602704D02*
X98943233Y-173640800D01*
X98976566Y-173678895D01*
X99009900Y-173640800D01*
X98976566Y-173602704D01*
X98976566Y-173678895D01*
X99309900Y-173869371D02*
X99309900Y-174402704D01*
X99309900Y-173945561D02*
X99343233Y-173907466D01*
X99409900Y-173869371D01*
X99509900Y-173869371D01*
X99576566Y-173907466D01*
X99609900Y-173983657D01*
X99609900Y-174402704D01*
X100243233Y-173869371D02*
X100243233Y-174516990D01*
X100209900Y-174593180D01*
X100176566Y-174631276D01*
X100109900Y-174669371D01*
X100009900Y-174669371D01*
X99943233Y-174631276D01*
X100243233Y-174364609D02*
X100176566Y-174402704D01*
X100043233Y-174402704D01*
X99976566Y-174364609D01*
X99943233Y-174326514D01*
X99909900Y-174250323D01*
X99909900Y-174021752D01*
X99943233Y-173945561D01*
X99976566Y-173907466D01*
X100043233Y-173869371D01*
X100176566Y-173869371D01*
X100243233Y-173907466D01*
X97706766Y-255479033D02*
X98040100Y-255479033D01*
X97640100Y-255707604D02*
X97873433Y-254907604D01*
X98106766Y-255707604D01*
X98340100Y-255707604D02*
X98340100Y-255174271D01*
X98340100Y-255250461D02*
X98373433Y-255212366D01*
X98440100Y-255174271D01*
X98540100Y-255174271D01*
X98606766Y-255212366D01*
X98640100Y-255288557D01*
X98640100Y-255707604D01*
X98640100Y-255288557D02*
X98673433Y-255212366D01*
X98740100Y-255174271D01*
X98840100Y-255174271D01*
X98906766Y-255212366D01*
X98940100Y-255288557D01*
X98940100Y-255707604D01*
X99373433Y-255707604D02*
X99306766Y-255669509D01*
X99273433Y-255631414D01*
X99240100Y-255555223D01*
X99240100Y-255326652D01*
X99273433Y-255250461D01*
X99306766Y-255212366D01*
X99373433Y-255174271D01*
X99473433Y-255174271D01*
X99540100Y-255212366D01*
X99573433Y-255250461D01*
X99606766Y-255326652D01*
X99606766Y-255555223D01*
X99573433Y-255631414D01*
X99540100Y-255669509D01*
X99473433Y-255707604D01*
X99373433Y-255707604D01*
X100173433Y-255669509D02*
X100106766Y-255707604D01*
X99973433Y-255707604D01*
X99906766Y-255669509D01*
X99873433Y-255593319D01*
X99873433Y-255288557D01*
X99906766Y-255212366D01*
X99973433Y-255174271D01*
X100106766Y-255174271D01*
X100173433Y-255212366D01*
X100206766Y-255288557D01*
X100206766Y-255364747D01*
X99873433Y-255440938D01*
X100506766Y-255707604D02*
X100506766Y-254907604D01*
X100506766Y-255212366D02*
X100573433Y-255174271D01*
X100706766Y-255174271D01*
X100773433Y-255212366D01*
X100806766Y-255250461D01*
X100840100Y-255326652D01*
X100840100Y-255555223D01*
X100806766Y-255631414D01*
X100773433Y-255669509D01*
X100706766Y-255707604D01*
X100573433Y-255707604D01*
X100506766Y-255669509D01*
X101440100Y-255707604D02*
X101440100Y-255288557D01*
X101406766Y-255212366D01*
X101340100Y-255174271D01*
X101206766Y-255174271D01*
X101140100Y-255212366D01*
X101440100Y-255669509D02*
X101373433Y-255707604D01*
X101206766Y-255707604D01*
X101140100Y-255669509D01*
X101106766Y-255593319D01*
X101106766Y-255517128D01*
X101140100Y-255440938D01*
X101206766Y-255402842D01*
X101373433Y-255402842D01*
X101440100Y-255364747D01*
X78226566Y-234552704D02*
X78226566Y-233752704D01*
X78626566Y-234552704D02*
X78326566Y-234095561D01*
X78626566Y-233752704D02*
X78226566Y-234209847D01*
X78926566Y-234552704D02*
X78926566Y-234019371D01*
X78926566Y-233752704D02*
X78893233Y-233790800D01*
X78926566Y-233828895D01*
X78959900Y-233790800D01*
X78926566Y-233752704D01*
X78926566Y-233828895D01*
X79259900Y-234019371D02*
X79259900Y-234552704D01*
X79259900Y-234095561D02*
X79293233Y-234057466D01*
X79359900Y-234019371D01*
X79459900Y-234019371D01*
X79526566Y-234057466D01*
X79559900Y-234133657D01*
X79559900Y-234552704D01*
X80193233Y-234019371D02*
X80193233Y-234666990D01*
X80159900Y-234743180D01*
X80126566Y-234781276D01*
X80059900Y-234819371D01*
X79959900Y-234819371D01*
X79893233Y-234781276D01*
X80193233Y-234514609D02*
X80126566Y-234552704D01*
X79993233Y-234552704D01*
X79926566Y-234514609D01*
X79893233Y-234476514D01*
X79859900Y-234400323D01*
X79859900Y-234171752D01*
X79893233Y-234095561D01*
X79926566Y-234057466D01*
X79993233Y-234019371D01*
X80126566Y-234019371D01*
X80193233Y-234057466D01*
X78226566Y-214502704D02*
X78226566Y-213702704D01*
X78626566Y-214502704D02*
X78326566Y-214045561D01*
X78626566Y-213702704D02*
X78226566Y-214159847D01*
X78926566Y-214502704D02*
X78926566Y-213969371D01*
X78926566Y-213702704D02*
X78893233Y-213740800D01*
X78926566Y-213778895D01*
X78959900Y-213740800D01*
X78926566Y-213702704D01*
X78926566Y-213778895D01*
X79259900Y-213969371D02*
X79259900Y-214502704D01*
X79259900Y-214045561D02*
X79293233Y-214007466D01*
X79359900Y-213969371D01*
X79459900Y-213969371D01*
X79526566Y-214007466D01*
X79559900Y-214083657D01*
X79559900Y-214502704D01*
X80193233Y-213969371D02*
X80193233Y-214616990D01*
X80159900Y-214693180D01*
X80126566Y-214731276D01*
X80059900Y-214769371D01*
X79959900Y-214769371D01*
X79893233Y-214731276D01*
X80193233Y-214464609D02*
X80126566Y-214502704D01*
X79993233Y-214502704D01*
X79926566Y-214464609D01*
X79893233Y-214426514D01*
X79859900Y-214350323D01*
X79859900Y-214121752D01*
X79893233Y-214045561D01*
X79926566Y-214007466D01*
X79993233Y-213969371D01*
X80126566Y-213969371D01*
X80193233Y-214007466D01*
D12*
X87639456Y-256251028D02*
X87737730Y-256674361D01*
X87941837Y-256251028D01*
X88463444Y-256674361D02*
X88100587Y-256674361D01*
X88282016Y-256674361D02*
X88361391Y-256039361D01*
X88289575Y-256130076D01*
X88221540Y-256190552D01*
X88157284Y-256220790D01*
X88743147Y-256613885D02*
X88769605Y-256644123D01*
X88735587Y-256674361D01*
X88709129Y-256644123D01*
X88743147Y-256613885D01*
X88735587Y-256674361D01*
X89370587Y-256674361D02*
X89007730Y-256674361D01*
X89189159Y-256674361D02*
X89268534Y-256039361D01*
X89196718Y-256130076D01*
X89128682Y-256190552D01*
X89064426Y-256220790D01*
D11*
X97706766Y-175279033D02*
X98040100Y-175279033D01*
X97640100Y-175507604D02*
X97873433Y-174707604D01*
X98106766Y-175507604D01*
X98340100Y-175507604D02*
X98340100Y-174974271D01*
X98340100Y-175050461D02*
X98373433Y-175012366D01*
X98440100Y-174974271D01*
X98540100Y-174974271D01*
X98606766Y-175012366D01*
X98640100Y-175088557D01*
X98640100Y-175507604D01*
X98640100Y-175088557D02*
X98673433Y-175012366D01*
X98740100Y-174974271D01*
X98840100Y-174974271D01*
X98906766Y-175012366D01*
X98940100Y-175088557D01*
X98940100Y-175507604D01*
X99373433Y-175507604D02*
X99306766Y-175469509D01*
X99273433Y-175431414D01*
X99240100Y-175355223D01*
X99240100Y-175126652D01*
X99273433Y-175050461D01*
X99306766Y-175012366D01*
X99373433Y-174974271D01*
X99473433Y-174974271D01*
X99540100Y-175012366D01*
X99573433Y-175050461D01*
X99606766Y-175126652D01*
X99606766Y-175355223D01*
X99573433Y-175431414D01*
X99540100Y-175469509D01*
X99473433Y-175507604D01*
X99373433Y-175507604D01*
X100173433Y-175469509D02*
X100106766Y-175507604D01*
X99973433Y-175507604D01*
X99906766Y-175469509D01*
X99873433Y-175393319D01*
X99873433Y-175088557D01*
X99906766Y-175012366D01*
X99973433Y-174974271D01*
X100106766Y-174974271D01*
X100173433Y-175012366D01*
X100206766Y-175088557D01*
X100206766Y-175164747D01*
X99873433Y-175240938D01*
X100506766Y-175507604D02*
X100506766Y-174707604D01*
X100506766Y-175012366D02*
X100573433Y-174974271D01*
X100706766Y-174974271D01*
X100773433Y-175012366D01*
X100806766Y-175050461D01*
X100840100Y-175126652D01*
X100840100Y-175355223D01*
X100806766Y-175431414D01*
X100773433Y-175469509D01*
X100706766Y-175507604D01*
X100573433Y-175507604D01*
X100506766Y-175469509D01*
X101440100Y-175507604D02*
X101440100Y-175088557D01*
X101406766Y-175012366D01*
X101340100Y-174974271D01*
X101206766Y-174974271D01*
X101140100Y-175012366D01*
X101440100Y-175469509D02*
X101373433Y-175507604D01*
X101206766Y-175507604D01*
X101140100Y-175469509D01*
X101106766Y-175393319D01*
X101106766Y-175317128D01*
X101140100Y-175240938D01*
X101206766Y-175202842D01*
X101373433Y-175202842D01*
X101440100Y-175164747D01*
X158426566Y-194452704D02*
X158426566Y-193652704D01*
X158826566Y-194452704D02*
X158526566Y-193995561D01*
X158826566Y-193652704D02*
X158426566Y-194109847D01*
X159126566Y-194452704D02*
X159126566Y-193919371D01*
X159126566Y-193652704D02*
X159093233Y-193690800D01*
X159126566Y-193728895D01*
X159159900Y-193690800D01*
X159126566Y-193652704D01*
X159126566Y-193728895D01*
X159459900Y-193919371D02*
X159459900Y-194452704D01*
X159459900Y-193995561D02*
X159493233Y-193957466D01*
X159559900Y-193919371D01*
X159659900Y-193919371D01*
X159726566Y-193957466D01*
X159759900Y-194033657D01*
X159759900Y-194452704D01*
X160393233Y-193919371D02*
X160393233Y-194566990D01*
X160359900Y-194643180D01*
X160326566Y-194681276D01*
X160259900Y-194719371D01*
X160159900Y-194719371D01*
X160093233Y-194681276D01*
X160393233Y-194414609D02*
X160326566Y-194452704D01*
X160193233Y-194452704D01*
X160126566Y-194414609D01*
X160093233Y-194376514D01*
X160059900Y-194300323D01*
X160059900Y-194071752D01*
X160093233Y-193995561D01*
X160126566Y-193957466D01*
X160193233Y-193919371D01*
X160326566Y-193919371D01*
X160393233Y-193957466D01*
X117756766Y-235429033D02*
X118090100Y-235429033D01*
X117690100Y-235657604D02*
X117923433Y-234857604D01*
X118156766Y-235657604D01*
X118390100Y-235657604D02*
X118390100Y-235124271D01*
X118390100Y-235200461D02*
X118423433Y-235162366D01*
X118490100Y-235124271D01*
X118590100Y-235124271D01*
X118656766Y-235162366D01*
X118690100Y-235238557D01*
X118690100Y-235657604D01*
X118690100Y-235238557D02*
X118723433Y-235162366D01*
X118790100Y-235124271D01*
X118890100Y-235124271D01*
X118956766Y-235162366D01*
X118990100Y-235238557D01*
X118990100Y-235657604D01*
X119423433Y-235657604D02*
X119356766Y-235619509D01*
X119323433Y-235581414D01*
X119290100Y-235505223D01*
X119290100Y-235276652D01*
X119323433Y-235200461D01*
X119356766Y-235162366D01*
X119423433Y-235124271D01*
X119523433Y-235124271D01*
X119590100Y-235162366D01*
X119623433Y-235200461D01*
X119656766Y-235276652D01*
X119656766Y-235505223D01*
X119623433Y-235581414D01*
X119590100Y-235619509D01*
X119523433Y-235657604D01*
X119423433Y-235657604D01*
X120223433Y-235619509D02*
X120156766Y-235657604D01*
X120023433Y-235657604D01*
X119956766Y-235619509D01*
X119923433Y-235543319D01*
X119923433Y-235238557D01*
X119956766Y-235162366D01*
X120023433Y-235124271D01*
X120156766Y-235124271D01*
X120223433Y-235162366D01*
X120256766Y-235238557D01*
X120256766Y-235314747D01*
X119923433Y-235390938D01*
X120556766Y-235657604D02*
X120556766Y-234857604D01*
X120556766Y-235162366D02*
X120623433Y-235124271D01*
X120756766Y-235124271D01*
X120823433Y-235162366D01*
X120856766Y-235200461D01*
X120890100Y-235276652D01*
X120890100Y-235505223D01*
X120856766Y-235581414D01*
X120823433Y-235619509D01*
X120756766Y-235657604D01*
X120623433Y-235657604D01*
X120556766Y-235619509D01*
X121490100Y-235657604D02*
X121490100Y-235238557D01*
X121456766Y-235162366D01*
X121390100Y-235124271D01*
X121256766Y-235124271D01*
X121190100Y-235162366D01*
X121490100Y-235619509D02*
X121423433Y-235657604D01*
X121256766Y-235657604D01*
X121190100Y-235619509D01*
X121156766Y-235543319D01*
X121156766Y-235467128D01*
X121190100Y-235390938D01*
X121256766Y-235352842D01*
X121423433Y-235352842D01*
X121490100Y-235314747D01*
D12*
X67589456Y-256051028D02*
X67687730Y-256474361D01*
X67891837Y-256051028D01*
X68413444Y-256474361D02*
X68050587Y-256474361D01*
X68232016Y-256474361D02*
X68311391Y-255839361D01*
X68239575Y-255930076D01*
X68171540Y-255990552D01*
X68107284Y-256020790D01*
X68693147Y-256413885D02*
X68719605Y-256444123D01*
X68685587Y-256474361D01*
X68659129Y-256444123D01*
X68693147Y-256413885D01*
X68685587Y-256474361D01*
X69320587Y-256474361D02*
X68957730Y-256474361D01*
X69139159Y-256474361D02*
X69218534Y-255839361D01*
X69146718Y-255930076D01*
X69078682Y-255990552D01*
X69014426Y-256020790D01*
X147789456Y-216151028D02*
X147887730Y-216574361D01*
X148091837Y-216151028D01*
X148613444Y-216574361D02*
X148250587Y-216574361D01*
X148432016Y-216574361D02*
X148511391Y-215939361D01*
X148439575Y-216030076D01*
X148371540Y-216090552D01*
X148307284Y-216120790D01*
X148893147Y-216513885D02*
X148919605Y-216544123D01*
X148885587Y-216574361D01*
X148859129Y-216544123D01*
X148893147Y-216513885D01*
X148885587Y-216574361D01*
X149520587Y-216574361D02*
X149157730Y-216574361D01*
X149339159Y-216574361D02*
X149418534Y-215939361D01*
X149346718Y-216030076D01*
X149278682Y-216090552D01*
X149214426Y-216120790D01*
D11*
X158426566Y-214502704D02*
X158426566Y-213702704D01*
X158826566Y-214502704D02*
X158526566Y-214045561D01*
X158826566Y-213702704D02*
X158426566Y-214159847D01*
X159126566Y-214502704D02*
X159126566Y-213969371D01*
X159126566Y-213702704D02*
X159093233Y-213740800D01*
X159126566Y-213778895D01*
X159159900Y-213740800D01*
X159126566Y-213702704D01*
X159126566Y-213778895D01*
X159459900Y-213969371D02*
X159459900Y-214502704D01*
X159459900Y-214045561D02*
X159493233Y-214007466D01*
X159559900Y-213969371D01*
X159659900Y-213969371D01*
X159726566Y-214007466D01*
X159759900Y-214083657D01*
X159759900Y-214502704D01*
X160393233Y-213969371D02*
X160393233Y-214616990D01*
X160359900Y-214693180D01*
X160326566Y-214731276D01*
X160259900Y-214769371D01*
X160159900Y-214769371D01*
X160093233Y-214731276D01*
X160393233Y-214464609D02*
X160326566Y-214502704D01*
X160193233Y-214502704D01*
X160126566Y-214464609D01*
X160093233Y-214426514D01*
X160059900Y-214350323D01*
X160059900Y-214121752D01*
X160093233Y-214045561D01*
X160126566Y-214007466D01*
X160193233Y-213969371D01*
X160326566Y-213969371D01*
X160393233Y-214007466D01*
X158426566Y-254602704D02*
X158426566Y-253802704D01*
X158826566Y-254602704D02*
X158526566Y-254145561D01*
X158826566Y-253802704D02*
X158426566Y-254259847D01*
X159126566Y-254602704D02*
X159126566Y-254069371D01*
X159126566Y-253802704D02*
X159093233Y-253840800D01*
X159126566Y-253878895D01*
X159159900Y-253840800D01*
X159126566Y-253802704D01*
X159126566Y-253878895D01*
X159459900Y-254069371D02*
X159459900Y-254602704D01*
X159459900Y-254145561D02*
X159493233Y-254107466D01*
X159559900Y-254069371D01*
X159659900Y-254069371D01*
X159726566Y-254107466D01*
X159759900Y-254183657D01*
X159759900Y-254602704D01*
X160393233Y-254069371D02*
X160393233Y-254716990D01*
X160359900Y-254793180D01*
X160326566Y-254831276D01*
X160259900Y-254869371D01*
X160159900Y-254869371D01*
X160093233Y-254831276D01*
X160393233Y-254564609D02*
X160326566Y-254602704D01*
X160193233Y-254602704D01*
X160126566Y-254564609D01*
X160093233Y-254526514D01*
X160059900Y-254450323D01*
X160059900Y-254221752D01*
X160093233Y-254145561D01*
X160126566Y-254107466D01*
X160193233Y-254069371D01*
X160326566Y-254069371D01*
X160393233Y-254107466D01*
X98276566Y-254602704D02*
X98276566Y-253802704D01*
X98676566Y-254602704D02*
X98376566Y-254145561D01*
X98676566Y-253802704D02*
X98276566Y-254259847D01*
X98976566Y-254602704D02*
X98976566Y-254069371D01*
X98976566Y-253802704D02*
X98943233Y-253840800D01*
X98976566Y-253878895D01*
X99009900Y-253840800D01*
X98976566Y-253802704D01*
X98976566Y-253878895D01*
X99309900Y-254069371D02*
X99309900Y-254602704D01*
X99309900Y-254145561D02*
X99343233Y-254107466D01*
X99409900Y-254069371D01*
X99509900Y-254069371D01*
X99576566Y-254107466D01*
X99609900Y-254183657D01*
X99609900Y-254602704D01*
X100243233Y-254069371D02*
X100243233Y-254716990D01*
X100209900Y-254793180D01*
X100176566Y-254831276D01*
X100109900Y-254869371D01*
X100009900Y-254869371D01*
X99943233Y-254831276D01*
X100243233Y-254564609D02*
X100176566Y-254602704D01*
X100043233Y-254602704D01*
X99976566Y-254564609D01*
X99943233Y-254526514D01*
X99909900Y-254450323D01*
X99909900Y-254221752D01*
X99943233Y-254145561D01*
X99976566Y-254107466D01*
X100043233Y-254069371D01*
X100176566Y-254069371D01*
X100243233Y-254107466D01*
X77656766Y-255479033D02*
X77990100Y-255479033D01*
X77590100Y-255707604D02*
X77823433Y-254907604D01*
X78056766Y-255707604D01*
X78290100Y-255707604D02*
X78290100Y-255174271D01*
X78290100Y-255250461D02*
X78323433Y-255212366D01*
X78390100Y-255174271D01*
X78490100Y-255174271D01*
X78556766Y-255212366D01*
X78590100Y-255288557D01*
X78590100Y-255707604D01*
X78590100Y-255288557D02*
X78623433Y-255212366D01*
X78690100Y-255174271D01*
X78790100Y-255174271D01*
X78856766Y-255212366D01*
X78890100Y-255288557D01*
X78890100Y-255707604D01*
X79323433Y-255707604D02*
X79256766Y-255669509D01*
X79223433Y-255631414D01*
X79190100Y-255555223D01*
X79190100Y-255326652D01*
X79223433Y-255250461D01*
X79256766Y-255212366D01*
X79323433Y-255174271D01*
X79423433Y-255174271D01*
X79490100Y-255212366D01*
X79523433Y-255250461D01*
X79556766Y-255326652D01*
X79556766Y-255555223D01*
X79523433Y-255631414D01*
X79490100Y-255669509D01*
X79423433Y-255707604D01*
X79323433Y-255707604D01*
X80123433Y-255669509D02*
X80056766Y-255707604D01*
X79923433Y-255707604D01*
X79856766Y-255669509D01*
X79823433Y-255593319D01*
X79823433Y-255288557D01*
X79856766Y-255212366D01*
X79923433Y-255174271D01*
X80056766Y-255174271D01*
X80123433Y-255212366D01*
X80156766Y-255288557D01*
X80156766Y-255364747D01*
X79823433Y-255440938D01*
X80456766Y-255707604D02*
X80456766Y-254907604D01*
X80456766Y-255212366D02*
X80523433Y-255174271D01*
X80656766Y-255174271D01*
X80723433Y-255212366D01*
X80756766Y-255250461D01*
X80790100Y-255326652D01*
X80790100Y-255555223D01*
X80756766Y-255631414D01*
X80723433Y-255669509D01*
X80656766Y-255707604D01*
X80523433Y-255707604D01*
X80456766Y-255669509D01*
X81390100Y-255707604D02*
X81390100Y-255288557D01*
X81356766Y-255212366D01*
X81290100Y-255174271D01*
X81156766Y-255174271D01*
X81090100Y-255212366D01*
X81390100Y-255669509D02*
X81323433Y-255707604D01*
X81156766Y-255707604D01*
X81090100Y-255669509D01*
X81056766Y-255593319D01*
X81056766Y-255517128D01*
X81090100Y-255440938D01*
X81156766Y-255402842D01*
X81323433Y-255402842D01*
X81390100Y-255364747D01*
D12*
X67589456Y-216151028D02*
X67687730Y-216574361D01*
X67891837Y-216151028D01*
X68413444Y-216574361D02*
X68050587Y-216574361D01*
X68232016Y-216574361D02*
X68311391Y-215939361D01*
X68239575Y-216030076D01*
X68171540Y-216090552D01*
X68107284Y-216120790D01*
X68693147Y-216513885D02*
X68719605Y-216544123D01*
X68685587Y-216574361D01*
X68659129Y-216544123D01*
X68693147Y-216513885D01*
X68685587Y-216574361D01*
X69320587Y-216574361D02*
X68957730Y-216574361D01*
X69139159Y-216574361D02*
X69218534Y-215939361D01*
X69146718Y-216030076D01*
X69078682Y-216090552D01*
X69014426Y-216120790D01*
D11*
X138376566Y-254602704D02*
X138376566Y-253802704D01*
X138776566Y-254602704D02*
X138476566Y-254145561D01*
X138776566Y-253802704D02*
X138376566Y-254259847D01*
X139076566Y-254602704D02*
X139076566Y-254069371D01*
X139076566Y-253802704D02*
X139043233Y-253840800D01*
X139076566Y-253878895D01*
X139109900Y-253840800D01*
X139076566Y-253802704D01*
X139076566Y-253878895D01*
X139409900Y-254069371D02*
X139409900Y-254602704D01*
X139409900Y-254145561D02*
X139443233Y-254107466D01*
X139509900Y-254069371D01*
X139609900Y-254069371D01*
X139676566Y-254107466D01*
X139709900Y-254183657D01*
X139709900Y-254602704D01*
X140343233Y-254069371D02*
X140343233Y-254716990D01*
X140309900Y-254793180D01*
X140276566Y-254831276D01*
X140209900Y-254869371D01*
X140109900Y-254869371D01*
X140043233Y-254831276D01*
X140343233Y-254564609D02*
X140276566Y-254602704D01*
X140143233Y-254602704D01*
X140076566Y-254564609D01*
X140043233Y-254526514D01*
X140009900Y-254450323D01*
X140009900Y-254221752D01*
X140043233Y-254145561D01*
X140076566Y-254107466D01*
X140143233Y-254069371D01*
X140276566Y-254069371D01*
X140343233Y-254107466D01*
D12*
X67589456Y-256251028D02*
X67687730Y-256674361D01*
X67891837Y-256251028D01*
X68413444Y-256674361D02*
X68050587Y-256674361D01*
X68232016Y-256674361D02*
X68311391Y-256039361D01*
X68239575Y-256130076D01*
X68171540Y-256190552D01*
X68107284Y-256220790D01*
X68693147Y-256613885D02*
X68719605Y-256644123D01*
X68685587Y-256674361D01*
X68659129Y-256644123D01*
X68693147Y-256613885D01*
X68685587Y-256674361D01*
X69320587Y-256674361D02*
X68957730Y-256674361D01*
X69139159Y-256674361D02*
X69218534Y-256039361D01*
X69146718Y-256130076D01*
X69078682Y-256190552D01*
X69014426Y-256220790D01*
D11*
X97706766Y-235429033D02*
X98040100Y-235429033D01*
X97640100Y-235657604D02*
X97873433Y-234857604D01*
X98106766Y-235657604D01*
X98340100Y-235657604D02*
X98340100Y-235124271D01*
X98340100Y-235200461D02*
X98373433Y-235162366D01*
X98440100Y-235124271D01*
X98540100Y-235124271D01*
X98606766Y-235162366D01*
X98640100Y-235238557D01*
X98640100Y-235657604D01*
X98640100Y-235238557D02*
X98673433Y-235162366D01*
X98740100Y-235124271D01*
X98840100Y-235124271D01*
X98906766Y-235162366D01*
X98940100Y-235238557D01*
X98940100Y-235657604D01*
X99373433Y-235657604D02*
X99306766Y-235619509D01*
X99273433Y-235581414D01*
X99240100Y-235505223D01*
X99240100Y-235276652D01*
X99273433Y-235200461D01*
X99306766Y-235162366D01*
X99373433Y-235124271D01*
X99473433Y-235124271D01*
X99540100Y-235162366D01*
X99573433Y-235200461D01*
X99606766Y-235276652D01*
X99606766Y-235505223D01*
X99573433Y-235581414D01*
X99540100Y-235619509D01*
X99473433Y-235657604D01*
X99373433Y-235657604D01*
X100173433Y-235619509D02*
X100106766Y-235657604D01*
X99973433Y-235657604D01*
X99906766Y-235619509D01*
X99873433Y-235543319D01*
X99873433Y-235238557D01*
X99906766Y-235162366D01*
X99973433Y-235124271D01*
X100106766Y-235124271D01*
X100173433Y-235162366D01*
X100206766Y-235238557D01*
X100206766Y-235314747D01*
X99873433Y-235390938D01*
X100506766Y-235657604D02*
X100506766Y-234857604D01*
X100506766Y-235162366D02*
X100573433Y-235124271D01*
X100706766Y-235124271D01*
X100773433Y-235162366D01*
X100806766Y-235200461D01*
X100840100Y-235276652D01*
X100840100Y-235505223D01*
X100806766Y-235581414D01*
X100773433Y-235619509D01*
X100706766Y-235657604D01*
X100573433Y-235657604D01*
X100506766Y-235619509D01*
X101440100Y-235657604D02*
X101440100Y-235238557D01*
X101406766Y-235162366D01*
X101340100Y-235124271D01*
X101206766Y-235124271D01*
X101140100Y-235162366D01*
X101440100Y-235619509D02*
X101373433Y-235657604D01*
X101206766Y-235657604D01*
X101140100Y-235619509D01*
X101106766Y-235543319D01*
X101106766Y-235467128D01*
X101140100Y-235390938D01*
X101206766Y-235352842D01*
X101373433Y-235352842D01*
X101440100Y-235314747D01*
M02*
