M48
; DRILL file {KiCad (6.0.4-0)} date Tuesday, May 03, 2022 at 01:05:22 PM
; FORMAT={-:-/ absolute / metric / decimal}
; #@! TF.CreationDate,2022-05-03T13:05:22-07:00
; #@! TF.GenerationSoftware,Kicad,Pcbnew,(6.0.4-0)
; #@! TF.FileFunction,Plated,1,2,PTH
FMAT,2
METRIC
; #@! TA.AperFunction,Plated,PTH,ViaDrill
T1C0.508
; #@! TA.AperFunction,Plated,PTH,ViaDrill
T2C0.635
; #@! TA.AperFunction,Plated,PTH,ComponentDrill
T3C0.650
%
G90
G05
T1
X69.926Y-164.147
X69.926Y-184.197
X69.926Y-204.248
X69.926Y-224.297
X69.926Y-244.347
X71.679Y-165.989
X71.679Y-186.039
X71.679Y-206.089
X71.679Y-226.139
X71.679Y-246.189
X75.248Y-173.634
X75.248Y-193.684
X75.248Y-213.734
X75.248Y-233.784
X75.248Y-253.834
X77.648Y-173.888
X77.648Y-193.938
X77.648Y-213.988
X77.648Y-234.038
X77.648Y-254.088
X79.007Y-162.89
X79.007Y-182.94
X79.007Y-202.99
X79.007Y-223.04
X79.007Y-243.09
X79.146Y-167.767
X79.146Y-187.817
X79.146Y-207.867
X79.146Y-227.917
X79.146Y-247.967
X80.15Y-165.011
X80.15Y-185.061
X80.15Y-205.111
X80.15Y-225.161
X80.15Y-245.211
X80.645Y-163.805
X80.645Y-183.855
X80.645Y-203.905
X80.645Y-223.955
X80.645Y-244.005
X89.976Y-164.147
X89.976Y-184.197
X89.976Y-204.248
X89.976Y-224.297
X89.976Y-244.347
X91.729Y-165.989
X91.729Y-186.039
X91.729Y-206.089
X91.729Y-226.139
X91.729Y-246.189
X95.297Y-173.634
X95.297Y-193.684
X95.297Y-213.734
X95.297Y-233.784
X95.297Y-253.834
X97.698Y-173.888
X97.698Y-193.938
X97.698Y-213.988
X97.698Y-234.038
X97.698Y-254.088
X99.057Y-162.89
X99.057Y-182.94
X99.057Y-202.99
X99.057Y-223.04
X99.057Y-243.09
X99.196Y-167.767
X99.196Y-187.817
X99.196Y-207.867
X99.196Y-227.917
X99.196Y-247.967
X100.2Y-165.011
X100.2Y-185.061
X100.2Y-205.111
X100.2Y-225.161
X100.2Y-245.211
X100.695Y-163.805
X100.695Y-183.855
X100.695Y-203.905
X100.695Y-223.955
X100.695Y-244.005
X110.026Y-164.147
X110.026Y-184.197
X110.026Y-204.248
X110.026Y-224.297
X110.026Y-244.347
X111.779Y-165.989
X111.779Y-186.039
X111.779Y-206.089
X111.779Y-226.139
X111.779Y-246.189
X115.347Y-173.634
X115.347Y-193.684
X115.347Y-213.734
X115.347Y-233.784
X115.347Y-253.834
X117.748Y-173.888
X117.748Y-193.938
X117.748Y-213.988
X117.748Y-234.038
X117.748Y-254.088
X119.107Y-162.89
X119.107Y-182.94
X119.107Y-202.99
X119.107Y-223.04
X119.107Y-243.09
X119.246Y-167.767
X119.246Y-187.817
X119.246Y-207.867
X119.246Y-227.917
X119.246Y-247.967
X120.25Y-165.011
X120.25Y-185.061
X120.25Y-205.111
X120.25Y-225.161
X120.25Y-245.211
X120.745Y-163.805
X120.745Y-183.855
X120.745Y-203.905
X120.745Y-223.955
X120.745Y-244.005
X130.076Y-164.147
X130.076Y-184.197
X130.076Y-204.248
X130.076Y-224.297
X130.076Y-244.347
X131.829Y-165.989
X131.829Y-186.039
X131.829Y-206.089
X131.829Y-226.139
X131.829Y-246.189
X135.398Y-173.634
X135.398Y-193.684
X135.398Y-213.734
X135.398Y-233.784
X135.398Y-253.834
X137.798Y-173.888
X137.798Y-193.938
X137.798Y-213.988
X137.798Y-234.038
X137.798Y-254.088
X139.157Y-162.89
X139.157Y-182.94
X139.157Y-202.99
X139.157Y-223.04
X139.157Y-243.09
X139.296Y-167.767
X139.296Y-187.817
X139.296Y-207.867
X139.296Y-227.917
X139.296Y-247.967
X140.3Y-165.011
X140.3Y-185.061
X140.3Y-205.111
X140.3Y-225.161
X140.3Y-245.211
X140.795Y-163.805
X140.795Y-183.855
X140.795Y-203.905
X140.795Y-223.955
X140.795Y-244.005
X150.126Y-164.147
X150.126Y-184.197
X150.126Y-204.248
X150.126Y-224.297
X150.126Y-244.347
X151.879Y-165.989
X151.879Y-186.039
X151.879Y-206.089
X151.879Y-226.139
X151.879Y-246.189
X155.447Y-173.634
X155.447Y-193.684
X155.447Y-213.734
X155.447Y-233.784
X155.447Y-253.834
X157.848Y-173.888
X157.848Y-193.938
X157.848Y-213.988
X157.848Y-234.038
X157.848Y-254.088
X159.207Y-162.89
X159.207Y-182.94
X159.207Y-202.99
X159.207Y-223.04
X159.207Y-243.09
X159.346Y-167.767
X159.346Y-187.817
X159.346Y-207.867
X159.346Y-227.917
X159.346Y-247.967
X160.35Y-165.011
X160.35Y-185.061
X160.35Y-205.111
X160.35Y-225.161
X160.35Y-245.211
X160.845Y-163.805
X160.845Y-183.855
X160.845Y-203.905
X160.845Y-223.955
X160.845Y-244.005
T2
X66.675Y-171.526
X66.675Y-191.576
X66.675Y-211.626
X66.675Y-231.676
X66.675Y-251.726
X67.056Y-166.332
X67.056Y-186.382
X67.056Y-206.432
X67.056Y-226.482
X67.056Y-246.532
X70.117Y-170.409
X70.117Y-190.459
X70.117Y-210.509
X70.117Y-230.559
X70.117Y-250.609
X70.383Y-176.403
X70.383Y-196.453
X70.383Y-216.503
X70.383Y-236.553
X70.383Y-256.603
X71.653Y-162.839
X71.653Y-182.889
X71.653Y-202.939
X71.653Y-222.989
X71.653Y-243.039
X72.009Y-171.018
X72.009Y-191.068
X72.009Y-211.118
X72.009Y-231.168
X72.009Y-251.218
X73.127Y-160.807
X73.127Y-180.857
X73.127Y-200.907
X73.127Y-220.957
X73.127Y-241.007
X73.838Y-166.345
X73.838Y-186.395
X73.838Y-206.445
X73.838Y-226.495
X73.838Y-246.545
X75.159Y-175.285
X75.159Y-195.335
X75.159Y-215.385
X75.159Y-235.435
X75.159Y-255.485
X76.67Y-171.298
X76.67Y-191.348
X76.67Y-211.398
X76.67Y-231.448
X76.67Y-251.498
X77.038Y-166.345
X77.038Y-186.395
X77.038Y-206.445
X77.038Y-226.495
X77.038Y-246.545
X78.397Y-168.846
X78.397Y-188.897
X78.397Y-208.946
X78.397Y-228.996
X78.397Y-249.046
X78.816Y-163.97
X78.816Y-184.02
X78.816Y-204.07
X78.816Y-224.12
X78.816Y-244.17
X81.255Y-174.244
X81.255Y-194.294
X81.255Y-214.344
X81.255Y-234.394
X81.255Y-254.444
X82.575Y-166.903
X82.575Y-186.953
X82.575Y-207.003
X82.575Y-227.053
X82.575Y-247.103
X84.201Y-165.684
X84.201Y-185.734
X84.201Y-205.784
X84.201Y-225.834
X84.201Y-245.884
X86.725Y-171.526
X86.725Y-191.576
X86.725Y-211.626
X86.725Y-231.676
X86.725Y-251.726
X87.106Y-166.332
X87.106Y-186.382
X87.106Y-206.432
X87.106Y-226.482
X87.106Y-246.532
X90.167Y-170.409
X90.167Y-190.459
X90.167Y-210.509
X90.167Y-230.559
X90.167Y-250.609
X90.433Y-176.403
X90.433Y-196.453
X90.433Y-216.503
X90.433Y-236.553
X90.433Y-256.603
X91.703Y-162.839
X91.703Y-182.889
X91.703Y-202.939
X91.703Y-222.989
X91.703Y-243.039
X92.059Y-171.018
X92.059Y-191.068
X92.059Y-211.118
X92.059Y-231.168
X92.059Y-251.218
X93.177Y-160.807
X93.177Y-180.857
X93.177Y-200.907
X93.177Y-220.957
X93.177Y-241.007
X93.888Y-166.345
X93.888Y-186.395
X93.888Y-206.445
X93.888Y-226.495
X93.888Y-246.545
X95.209Y-175.285
X95.209Y-195.335
X95.209Y-215.385
X95.209Y-235.435
X95.209Y-255.485
X96.72Y-171.298
X96.72Y-191.348
X96.72Y-211.398
X96.72Y-231.448
X96.72Y-251.498
X97.088Y-166.345
X97.088Y-186.395
X97.088Y-206.445
X97.088Y-226.495
X97.088Y-246.545
X98.447Y-168.846
X98.447Y-188.897
X98.447Y-208.946
X98.447Y-228.996
X98.447Y-249.046
X98.866Y-163.97
X98.866Y-184.02
X98.866Y-204.07
X98.866Y-224.12
X98.866Y-244.17
X101.305Y-174.244
X101.305Y-194.294
X101.305Y-214.344
X101.305Y-234.394
X101.305Y-254.444
X102.625Y-166.903
X102.625Y-186.953
X102.625Y-207.003
X102.625Y-227.053
X102.625Y-247.103
X104.251Y-165.684
X104.251Y-185.734
X104.251Y-205.784
X104.251Y-225.834
X104.251Y-245.884
X106.775Y-171.526
X106.775Y-191.576
X106.775Y-211.626
X106.775Y-231.676
X106.775Y-251.726
X107.156Y-166.332
X107.156Y-186.382
X107.156Y-206.432
X107.156Y-226.482
X107.156Y-246.532
X110.217Y-170.409
X110.217Y-190.459
X110.217Y-210.509
X110.217Y-230.559
X110.217Y-250.609
X110.483Y-176.403
X110.483Y-196.453
X110.483Y-216.503
X110.483Y-236.553
X110.483Y-256.603
X111.753Y-162.839
X111.753Y-182.889
X111.753Y-202.939
X111.753Y-222.989
X111.753Y-243.039
X112.109Y-171.018
X112.109Y-191.068
X112.109Y-211.118
X112.109Y-231.168
X112.109Y-251.218
X113.227Y-160.807
X113.227Y-180.857
X113.227Y-200.907
X113.227Y-220.957
X113.227Y-241.007
X113.938Y-166.345
X113.938Y-186.395
X113.938Y-206.445
X113.938Y-226.495
X113.938Y-246.545
X115.259Y-175.285
X115.259Y-195.335
X115.259Y-215.385
X115.259Y-235.435
X115.259Y-255.485
X116.77Y-171.298
X116.77Y-191.348
X116.77Y-211.398
X116.77Y-231.448
X116.77Y-251.498
X117.138Y-166.345
X117.138Y-186.395
X117.138Y-206.445
X117.138Y-226.495
X117.138Y-246.545
X118.497Y-168.846
X118.497Y-188.897
X118.497Y-208.946
X118.497Y-228.996
X118.497Y-249.046
X118.916Y-163.97
X118.916Y-184.02
X118.916Y-204.07
X118.916Y-224.12
X118.916Y-244.17
X121.355Y-174.244
X121.355Y-194.294
X121.355Y-214.344
X121.355Y-234.394
X121.355Y-254.444
X122.675Y-166.903
X122.675Y-186.953
X122.675Y-207.003
X122.675Y-227.053
X122.675Y-247.103
X124.301Y-165.684
X124.301Y-185.734
X124.301Y-205.784
X124.301Y-225.834
X124.301Y-245.884
X126.825Y-171.526
X126.825Y-191.576
X126.825Y-211.626
X126.825Y-231.676
X126.825Y-251.726
X127.206Y-166.332
X127.206Y-186.382
X127.206Y-206.432
X127.206Y-226.482
X127.206Y-246.532
X130.267Y-170.409
X130.267Y-190.459
X130.267Y-210.509
X130.267Y-230.559
X130.267Y-250.609
X130.533Y-176.403
X130.533Y-196.453
X130.533Y-216.503
X130.533Y-236.553
X130.533Y-256.603
X131.803Y-162.839
X131.803Y-182.889
X131.803Y-202.939
X131.803Y-222.989
X131.803Y-243.039
X132.159Y-171.018
X132.159Y-191.068
X132.159Y-211.118
X132.159Y-231.168
X132.159Y-251.218
X133.277Y-160.807
X133.277Y-180.857
X133.277Y-200.907
X133.277Y-220.957
X133.277Y-241.007
X133.988Y-166.345
X133.988Y-186.395
X133.988Y-206.445
X133.988Y-226.495
X133.988Y-246.545
X135.309Y-175.285
X135.309Y-195.335
X135.309Y-215.385
X135.309Y-235.435
X135.309Y-255.485
X136.82Y-171.298
X136.82Y-191.348
X136.82Y-211.398
X136.82Y-231.448
X136.82Y-251.498
X137.188Y-166.345
X137.188Y-186.395
X137.188Y-206.445
X137.188Y-226.495
X137.188Y-246.545
X138.547Y-168.846
X138.547Y-188.897
X138.547Y-208.946
X138.547Y-228.996
X138.547Y-249.046
X138.966Y-163.97
X138.966Y-184.02
X138.966Y-204.07
X138.966Y-224.12
X138.966Y-244.17
X141.405Y-174.244
X141.405Y-194.294
X141.405Y-214.344
X141.405Y-234.394
X141.405Y-254.444
X142.725Y-166.903
X142.725Y-186.953
X142.725Y-207.003
X142.725Y-227.053
X142.725Y-247.103
X144.351Y-165.684
X144.351Y-185.734
X144.351Y-205.784
X144.351Y-225.834
X144.351Y-245.884
X146.875Y-171.526
X146.875Y-191.576
X146.875Y-211.626
X146.875Y-231.676
X146.875Y-251.726
X147.256Y-166.332
X147.256Y-186.382
X147.256Y-206.432
X147.256Y-226.482
X147.256Y-246.532
X150.317Y-170.409
X150.317Y-190.459
X150.317Y-210.509
X150.317Y-230.559
X150.317Y-250.609
X150.583Y-176.403
X150.583Y-196.453
X150.583Y-216.503
X150.583Y-236.553
X150.583Y-256.603
X151.853Y-162.839
X151.853Y-182.889
X151.853Y-202.939
X151.853Y-222.989
X151.853Y-243.039
X152.209Y-171.018
X152.209Y-191.068
X152.209Y-211.118
X152.209Y-231.168
X152.209Y-251.218
X153.327Y-160.807
X153.327Y-180.857
X153.327Y-200.907
X153.327Y-220.957
X153.327Y-241.007
X154.038Y-166.345
X154.038Y-186.395
X154.038Y-206.445
X154.038Y-226.495
X154.038Y-246.545
X155.359Y-175.285
X155.359Y-195.335
X155.359Y-215.385
X155.359Y-235.435
X155.359Y-255.485
X156.87Y-171.298
X156.87Y-191.348
X156.87Y-211.398
X156.87Y-231.448
X156.87Y-251.498
X157.238Y-166.345
X157.238Y-186.395
X157.238Y-206.445
X157.238Y-226.495
X157.238Y-246.545
X158.597Y-168.846
X158.597Y-188.897
X158.597Y-208.946
X158.597Y-228.996
X158.597Y-249.046
X159.016Y-163.97
X159.016Y-184.02
X159.016Y-204.07
X159.016Y-224.12
X159.016Y-244.17
X161.455Y-174.244
X161.455Y-194.294
X161.455Y-214.344
X161.455Y-234.394
X161.455Y-254.444
X162.775Y-166.903
X162.775Y-186.953
X162.775Y-207.003
X162.775Y-227.053
X162.775Y-247.103
X164.401Y-165.684
X164.401Y-185.734
X164.401Y-205.784
X164.401Y-225.834
X164.401Y-245.884
T3
X67.945Y-161.163
X67.945Y-162.433
X67.945Y-163.703
X67.945Y-164.973
X67.945Y-181.213
X67.945Y-182.483
X67.945Y-183.753
X67.945Y-185.023
X67.945Y-201.263
X67.945Y-202.533
X67.945Y-203.803
X67.945Y-205.073
X67.945Y-221.313
X67.945Y-222.583
X67.945Y-223.853
X67.945Y-225.123
X67.945Y-241.363
X67.945Y-242.633
X67.945Y-243.903
X67.945Y-245.173
X71.679Y-160.782
X71.679Y-176.759
X71.679Y-180.832
X71.679Y-196.809
X71.679Y-200.882
X71.679Y-216.859
X71.679Y-220.932
X71.679Y-236.909
X71.679Y-240.982
X71.679Y-256.959
X76.835Y-160.782
X76.835Y-176.759
X76.835Y-180.832
X76.835Y-196.809
X76.835Y-200.882
X76.835Y-216.859
X76.835Y-220.932
X76.835Y-236.909
X76.835Y-240.982
X76.835Y-256.959
X78.105Y-160.782
X78.105Y-176.759
X78.105Y-180.832
X78.105Y-196.809
X78.105Y-200.882
X78.105Y-216.859
X78.105Y-220.932
X78.105Y-236.909
X78.105Y-240.982
X78.105Y-256.959
X79.375Y-160.782
X79.375Y-176.759
X79.375Y-180.832
X79.375Y-196.809
X79.375Y-200.882
X79.375Y-216.859
X79.375Y-220.932
X79.375Y-236.909
X79.375Y-240.982
X79.375Y-256.959
X80.645Y-160.782
X80.645Y-176.759
X80.645Y-180.832
X80.645Y-196.809
X80.645Y-200.882
X80.645Y-216.859
X80.645Y-220.932
X80.645Y-236.909
X80.645Y-240.982
X80.645Y-256.959
X82.906Y-161.163
X82.906Y-162.433
X82.906Y-163.703
X82.906Y-164.973
X82.906Y-181.213
X82.906Y-182.483
X82.906Y-183.753
X82.906Y-185.023
X82.906Y-201.263
X82.906Y-202.533
X82.906Y-203.803
X82.906Y-205.073
X82.906Y-221.313
X82.906Y-222.583
X82.906Y-223.853
X82.906Y-225.123
X82.906Y-241.363
X82.906Y-242.633
X82.906Y-243.903
X82.906Y-245.173
X87.995Y-161.163
X87.995Y-162.433
X87.995Y-163.703
X87.995Y-164.973
X87.995Y-181.213
X87.995Y-182.483
X87.995Y-183.753
X87.995Y-185.023
X87.995Y-201.263
X87.995Y-202.533
X87.995Y-203.803
X87.995Y-205.073
X87.995Y-221.313
X87.995Y-222.583
X87.995Y-223.853
X87.995Y-225.123
X87.995Y-241.363
X87.995Y-242.633
X87.995Y-243.903
X87.995Y-245.173
X91.729Y-160.782
X91.729Y-176.759
X91.729Y-180.832
X91.729Y-196.809
X91.729Y-200.882
X91.729Y-216.859
X91.729Y-220.932
X91.729Y-236.909
X91.729Y-240.982
X91.729Y-256.959
X96.885Y-160.782
X96.885Y-176.759
X96.885Y-180.832
X96.885Y-196.809
X96.885Y-200.882
X96.885Y-216.859
X96.885Y-220.932
X96.885Y-236.909
X96.885Y-240.982
X96.885Y-256.959
X98.155Y-160.782
X98.155Y-176.759
X98.155Y-180.832
X98.155Y-196.809
X98.155Y-200.882
X98.155Y-216.859
X98.155Y-220.932
X98.155Y-236.909
X98.155Y-240.982
X98.155Y-256.959
X99.425Y-160.782
X99.425Y-176.759
X99.425Y-180.832
X99.425Y-196.809
X99.425Y-200.882
X99.425Y-216.859
X99.425Y-220.932
X99.425Y-236.909
X99.425Y-240.982
X99.425Y-256.959
X100.695Y-160.782
X100.695Y-176.759
X100.695Y-180.832
X100.695Y-196.809
X100.695Y-200.882
X100.695Y-216.859
X100.695Y-220.932
X100.695Y-236.909
X100.695Y-240.982
X100.695Y-256.959
X102.956Y-161.163
X102.956Y-162.433
X102.956Y-163.703
X102.956Y-164.973
X102.956Y-181.213
X102.956Y-182.483
X102.956Y-183.753
X102.956Y-185.023
X102.956Y-201.263
X102.956Y-202.533
X102.956Y-203.803
X102.956Y-205.073
X102.956Y-221.313
X102.956Y-222.583
X102.956Y-223.853
X102.956Y-225.123
X102.956Y-241.363
X102.956Y-242.633
X102.956Y-243.903
X102.956Y-245.173
X108.045Y-161.163
X108.045Y-162.433
X108.045Y-163.703
X108.045Y-164.973
X108.045Y-181.213
X108.045Y-182.483
X108.045Y-183.753
X108.045Y-185.023
X108.045Y-201.263
X108.045Y-202.533
X108.045Y-203.803
X108.045Y-205.073
X108.045Y-221.313
X108.045Y-222.583
X108.045Y-223.853
X108.045Y-225.123
X108.045Y-241.363
X108.045Y-242.633
X108.045Y-243.903
X108.045Y-245.173
X111.779Y-160.782
X111.779Y-176.759
X111.779Y-180.832
X111.779Y-196.809
X111.779Y-200.882
X111.779Y-216.859
X111.779Y-220.932
X111.779Y-236.909
X111.779Y-240.982
X111.779Y-256.959
X116.935Y-160.782
X116.935Y-176.759
X116.935Y-180.832
X116.935Y-196.809
X116.935Y-200.882
X116.935Y-216.859
X116.935Y-220.932
X116.935Y-236.909
X116.935Y-240.982
X116.935Y-256.959
X118.205Y-160.782
X118.205Y-176.759
X118.205Y-180.832
X118.205Y-196.809
X118.205Y-200.882
X118.205Y-216.859
X118.205Y-220.932
X118.205Y-236.909
X118.205Y-240.982
X118.205Y-256.959
X119.475Y-160.782
X119.475Y-176.759
X119.475Y-180.832
X119.475Y-196.809
X119.475Y-200.882
X119.475Y-216.859
X119.475Y-220.932
X119.475Y-236.909
X119.475Y-240.982
X119.475Y-256.959
X120.745Y-160.782
X120.745Y-176.759
X120.745Y-180.832
X120.745Y-196.809
X120.745Y-200.882
X120.745Y-216.859
X120.745Y-220.932
X120.745Y-236.909
X120.745Y-240.982
X120.745Y-256.959
X123.006Y-161.163
X123.006Y-162.433
X123.006Y-163.703
X123.006Y-164.973
X123.006Y-181.213
X123.006Y-182.483
X123.006Y-183.753
X123.006Y-185.023
X123.006Y-201.263
X123.006Y-202.533
X123.006Y-203.803
X123.006Y-205.073
X123.006Y-221.313
X123.006Y-222.583
X123.006Y-223.853
X123.006Y-225.123
X123.006Y-241.363
X123.006Y-242.633
X123.006Y-243.903
X123.006Y-245.173
X128.095Y-161.163
X128.095Y-162.433
X128.095Y-163.703
X128.095Y-164.973
X128.095Y-181.213
X128.095Y-182.483
X128.095Y-183.753
X128.095Y-185.023
X128.095Y-201.263
X128.095Y-202.533
X128.095Y-203.803
X128.095Y-205.073
X128.095Y-221.313
X128.095Y-222.583
X128.095Y-223.853
X128.095Y-225.123
X128.095Y-241.363
X128.095Y-242.633
X128.095Y-243.903
X128.095Y-245.173
X131.829Y-160.782
X131.829Y-176.759
X131.829Y-180.832
X131.829Y-196.809
X131.829Y-200.882
X131.829Y-216.859
X131.829Y-220.932
X131.829Y-236.909
X131.829Y-240.982
X131.829Y-256.959
X136.985Y-160.782
X136.985Y-176.759
X136.985Y-180.832
X136.985Y-196.809
X136.985Y-200.882
X136.985Y-216.859
X136.985Y-220.932
X136.985Y-236.909
X136.985Y-240.982
X136.985Y-256.959
X138.255Y-160.782
X138.255Y-176.759
X138.255Y-180.832
X138.255Y-196.809
X138.255Y-200.882
X138.255Y-216.859
X138.255Y-220.932
X138.255Y-236.909
X138.255Y-240.982
X138.255Y-256.959
X139.525Y-160.782
X139.525Y-176.759
X139.525Y-180.832
X139.525Y-196.809
X139.525Y-200.882
X139.525Y-216.859
X139.525Y-220.932
X139.525Y-236.909
X139.525Y-240.982
X139.525Y-256.959
X140.795Y-160.782
X140.795Y-176.759
X140.795Y-180.832
X140.795Y-196.809
X140.795Y-200.882
X140.795Y-216.859
X140.795Y-220.932
X140.795Y-236.909
X140.795Y-240.982
X140.795Y-256.959
X143.056Y-161.163
X143.056Y-162.433
X143.056Y-163.703
X143.056Y-164.973
X143.056Y-181.213
X143.056Y-182.483
X143.056Y-183.753
X143.056Y-185.023
X143.056Y-201.263
X143.056Y-202.533
X143.056Y-203.803
X143.056Y-205.073
X143.056Y-221.313
X143.056Y-222.583
X143.056Y-223.853
X143.056Y-225.123
X143.056Y-241.363
X143.056Y-242.633
X143.056Y-243.903
X143.056Y-245.173
X148.145Y-161.163
X148.145Y-162.433
X148.145Y-163.703
X148.145Y-164.973
X148.145Y-181.213
X148.145Y-182.483
X148.145Y-183.753
X148.145Y-185.023
X148.145Y-201.263
X148.145Y-202.533
X148.145Y-203.803
X148.145Y-205.073
X148.145Y-221.313
X148.145Y-222.583
X148.145Y-223.853
X148.145Y-225.123
X148.145Y-241.363
X148.145Y-242.633
X148.145Y-243.903
X148.145Y-245.173
X151.879Y-160.782
X151.879Y-176.759
X151.879Y-180.832
X151.879Y-196.809
X151.879Y-200.882
X151.879Y-216.859
X151.879Y-220.932
X151.879Y-236.909
X151.879Y-240.982
X151.879Y-256.959
X157.035Y-160.782
X157.035Y-176.759
X157.035Y-180.832
X157.035Y-196.809
X157.035Y-200.882
X157.035Y-216.859
X157.035Y-220.932
X157.035Y-236.909
X157.035Y-240.982
X157.035Y-256.959
X158.305Y-160.782
X158.305Y-176.759
X158.305Y-180.832
X158.305Y-196.809
X158.305Y-200.882
X158.305Y-216.859
X158.305Y-220.932
X158.305Y-236.909
X158.305Y-240.982
X158.305Y-256.959
X159.575Y-160.782
X159.575Y-176.759
X159.575Y-180.832
X159.575Y-196.809
X159.575Y-200.882
X159.575Y-216.859
X159.575Y-220.932
X159.575Y-236.909
X159.575Y-240.982
X159.575Y-256.959
X160.845Y-160.782
X160.845Y-176.759
X160.845Y-180.832
X160.845Y-196.809
X160.845Y-200.882
X160.845Y-216.859
X160.845Y-220.932
X160.845Y-236.909
X160.845Y-240.982
X160.845Y-256.959
X163.106Y-161.163
X163.106Y-162.433
X163.106Y-163.703
X163.106Y-164.973
X163.106Y-181.213
X163.106Y-182.483
X163.106Y-183.753
X163.106Y-185.023
X163.106Y-201.263
X163.106Y-202.533
X163.106Y-203.803
X163.106Y-205.073
X163.106Y-221.313
X163.106Y-222.583
X163.106Y-223.853
X163.106Y-225.123
X163.106Y-241.363
X163.106Y-242.633
X163.106Y-243.903
X163.106Y-245.173
T0
M30
